<?xml version="1.0" encoding="UTF-8" standalone="no"?>
<svg
   xmlns:dc="http://purl.org/dc/elements/1.1/"
   xmlns:cc="http://creativecommons.org/ns#"
   xmlns:rdf="http://www.w3.org/1999/02/22-rdf-syntax-ns#"
   xmlns:svg="http://www.w3.org/2000/svg"
   xmlns="http://www.w3.org/2000/svg"
   xmlns:sodipodi="http://sodipodi.sourceforge.net/DTD/sodipodi-0.dtd"
   xmlns:inkscape="http://www.inkscape.org/namespaces/inkscape"
   version="1.1"
   id="svg2"
   xml:space="preserve"
   width="1200"
   height="1200"
   viewBox="0 0 1200 1200"
   sodipodi:docname="569.eps"><metadata
     id="metadata8"><rdf:RDF><cc:Work
         rdf:about=""><dc:format>image/svg+xml</dc:format><dc:type
           rdf:resource="http://purl.org/dc/dcmitype/StillImage" /></cc:Work></rdf:RDF></metadata><defs
     id="defs6" /><sodipodi:namedview
     pagecolor="#ffffff"
     bordercolor="#666666"
     borderopacity="1"
     objecttolerance="10"
     gridtolerance="10"
     guidetolerance="10"
     inkscape:pageopacity="0"
     inkscape:pageshadow="2"
     inkscape:window-width="640"
     inkscape:window-height="480"
     id="namedview4" /><g
     id="g10"
     inkscape:groupmode="layer"
     inkscape:label="ink_ext_XXXXXX"
     transform="matrix(1.3333333,0,0,-1.3333333,0,1200)"><g
       id="g12"
       transform="scale(0.1)"><path
         d="m 4566.09,4310.29 h -774.54 l 0.02,158.42 H 1535.9 c -30.62,0 -58.29,12.42 -78.42,32.53 -20.11,20.13 -32.53,47.81 -32.54,78.41 v 2114.48 c 0.01,30.61 12.43,58.29 32.54,78.41 20.13,20.11 47.8,32.53 78.42,32.54 h 3673.94 v 9.72 0 -9.72 c 30.61,-0.01 58.29,-12.43 78.41,-32.54 20.11,-20.12 32.53,-47.8 32.54,-78.41 V 4579.65 c -0.01,-30.6 -12.43,-58.28 -32.54,-78.41 -20.12,-20.11 -47.8,-32.53 -78.41,-32.53 h -643.75 v -158.42"
         style="fill:#c9a3ad;fill-opacity:1;fill-rule:nonzero;stroke:none"
         id="path14" /><path
         d="m 4585.54,4290.84 h -813.41 l 0.01,158.42 H 1535.9 c -71.93,0.01 -130.39,58.46 -130.4,130.39 v 2114.48 c 0.01,71.93 58.47,130.38 130.4,130.4 h 3673.94 v -9.73 -9.72 H 1535.9 c -30.62,-0.01 -58.29,-12.43 -78.42,-32.54 -20.11,-20.12 -32.53,-47.8 -32.54,-78.41 V 4579.65 c 0.01,-30.6 12.43,-58.28 32.54,-78.41 20.13,-20.11 47.8,-32.53 78.42,-32.53 h 2255.67 l -0.02,-158.42 h 181.09 10.28 190.77 201.07 191.33 v 158.42 h 643.75 c 30.61,0 58.29,12.42 78.41,32.53 20.11,20.13 32.53,47.81 32.54,78.41 v 2114.48 c -0.01,30.61 -12.43,58.29 -32.54,78.41 -20.12,20.11 -47.8,32.53 -78.41,32.54 v 9.72 9.73 c 71.93,-0.02 130.39,-58.47 130.39,-130.4 V 4579.65 c 0,-71.93 -58.46,-130.38 -130.39,-130.39 h -624.3 v -158.42"
         style="fill:#c9a3ad;fill-opacity:1;fill-rule:nonzero;stroke:none"
         id="path16" /><path
         d="M 5184.82,4599.45 H 1360.93 V 6863.87 H 5184.82 V 4599.45"
         style="fill:#ffffff;fill-opacity:1;fill-rule:nonzero;stroke:none"
         id="path18" /><path
         d="m 1435.9,6833.41 c -16.14,0 -29.28,-13.14 -29.28,-29.28 V 4689.66 c 0,-16.15 13.14,-29.29 29.28,-29.29 h 3673.95 c 16.15,0 29.28,13.14 29.28,29.29 v 2114.47 c 0,16.14 -13.13,29.28 -29.28,29.28 z M 5109.85,4568.98 H 1435.9 c -66.53,0 -120.68,54.13 -120.68,120.68 v 2114.47 c 0,66.54 54.15,120.67 120.68,120.67 h 3673.95 c 66.54,0 120.67,-54.13 120.67,-120.67 V 4689.66 c 0,-66.55 -54.13,-120.68 -120.67,-120.68"
         style="fill:#cfe5de;fill-opacity:1;fill-rule:nonzero;stroke:none"
         id="path20" /><path
         d="m 1435.9,6833.41 c -16.14,0 -29.28,-13.14 -29.28,-29.28 V 4689.66 c 0,-16.15 13.14,-29.29 29.28,-29.29 h 3673.95 c 16.15,0 29.28,13.14 29.28,29.29 v 2114.47 c 0,16.14 -13.13,29.28 -29.28,29.28 z M 5109.85,4568.98 H 1435.9 c -66.53,0 -120.68,54.13 -120.68,120.68 v 2114.47 c 0,66.54 54.15,120.67 120.68,120.67 h 3673.95 c 66.54,0 120.67,-54.13 120.67,-120.67 V 4689.66 c 0,-66.55 -54.13,-120.68 -120.67,-120.68 z"
         style="fill:none;stroke:#5f111c;stroke-width:17.9926;stroke-linecap:butt;stroke-linejoin:miter;stroke-miterlimit:10;stroke-dasharray:none;stroke-opacity:1"
         id="path22" /><path
         d="m 1514,6879.11 v -0.01 c 0,-25.23 -20.46,-45.69 -45.69,-45.69 h -26.28 c -19.56,0 -35.41,-15.86 -35.41,-35.41 v -60.55 c 0,-25.24 -20.46,-45.7 -45.69,-45.7 -25.25,0 -45.71,20.46 -45.71,45.7 v 112.41 c 0,41.39 33.56,74.94 74.95,74.94 h 78.14 c 25.23,0 45.69,-20.46 45.69,-45.69"
         style="fill:#b6cfc7;fill-opacity:1;fill-rule:nonzero;stroke:none"
         id="path24" /><path
         d="m 1514,6879.11 v -0.01 c 0,-25.23 -20.46,-45.69 -45.69,-45.69 h -26.28 c -19.56,0 -35.41,-15.86 -35.41,-35.41 v -60.55 c 0,-25.24 -20.46,-45.7 -45.69,-45.7 -25.25,0 -45.71,20.46 -45.71,45.7 v 112.41 c 0,41.39 33.56,74.94 74.95,74.94 h 78.14 c 25.23,0 45.69,-20.46 45.69,-45.69 z"
         style="fill:none;stroke:#5f111c;stroke-width:17.9926;stroke-linecap:butt;stroke-linejoin:miter;stroke-miterlimit:10;stroke-dasharray:none;stroke-opacity:1"
         id="path26" /><path
         d="m 1360.93,4767.76 v 0 c 25.23,0 45.69,-20.46 45.69,-45.7 v -26.27 c 0,-19.56 15.85,-35.42 35.41,-35.42 h 60.55 c 25.24,0 45.69,-20.46 45.69,-45.69 0,-25.24 -20.45,-45.7 -45.69,-45.7 h -112.41 c -41.39,0 -74.95,33.55 -74.95,74.94 v 78.14 c 0,25.24 20.46,45.7 45.71,45.7"
         style="fill:#b6cfc7;fill-opacity:1;fill-rule:nonzero;stroke:none"
         id="path28" /><path
         d="m 1360.93,4767.76 v 0 c 25.23,0 45.69,-20.46 45.69,-45.7 v -26.27 c 0,-19.56 15.85,-35.42 35.41,-35.42 h 60.55 c 25.24,0 45.69,-20.46 45.69,-45.69 0,-25.24 -20.45,-45.7 -45.69,-45.7 h -112.41 c -41.39,0 -74.95,33.55 -74.95,74.94 v 78.14 c 0,25.24 20.46,45.7 45.71,45.7 z"
         style="fill:none;stroke:#5f111c;stroke-width:17.9926;stroke-linecap:butt;stroke-linejoin:miter;stroke-miterlimit:10;stroke-dasharray:none;stroke-opacity:1"
         id="path30" /><path
         d="m 5031.74,6879.11 v -0.01 c 0,-25.23 20.46,-45.69 45.7,-45.69 h 26.27 c 19.56,0 35.42,-15.86 35.42,-35.41 v -60.55 c 0,-25.24 20.46,-45.7 45.69,-45.7 25.24,0 45.7,20.46 45.7,45.7 v 112.41 c 0,41.39 -33.56,74.94 -74.94,74.94 h -78.14 c -25.24,0 -45.7,-20.46 -45.7,-45.69"
         style="fill:#b6cfc7;fill-opacity:1;fill-rule:nonzero;stroke:none"
         id="path32" /><path
         d="m 5031.74,6879.11 v -0.01 c 0,-25.23 20.46,-45.69 45.7,-45.69 h 26.27 c 19.56,0 35.42,-15.86 35.42,-35.41 v -60.55 c 0,-25.24 20.46,-45.7 45.69,-45.7 25.24,0 45.7,20.46 45.7,45.7 v 112.41 c 0,41.39 -33.56,74.94 -74.94,74.94 h -78.14 c -25.24,0 -45.7,-20.46 -45.7,-45.69 z"
         style="fill:none;stroke:#5f111c;stroke-width:17.9926;stroke-linecap:butt;stroke-linejoin:miter;stroke-miterlimit:10;stroke-dasharray:none;stroke-opacity:1"
         id="path34" /><path
         d="m 5184.82,4767.76 v 0 c -25.23,0 -45.69,-20.46 -45.69,-45.7 v -26.27 c 0,-19.56 -15.86,-35.42 -35.42,-35.42 h -60.55 c -25.23,0 -45.69,-20.46 -45.69,-45.69 0,-25.24 20.46,-45.7 45.69,-45.7 h 112.42 c 41.38,0 74.94,33.55 74.94,74.94 v 78.14 c 0,25.24 -20.46,45.7 -45.7,45.7"
         style="fill:#b6cfc7;fill-opacity:1;fill-rule:nonzero;stroke:none"
         id="path36" /><path
         d="m 5184.82,4767.76 v 0 c -25.23,0 -45.69,-20.46 -45.69,-45.7 v -26.27 c 0,-19.56 -15.86,-35.42 -35.42,-35.42 h -60.55 c -25.23,0 -45.69,-20.46 -45.69,-45.69 0,-25.24 20.46,-45.7 45.69,-45.7 h 112.42 c 41.38,0 74.94,33.55 74.94,74.94 v 78.14 c 0,25.24 -20.46,45.7 -45.7,45.7 z"
         style="fill:none;stroke:#5f111c;stroke-width:17.9926;stroke-linecap:butt;stroke-linejoin:miter;stroke-miterlimit:10;stroke-dasharray:none;stroke-opacity:1"
         id="path38" /><path
         d="m 2085.97,4792.71 h -36.57 v 1940.17 h 36.57 V 4792.71"
         style="fill:#ead9d5;fill-opacity:1;fill-rule:nonzero;stroke:none"
         id="path40" /><path
         d="m 3005.98,4792.71 h -36.56 v 1940.17 h 36.56 V 4792.71"
         style="fill:#ead9d5;fill-opacity:1;fill-rule:nonzero;stroke:none"
         id="path42" /><path
         d="m 1514,6173.1 v 36.56 H 4970.9 V 6173.1 H 1514"
         style="fill:#ead9d5;fill-opacity:1;fill-rule:nonzero;stroke:none"
         id="path44" /><path
         d="m 1514,5866.94 v 36.56 h 3456.9 v -36.56 H 1514"
         style="fill:#ead9d5;fill-opacity:1;fill-rule:nonzero;stroke:none"
         id="path46" /><path
         d="m 1514,5866.94 v 36.56 h 3456.9 v -36.56 H 1514"
         style="fill:#ead9d5;fill-opacity:1;fill-rule:nonzero;stroke:none"
         id="path48" /><path
         d="m 1514,5560.78 v 36.56 h 3456.9 v -36.56 H 1514"
         style="fill:#ead9d5;fill-opacity:1;fill-rule:nonzero;stroke:none"
         id="path50" /><path
         d="m 1514,5560.78 v 36.56 h 3456.9 v -36.56 H 1514"
         style="fill:#ead9d5;fill-opacity:1;fill-rule:nonzero;stroke:none"
         id="path52" /><path
         d="m 1514,5254.62 v 36.55 h 3456.9 v -36.55 H 1514"
         style="fill:#ead9d5;fill-opacity:1;fill-rule:nonzero;stroke:none"
         id="path54" /><path
         d="m 1514,5254.62 v 36.55 h 3456.9 v -36.55 H 1514"
         style="fill:#ead9d5;fill-opacity:1;fill-rule:nonzero;stroke:none"
         id="path56" /><path
         d="m 1514,4948.45 v 36.56 h 3456.9 v -36.56 H 1514"
         style="fill:#ead9d5;fill-opacity:1;fill-rule:nonzero;stroke:none"
         id="path58" /><path
         d="m 3931.87,4792.71 h -36.57 v 1940.17 h 36.57 V 4792.71"
         style="fill:#ead9d5;fill-opacity:1;fill-rule:nonzero;stroke:none"
         id="path60" /><path
         d="m 4486.52,4792.71 h -36.55 v 1940.17 h 36.55 V 4792.71"
         style="fill:#ead9d5;fill-opacity:1;fill-rule:nonzero;stroke:none"
         id="path62" /><path
         d="m 2354.04,6531.82 h -201.05 v 201.06 h 201.05 v -201.06"
         style="fill:#f79229;fill-opacity:1;fill-rule:nonzero;stroke:none"
         id="path64" /><path
         d="m 2625.18,6531.82 h -201.07 v 201.06 h 201.07 v -201.06"
         style="fill:#e34051;fill-opacity:1;fill-rule:nonzero;stroke:none"
         id="path66" /><path
         d="M 2887.17,6531.82 H 2686.1 v 201.06 h 201.07 v -201.06"
         style="fill:#f79229;fill-opacity:1;fill-rule:nonzero;stroke:none"
         id="path68" /><path
         d="m 2354.04,6271.35 h -201.05 v 201.06 h 201.05 v -201.06"
         style="fill:#e34051;fill-opacity:1;fill-rule:nonzero;stroke:none"
         id="path70" /><path
         d="m 2625.18,6271.35 h -201.07 v 201.06 h 201.07 v -201.06"
         style="fill:#e34051;fill-opacity:1;fill-rule:nonzero;stroke:none"
         id="path72" /><path
         d="M 2887.17,6271.35 H 2686.1 v 201.06 h 201.07 v -201.06"
         style="fill:#f79229;fill-opacity:1;fill-rule:nonzero;stroke:none"
         id="path74" /><path
         d="m 3301.47,6531.82 h -201.06 v 201.06 h 201.06 v -201.06"
         style="fill:#f79229;fill-opacity:1;fill-rule:nonzero;stroke:none"
         id="path76" /><path
         d="m 3575.65,6531.82 h -201.06 v 201.06 h 201.06 v -201.06"
         style="fill:#f79229;fill-opacity:1;fill-rule:nonzero;stroke:none"
         id="path78" /><path
         d="m 3301.47,6271.35 h -201.06 v 201.06 h 201.06 v -201.06"
         style="fill:#f79229;fill-opacity:1;fill-rule:nonzero;stroke:none"
         id="path80" /><path
         d="m 3301.47,5940.05 h -201.06 v 201.07 h 201.06 v -201.07"
         style="fill:#ead9d5;fill-opacity:1;fill-rule:nonzero;stroke:none"
         id="path82" /><path
         d="m 3575.65,5940.05 h -201.06 v 201.07 h 201.06 v -201.07"
         style="fill:#ead9d5;fill-opacity:1;fill-rule:nonzero;stroke:none"
         id="path84" /><path
         d="m 2354.04,5940.05 h -201.05 v 201.07 h 201.05 v -201.07"
         style="fill:#f79229;fill-opacity:1;fill-rule:nonzero;stroke:none"
         id="path86" /><path
         d="m 2625.18,5940.05 h -201.07 v 201.07 h 201.07 v -201.07"
         style="fill:#e34051;fill-opacity:1;fill-rule:nonzero;stroke:none"
         id="path88" /><path
         d="m 2686.1,5892.22 -198.81,-30.03 -30.02,198.81 198.8,30.03 30.03,-198.81"
         style="fill:#ffffff;fill-opacity:1;fill-rule:nonzero;stroke:none"
         id="path90" /><path
         d="m 2354.04,5646.36 h -201.05 v 201.06 h 201.05 v -201.06"
         style="fill:#f79229;fill-opacity:1;fill-rule:nonzero;stroke:none"
         id="path92" /><path
         d="m 3301.47,5324.57 h -201.06 v 201.06 h 201.06 v -201.06"
         style="fill:#f79229;fill-opacity:1;fill-rule:nonzero;stroke:none"
         id="path94" /><path
         d="m 2625.18,5646.36 h -201.07 v 201.06 h 201.07 v -201.06"
         style="fill:#e34051;fill-opacity:1;fill-rule:nonzero;stroke:none"
         id="path96" /><path
         d="m 2354.04,5336.11 h -201.05 v 201.06 h 201.05 v -201.06"
         style="fill:#f79229;fill-opacity:1;fill-rule:nonzero;stroke:none"
         id="path98" /><path
         d="m 2625.18,5336.11 h -201.07 v 201.06 h 201.07 v -201.06"
         style="fill:#e34051;fill-opacity:1;fill-rule:nonzero;stroke:none"
         id="path100" /><path
         d="m 2651.07,5026.9 h -201.06 v 201.06 h 201.06 V 5026.9"
         style="fill:#ffffff;fill-opacity:1;fill-rule:nonzero;stroke:none"
         id="path102" /><path
         d="m 2922.2,5026.9 h -201.06 v 201.06 H 2922.2 V 5026.9"
         style="fill:#ffffff;fill-opacity:1;fill-rule:nonzero;stroke:none"
         id="path104" /><path
         d="m 3229.74,6452.5 -181.22,87.08 87.08,181.23 181.22,-87.09 -87.08,-181.22"
         style="fill:#f79229;fill-opacity:1;fill-rule:nonzero;stroke:none"
         id="path106" /><path
         d="m 3229.74,6452.5 -181.22,87.08 87.08,181.23 181.22,-87.09 z"
         style="fill:none;stroke:#5f111c;stroke-width:17.9926;stroke-linecap:round;stroke-linejoin:miter;stroke-miterlimit:10;stroke-dasharray:none;stroke-opacity:1"
         id="path108" /><path
         d="m 4178.84,6267.78 h -201.07 v 201.06 h 201.07 v -201.06"
         style="fill:#e34051;fill-opacity:1;fill-rule:nonzero;stroke:none"
         id="path110" /><path
         d="m 4178.84,5936.49 h -201.07 v 201.06 h 201.07 v -201.06"
         style="fill:#cfe5de;fill-opacity:1;fill-rule:nonzero;stroke:none"
         id="path112" /><path
         d="m 4178.84,5642.79 h -201.07 v 201.06 h 201.07 v -201.06"
         style="fill:#e34051;fill-opacity:1;fill-rule:nonzero;stroke:none"
         id="path114" /><path
         d="m 3828.51,5642.79 h -201.07 v 201.06 h 201.07 v -201.06"
         style="fill:#cfe5de;fill-opacity:1;fill-rule:nonzero;stroke:none"
         id="path116" /><path
         d="m 3575.65,5642.79 h -201.06 v 201.06 h 201.06 v -201.06"
         style="fill:#e34051;fill-opacity:1;fill-rule:nonzero;stroke:none"
         id="path118" /><path
         d="m 3301.47,5642.79 h -201.06 v 201.06 h 201.06 v -201.06"
         style="fill:#cfe5de;fill-opacity:1;fill-rule:nonzero;stroke:none"
         id="path120" /><path
         d="m 4178.84,5324.57 h -201.07 v 201.06 h 201.07 v -201.06"
         style="fill:#cfe5de;fill-opacity:1;fill-rule:nonzero;stroke:none"
         id="path122" /><path
         d="m 4178.84,5012.07 h -201.07 v 201.06 h 201.07 v -201.06"
         style="fill:#e34051;fill-opacity:1;fill-rule:nonzero;stroke:none"
         id="path124" /><path
         d="m 4078.31,4470.9 h -201.06 v 201.06 h 201.06 V 4470.9"
         style="fill:#e34051;fill-opacity:1;fill-rule:nonzero;stroke:none"
         id="path126" /><path
         d="m 4279.37,4470.9 h -201.06 v 201.06 h 201.06 V 4470.9"
         style="fill:#ffffff;fill-opacity:1;fill-rule:nonzero;stroke:none"
         id="path128" /><path
         d="m 4480.43,4470.9 h -201.06 v 201.06 h 201.06 V 4470.9"
         style="fill:#f79229;fill-opacity:1;fill-rule:nonzero;stroke:none"
         id="path130" /><path
         d="m 3887.53,4470.9 h -201.07 v 201.06 h 201.07 V 4470.9"
         style="fill:#cfe5de;fill-opacity:1;fill-rule:nonzero;stroke:none"
         id="path132" /><path
         d="m 4416.46,6267.78 h -201.07 v 201.06 h 201.07 v -201.06"
         style="fill:#f79229;fill-opacity:1;fill-rule:nonzero;stroke:none"
         id="path134" /><path
         d="m 4416.46,5936.49 h -201.07 v 201.06 h 201.07 v -201.06"
         style="fill:#f79229;fill-opacity:1;fill-rule:nonzero;stroke:none"
         id="path136" /><path
         d="m 4416.46,5642.79 h -201.07 v 201.06 h 201.07 v -201.06"
         style="fill:#f79229;fill-opacity:1;fill-rule:nonzero;stroke:none"
         id="path138" /><path
         d="m 4416.46,5324.57 h -201.07 v 201.06 h 201.07 v -201.06"
         style="fill:#f79229;fill-opacity:1;fill-rule:nonzero;stroke:none"
         id="path140" /><path
         d="m 4416.46,5012.07 h -201.07 v 201.06 h 201.07 v -201.06"
         style="fill:#f79229;fill-opacity:1;fill-rule:nonzero;stroke:none"
         id="path142" /><path
         d="m 4733.28,6267.78 h -201.06 v 201.06 h 201.06 v -201.06"
         style="fill:#ead9d5;fill-opacity:1;fill-rule:nonzero;stroke:none"
         id="path144" /><path
         d="m 4733.28,5936.49 h -201.06 v 201.06 h 201.06 v -201.06"
         style="fill:#ead9d5;fill-opacity:1;fill-rule:nonzero;stroke:none"
         id="path146" /><path
         d="m 4733.28,5642.79 h -201.06 v 201.06 h 201.06 v -201.06"
         style="fill:#ead9d5;fill-opacity:1;fill-rule:nonzero;stroke:none"
         id="path148" /><path
         d="m 4733.28,5324.57 h -201.06 v 201.06 h 201.06 v -201.06"
         style="fill:#ead9d5;fill-opacity:1;fill-rule:nonzero;stroke:none"
         id="path150" /><path
         d="m 4733.28,5012.07 h -201.06 v 201.06 h 201.06 v -201.06"
         style="fill:#ead9d5;fill-opacity:1;fill-rule:nonzero;stroke:none"
         id="path152" /><path
         d="M 2887.17,5940.05 H 2686.1 v 201.07 h 201.07 v -201.07"
         style="fill:#f79229;fill-opacity:1;fill-rule:nonzero;stroke:none"
         id="path154" /><path
         d="m 1985.43,6402.34 h -456.19 c -8.42,0 -15.24,6.83 -15.24,15.24 0,8.41 6.82,15.23 15.24,15.23 h 456.19 c 8.42,0 15.23,-6.82 15.23,-15.23 0,-8.41 -6.81,-15.24 -15.23,-15.24"
         style="fill:#ead9d5;fill-opacity:1;fill-rule:nonzero;stroke:none"
         id="path156" /><path
         d="m 1985.43,6025.35 h -456.19 c -8.42,0 -15.24,6.82 -15.24,15.24 0,8.41 6.82,15.23 15.24,15.23 h 456.19 c 8.42,0 15.23,-6.82 15.23,-15.23 0,-8.42 -6.81,-15.24 -15.23,-15.24"
         style="fill:#ead9d5;fill-opacity:1;fill-rule:nonzero;stroke:none"
         id="path158" /><path
         d="m 1985.43,5716.43 h -456.19 c -8.42,0 -15.24,6.82 -15.24,15.23 0,8.41 6.82,15.23 15.24,15.23 h 456.19 c 8.42,0 15.23,-6.82 15.23,-15.23 0,-8.41 -6.81,-15.23 -15.23,-15.23"
         style="fill:#ead9d5;fill-opacity:1;fill-rule:nonzero;stroke:none"
         id="path160" /><path
         d="m 1985.43,5421.41 h -456.19 c -8.42,0 -15.24,6.82 -15.24,15.23 0,8.41 6.82,15.23 15.24,15.23 h 456.19 c 8.42,0 15.23,-6.82 15.23,-15.23 0,-8.41 -6.81,-15.23 -15.23,-15.23"
         style="fill:#ead9d5;fill-opacity:1;fill-rule:nonzero;stroke:none"
         id="path162" /><path
         d="m 3842.39,5600.4 -198.81,-30.03 -30.03,198.81 198.81,30.02 30.03,-198.8"
         style="fill:#e34051;fill-opacity:1;fill-rule:nonzero;stroke:none"
         id="path164" /><path
         d="m 1985.43,5096.97 h -456.19 c -8.42,0 -15.24,6.81 -15.24,15.23 0,8.41 6.82,15.23 15.24,15.23 h 456.19 c 8.42,0 15.23,-6.82 15.23,-15.23 0,-8.42 -6.81,-15.23 -15.23,-15.23"
         style="fill:#ead9d5;fill-opacity:1;fill-rule:nonzero;stroke:none"
         id="path166" /><path
         d="m 3771.77,5467.1 h -392.23 c -8.42,0 -15.23,6.82 -15.23,15.23 0,8.42 6.81,15.24 15.23,15.24 h 392.23 c 8.41,0 15.22,-6.82 15.22,-15.24 0,-8.41 -6.81,-15.23 -15.22,-15.23"
         style="fill:#ead9d5;fill-opacity:1;fill-rule:nonzero;stroke:none"
         id="path168" /><path
         d="m 3771.77,5375.71 h -392.23 c -8.42,0 -15.23,6.82 -15.23,15.23 0,8.42 6.81,15.23 15.23,15.23 h 392.23 c 8.41,0 15.22,-6.81 15.22,-15.23 0,-8.41 -6.81,-15.23 -15.22,-15.23"
         style="fill:#ead9d5;fill-opacity:1;fill-rule:nonzero;stroke:none"
         id="path170" /><path
         d="m 1977.82,6320.09 h -235.34 c -8.41,0 -15.22,6.82 -15.22,15.23 0,8.42 6.81,15.24 15.22,15.24 h 235.34 c 8.41,0 15.23,-6.82 15.23,-15.24 0,-8.41 -6.82,-15.23 -15.23,-15.23"
         style="fill:#ead9d5;fill-opacity:1;fill-rule:nonzero;stroke:none"
         id="path172" /><path
         d="m 3725.68,6304.34 h -235.33 c -8.41,0 -15.23,6.82 -15.23,15.23 0,8.41 6.82,15.23 15.23,15.23 h 235.33 c 8.42,0 15.24,-6.82 15.24,-15.23 0,-8.41 -6.82,-15.23 -15.24,-15.23"
         style="fill:#ead9d5;fill-opacity:1;fill-rule:nonzero;stroke:none"
         id="path174" /><path
         d="m 3725.68,6401.82 h -235.33 c -8.41,0 -15.23,6.82 -15.23,15.24 0,8.41 6.82,15.23 15.23,15.23 h 235.33 c 8.42,0 15.24,-6.82 15.24,-15.23 0,-8.42 -6.82,-15.24 -15.24,-15.24"
         style="fill:#ead9d5;fill-opacity:1;fill-rule:nonzero;stroke:none"
         id="path176" /><path
         d="m 1985.43,6486.12 h -456.19 c -8.42,0 -15.24,6.82 -15.24,15.23 0,8.42 6.82,15.23 15.24,15.23 h 456.19 c 8.42,0 15.23,-6.81 15.23,-15.23 0,-8.41 -6.81,-15.23 -15.23,-15.23"
         style="fill:#ead9d5;fill-opacity:1;fill-rule:nonzero;stroke:none"
         id="path178" /><path
         d="m 1985.43,6571.42 h -456.19 c -8.42,0 -15.24,6.82 -15.24,15.23 0,8.41 6.82,15.23 15.24,15.23 h 456.19 c 8.42,0 15.23,-6.82 15.23,-15.23 0,-8.41 -6.81,-15.23 -15.23,-15.23"
         style="fill:#ead9d5;fill-opacity:1;fill-rule:nonzero;stroke:none"
         id="path180" /><path
         d="m 5727,2076.28 v 0 c -54.06,0 -97.89,43.83 -97.89,97.9 v 97.9 h 195.79 v -97.9 c 0,-54.07 -43.83,-97.9 -97.9,-97.9"
         style="fill:#5f111c;fill-opacity:1;fill-rule:nonzero;stroke:none"
         id="path182" /><path
         d="m 6189.3,2076.28 v 0 c -54.07,0 -97.89,43.83 -97.89,97.9 v 97.9 h 195.79 v -97.9 c 0,-54.07 -43.83,-97.9 -97.9,-97.9"
         style="fill:#5f111c;fill-opacity:1;fill-rule:nonzero;stroke:none"
         id="path184" /><path
         d="m 6656.36,2076.28 h -0.01 c -54.06,0 -97.89,43.83 -97.89,97.9 v 97.9 h 195.79 v -97.9 c 0,-54.07 -43.83,-97.9 -97.89,-97.9"
         style="fill:#5f111c;fill-opacity:1;fill-rule:nonzero;stroke:none"
         id="path186" /><path
         d="m 6320.17,2808.83 h -261.74 v 301.85 h 261.74 v -301.85"
         style="fill:#cfe5de;fill-opacity:1;fill-rule:nonzero;stroke:none"
         id="path188" /><path
         d="m 6320.17,2808.83 h -261.74 v 301.85 h 261.74 z"
         style="fill:none;stroke:#5f111c;stroke-width:17.9926;stroke-linecap:butt;stroke-linejoin:miter;stroke-miterlimit:10;stroke-dasharray:none;stroke-opacity:1"
         id="path190" /><path
         d="m 6245.05,2246.25 h -111.5 v 562.58 h 111.5 v -562.58"
         style="fill:#cfe5de;fill-opacity:1;fill-rule:nonzero;stroke:none"
         id="path192" /><path
         d="m 6245.05,2246.25 h -111.5 v 562.58 h 111.5 z"
         style="fill:none;stroke:#5f111c;stroke-width:17.9926;stroke-linecap:butt;stroke-linejoin:miter;stroke-miterlimit:10;stroke-dasharray:none;stroke-opacity:1"
         id="path194" /><path
         d="m 5977.85,2988.99 h 689.4 c 100.24,0 181.5,81.26 181.5,181.51 v 1246.95 c 0,74.66 -60.53,135.18 -135.19,135.18 h -782.03 c -74.65,0 -135.18,-60.52 -135.18,-135.18 V 3170.5 c 0,-100.25 81.26,-181.51 181.5,-181.51"
         style="fill:#efe7e5;fill-opacity:1;fill-rule:nonzero;stroke:none"
         id="path196" /><path
         d="m 5977.85,2988.99 h 689.4 c 100.24,0 181.5,81.26 181.5,181.51 v 1246.95 c 0,74.66 -60.53,135.18 -135.19,135.18 h -782.03 c -74.65,0 -135.18,-60.52 -135.18,-135.18 V 3170.5 c 0,-100.25 81.26,-181.51 181.5,-181.51 z"
         style="fill:none;stroke:#5f111c;stroke-width:17.9926;stroke-linecap:butt;stroke-linejoin:miter;stroke-miterlimit:10;stroke-dasharray:none;stroke-opacity:1"
         id="path198" /><path
         d="m 6058.43,2880.53 h 261.74 v 108.46 h -261.74 v -108.46"
         style="fill:#aaccc3;fill-opacity:1;fill-rule:nonzero;stroke:none"
         id="path200" /><path
         d="m 6133.55,2743.83 h 111.5 v 57.69 h -111.5 v -57.69"
         style="fill:#aaccc3;fill-opacity:1;fill-rule:nonzero;stroke:none"
         id="path202" /><path
         d="m 6245.05,2299.27 h -111.5 v 509.56 h 111.5 z"
         style="fill:none;stroke:#5f111c;stroke-width:17.9926;stroke-linecap:butt;stroke-linejoin:miter;stroke-miterlimit:10;stroke-dasharray:none;stroke-opacity:1"
         id="path204" /><path
         d="m 6320.17,2808.83 h -261.74 v 301.85 h 261.74 z"
         style="fill:none;stroke:#5f111c;stroke-width:17.9926;stroke-linecap:butt;stroke-linejoin:miter;stroke-miterlimit:10;stroke-dasharray:none;stroke-opacity:1"
         id="path206" /><path
         d="M 6793,2193.22 H 5585.6 c 0,58.57 47.49,106.05 106.05,106.05 h 995.29 c 58.58,0 106.06,-47.48 106.06,-106.05"
         style="fill:#aaccc3;fill-opacity:1;fill-rule:nonzero;stroke:none"
         id="path208" /><path
         d="M 6793,2193.22 H 5585.6 c 0,58.57 47.49,106.05 106.05,106.05 h 995.29 c 58.58,0 106.06,-47.48 106.06,-106.05 z"
         style="fill:none;stroke:#5f111c;stroke-width:17.9926;stroke-linecap:butt;stroke-linejoin:miter;stroke-miterlimit:10;stroke-dasharray:none;stroke-opacity:1"
         id="path210" /><path
         d="m 6287.88,2193.22 h -197.16 v 7.48 c 0,54.44 44.13,98.57 98.58,98.57 54.44,0 98.58,-44.13 98.58,-98.57 v -7.48"
         style="fill:#cfe5de;fill-opacity:1;fill-rule:nonzero;stroke:none"
         id="path212" /><path
         d="m 6287.88,2193.22 h -197.16 v 7.48 c 0,54.44 44.13,98.57 98.58,98.57 54.44,0 98.58,-44.13 98.58,-98.57 z"
         style="fill:none;stroke:#5f111c;stroke-width:17.9926;stroke-linecap:butt;stroke-linejoin:miter;stroke-miterlimit:10;stroke-dasharray:none;stroke-opacity:1"
         id="path214" /><path
         d="m 6527.16,2988.99 h -728.61 v 1428.46 c 0,74.66 60.53,135.18 135.19,135.18 h 622.62 c 74.66,0 135.17,-60.52 135.17,-135.18 V 3153.37 c 0,-90.78 -73.59,-164.38 -164.37,-164.38"
         style="fill:#fffbfa;fill-opacity:1;fill-rule:nonzero;stroke:none"
         id="path216" /><path
         d="m 6527.16,2988.99 h -728.61 v 1428.46 c 0,74.66 60.53,135.18 135.19,135.18 h 622.62 c 74.66,0 135.17,-60.52 135.17,-135.18 V 3153.37 c 0,-90.78 -73.59,-164.38 -164.37,-164.38 z"
         style="fill:none;stroke:#5f111c;stroke-width:17.9926;stroke-linecap:round;stroke-linejoin:miter;stroke-miterlimit:10;stroke-dasharray:none;stroke-opacity:1"
         id="path218" /><path
         d="m 6689.33,3232.38 h -892.98 v 132.07 h 892.98 v -132.07"
         style="fill:#efe7e5;fill-opacity:1;fill-rule:nonzero;stroke:none"
         id="path220" /><path
         d="m 6689.33,3232.38 h -892.98 v 132.07 h 892.98 z"
         style="fill:none;stroke:#5f111c;stroke-width:17.9926;stroke-linecap:butt;stroke-linejoin:miter;stroke-miterlimit:10;stroke-dasharray:none;stroke-opacity:1"
         id="path222" /><path
         d="m 6062.93,3232.38 h -192.35 v 512.17 h 631.01 v -73.51 c 0,-242.27 -196.39,-438.66 -438.66,-438.66"
         style="fill:#cfe5de;fill-opacity:1;fill-rule:nonzero;stroke:none"
         id="path224" /><path
         d="m 6062.93,3232.38 h -192.35 v 512.17 h 631.01 v -73.51 c 0,-242.27 -196.39,-438.66 -438.66,-438.66 z"
         style="fill:none;stroke:#5f111c;stroke-width:17.9926;stroke-linecap:butt;stroke-linejoin:miter;stroke-miterlimit:10;stroke-dasharray:none;stroke-opacity:1"
         id="path226" /><path
         d="m 6689.33,3656.34 h -892.98 v 132.07 h 892.98 v -132.07"
         style="fill:#efe7e5;fill-opacity:1;fill-rule:nonzero;stroke:none"
         id="path228" /><path
         d="m 6689.33,3656.34 h -892.98 v 132.07 h 892.98 z"
         style="fill:none;stroke:#5f111c;stroke-width:17.9926;stroke-linecap:butt;stroke-linejoin:miter;stroke-miterlimit:10;stroke-dasharray:none;stroke-opacity:1"
         id="path230" /><path
         d="m 6689.33,4070.73 h -892.98 v 132.07 h 892.98 v -132.07"
         style="fill:#efe7e5;fill-opacity:1;fill-rule:nonzero;stroke:none"
         id="path232" /><path
         d="m 6689.33,4070.73 h -892.98 v 132.07 h 892.98 z"
         style="fill:none;stroke:#5f111c;stroke-width:17.9926;stroke-linecap:butt;stroke-linejoin:miter;stroke-miterlimit:10;stroke-dasharray:none;stroke-opacity:1"
         id="path234" /><path
         d="m 5497.95,3232.38 h 946.55 c 62.83,0 113.77,-50.94 113.77,-113.78 0,-71.58 -58.03,-129.61 -129.61,-129.61 h -930.71 c -62.83,0 -113.77,50.94 -113.77,113.77 v 15.84 c 0,62.84 50.94,113.78 113.77,113.78"
         style="fill:#efe7e5;fill-opacity:1;fill-rule:nonzero;stroke:none"
         id="path236" /><path
         d="m 5497.95,3232.38 h 946.55 c 62.83,0 113.77,-50.94 113.77,-113.78 0,-71.58 -58.03,-129.61 -129.61,-129.61 h -930.71 c -62.83,0 -113.77,50.94 -113.77,113.77 v 15.84 c 0,62.84 50.94,113.78 113.77,113.78 z"
         style="fill:none;stroke:#5f111c;stroke-width:17.9926;stroke-linecap:butt;stroke-linejoin:miter;stroke-miterlimit:10;stroke-dasharray:none;stroke-opacity:1"
         id="path238" /><path
         d="m 5240.36,3799.9 c -45.82,0 -82.97,37.15 -82.97,82.97 0,45.82 37.15,82.96 82.97,82.96 639.98,0 659.29,564.26 659.81,588.28 0.96,45.71 39.01,82.32 84.43,81.34 45.71,-0.82 82.15,-38.33 81.47,-84.04 -0.1,-7.7 -3.96,-190.61 -107.16,-374.3 -96.68,-172.08 -299.83,-377.21 -718.55,-377.21"
         style="fill:#fbcdac;fill-opacity:1;fill-rule:nonzero;stroke:none"
         id="path240" /><path
         d="m 5240.36,3799.9 c -45.82,0 -82.97,37.15 -82.97,82.97 0,45.82 37.15,82.96 82.97,82.96 639.98,0 659.29,564.26 659.81,588.28 0.96,45.71 39.01,82.32 84.43,81.34 45.71,-0.82 82.15,-38.33 81.47,-84.04 -0.1,-7.7 -3.96,-190.61 -107.16,-374.3 -96.68,-172.08 -299.83,-377.21 -718.55,-377.21 z"
         style="fill:none;stroke:#5f111c;stroke-width:17.9926;stroke-linecap:round;stroke-linejoin:miter;stroke-miterlimit:10;stroke-dasharray:none;stroke-opacity:1"
         id="path242" /><path
         d="M 6548.72,4497.01 V 3684.24 H 5872.5 v 812.77 c 0,102.36 82.97,185.33 185.32,185.33 h 305.57 c 102.36,0 185.33,-82.97 185.33,-185.33 z"
         style="fill:none;stroke:#5f111c;stroke-width:17.9926;stroke-linecap:round;stroke-linejoin:miter;stroke-miterlimit:10;stroke-dasharray:none;stroke-opacity:1"
         id="path244" /><path
         d="M 6548.72,4497.01 V 3706.84 H 5872.5 v 790.17 c 0,102.36 82.97,185.33 185.32,185.33 h 305.57 c 102.36,0 185.33,-82.97 185.33,-185.33"
         style="fill:#e34051;fill-opacity:1;fill-rule:nonzero;stroke:none"
         id="path246" /><path
         d="M 6548.72,4497.01 V 3706.84 H 5872.5 v 790.17 c 0,102.36 82.97,185.33 185.32,185.33 h 305.57 c 102.36,0 185.33,-82.97 185.33,-185.33 z"
         style="fill:none;stroke:#5f111c;stroke-width:17.9926;stroke-linecap:round;stroke-linejoin:miter;stroke-miterlimit:10;stroke-dasharray:none;stroke-opacity:1"
         id="path248" /><path
         d="m 6548.72,4474.32 v -343.47 c 0,-182.49 -148.47,-330.95 -330.96,-330.95 h -368.95 c -45.82,0 -82.97,37.15 -82.97,82.97 0,45.82 71.65,80.53 82.97,82.96 h 368.95 c 91,0 165.02,74.03 165.02,165.02 v 316.35"
         style="fill:#feedd7;fill-opacity:1;fill-rule:nonzero;stroke:none"
         id="path250" /><path
         d="m 6548.72,4474.32 v -343.47 c 0,-182.49 -148.47,-330.95 -330.96,-330.95 h -368.95 c -45.82,0 -82.97,37.15 -82.97,82.97 0,45.82 71.65,80.53 82.97,82.96 h 368.95 c 91,0 165.02,74.03 165.02,165.02 v 316.35"
         style="fill:none;stroke:#5f111c;stroke-width:17.9926;stroke-linecap:round;stroke-linejoin:miter;stroke-miterlimit:10;stroke-dasharray:none;stroke-opacity:1"
         id="path252" /><path
         d="m 6545.13,4497.02 v -366.19 c 0,-91.56 -37.34,-174.53 -97.61,-234.5 -59.88,-59.58 -142.4,-96.47 -233.29,-96.47 h -97.68 c 182.53,0 330.97,148.52 330.97,330.97 v 366.19 c 0,69.99 28.75,108.92 -23.28,138.45 -26.29,14.91 -9.84,39.71 -9.84,39.71 102.36,0 130.73,-75.81 130.73,-178.16"
         style="fill:#fbcdac;fill-opacity:1;fill-rule:nonzero;stroke:none"
         id="path254" /><path
         d="m 6548.72,4474.32 v -343.47 c 0,-182.49 -148.47,-330.95 -330.96,-330.95 h -368.95 c -45.82,0 -82.97,37.15 -82.97,82.97 0,45.82 71.65,80.53 82.97,82.96 h 368.95 c 91,0 165.02,74.03 165.02,165.02 v 316.35"
         style="fill:none;stroke:#5f111c;stroke-width:17.9926;stroke-linecap:round;stroke-linejoin:miter;stroke-miterlimit:10;stroke-dasharray:none;stroke-opacity:1"
         id="path256" /><path
         d="m 5848.81,3965.83 -213.83,-45.93 c -56.56,-12.15 -96.95,-62.15 -96.95,-120 h 310.78"
         style="fill:#feedd7;fill-opacity:1;fill-rule:nonzero;stroke:none"
         id="path258" /><path
         d="m 5848.81,3965.83 -213.83,-45.93 c -56.56,-12.15 -96.95,-62.15 -96.95,-120 h 310.78"
         style="fill:none;stroke:#5f111c;stroke-width:17.9926;stroke-linecap:round;stroke-linejoin:miter;stroke-miterlimit:10;stroke-dasharray:none;stroke-opacity:1"
         id="path260" /><path
         d="m 5872.17,3975.88 v 220.18"
         style="fill:none;stroke:#5f111c;stroke-width:17.9926;stroke-linecap:round;stroke-linejoin:miter;stroke-miterlimit:10;stroke-dasharray:none;stroke-opacity:1"
         id="path262" /><path
         d="m 6033.38,3793.47 h -478.96 v 52.8 h 426.17 c 29.15,0 52.79,-23.64 52.79,-52.8"
         style="fill:#aaccc3;fill-opacity:1;fill-rule:nonzero;stroke:none"
         id="path264" /><path
         d="m 6033.38,3793.47 h -478.96 v 52.8 h 426.17 c 29.15,0 52.79,-23.64 52.79,-52.8 z"
         style="fill:none;stroke:#5f111c;stroke-width:17.9926;stroke-linecap:butt;stroke-linejoin:miter;stroke-miterlimit:10;stroke-dasharray:none;stroke-opacity:1"
         id="path266" /><path
         d="M 4733.15,2076.28 H 3699.09 V 3715.04 H 4733.15 V 2076.28"
         style="fill:#efe7e5;fill-opacity:1;fill-rule:nonzero;stroke:none"
         id="path268" /><path
         d="M 4733.15,2076.28 H 3699.09 v 1638.76 h 1034.06 z"
         style="fill:none;stroke:#5f111c;stroke-width:17.9926;stroke-linecap:butt;stroke-linejoin:miter;stroke-miterlimit:10;stroke-dasharray:none;stroke-opacity:1"
         id="path270" /><path
         d="M 4733.15,3197.61 H 3634.02 v 517.43 h 1099.13 v -517.43"
         style="fill:#e2d3d0;fill-opacity:1;fill-rule:nonzero;stroke:none"
         id="path272" /><path
         d="M 4733.15,2076.28 H 3699.09 v 1638.76 h 1034.06 z"
         style="fill:none;stroke:#5f111c;stroke-width:17.9926;stroke-linecap:round;stroke-linejoin:miter;stroke-miterlimit:10;stroke-dasharray:none;stroke-opacity:1"
         id="path274" /><path
         d="M 7406.65,2076.28 H 6305.3 v 1721.66 h 944.34 c 86.71,0 157.01,-70.3 157.01,-157.01 V 2076.28"
         style="fill:#efe7e5;fill-opacity:1;fill-rule:nonzero;stroke:none"
         id="path276" /><path
         d="M 7406.65,2076.28 H 6305.3 v 1721.66 h 944.34 c 86.71,0 157.01,-70.3 157.01,-157.01 z"
         style="fill:none;stroke:#5f111c;stroke-width:17.9926;stroke-linecap:butt;stroke-linejoin:miter;stroke-miterlimit:10;stroke-dasharray:none;stroke-opacity:1"
         id="path278" /><path
         d="m 6548.72,4453.38 v 43.63 c 0,102.36 -82.97,185.33 -185.33,185.33 h -30.04"
         style="fill:none;stroke:#5f111c;stroke-width:17.9926;stroke-linecap:round;stroke-linejoin:miter;stroke-miterlimit:10;stroke-dasharray:none;stroke-opacity:1"
         id="path280" /><path
         d="m 6333.35,3586.15 h -461.18 v 170.97 h 461.18 v -170.97"
         style="fill:#ce2f3b;fill-opacity:1;fill-rule:nonzero;stroke:none"
         id="path282" /><path
         d="m 6333.35,3586.15 h -461.18 v 170.97 h 461.18 z"
         style="fill:none;stroke:#5f111c;stroke-width:17.9926;stroke-linecap:round;stroke-linejoin:miter;stroke-miterlimit:10;stroke-dasharray:none;stroke-opacity:1"
         id="path284" /><path
         d="M 5141.1,3797.92 H 3688.79 c -67.15,0 -121.59,-54.43 -121.59,-121.58 V 2076.28 h 131.92 v 1550.18 c 0,27.59 22.36,49.95 49.95,49.95 H 5141.1"
         style="fill:#fffbfa;fill-opacity:1;fill-rule:nonzero;stroke:none"
         id="path286" /><path
         d="M 5141.1,3797.92 H 3688.79 c -67.15,0 -121.59,-54.43 -121.59,-121.58 V 2076.28 h 131.92 v 1550.18 c 0,27.59 22.36,49.95 49.95,49.95 H 5141.1"
         style="fill:none;stroke:#5f111c;stroke-width:17.9926;stroke-linecap:round;stroke-linejoin:miter;stroke-miterlimit:10;stroke-dasharray:none;stroke-opacity:1"
         id="path288" /><path
         d="m 4384.22,3676.41 h 1838.46 c 44.17,0 79.98,-35.8 79.98,-79.97 V 2077.32 h 121.58 v 1599.09 c 0,33.57 -13.58,63.96 -35.61,85.91 -22.02,22.03 -52.41,35.6 -85.97,35.6 H 4384.22"
         style="fill:#fffbfa;fill-opacity:1;fill-rule:nonzero;stroke:none"
         id="path290" /><path
         d="m 4384.22,3676.41 h 1838.46 c 44.17,0 79.98,-35.8 79.98,-79.97 V 2077.32 h 121.58 v 1599.09 c 0,33.57 -13.58,63.96 -35.61,85.91 -22.02,22.03 -52.41,35.6 -85.97,35.6 H 4384.22"
         style="fill:none;stroke:#5f111c;stroke-width:17.9926;stroke-linecap:round;stroke-linejoin:miter;stroke-miterlimit:10;stroke-dasharray:none;stroke-opacity:1"
         id="path292" /><path
         d="M 5599.93,3797.94 H 4560.5 l -116.08,600.28 c -9.91,51.27 29.37,98.87 81.6,98.87 h 870.14 c 39.82,0 74.04,-28.23 81.59,-67.32 l 122.18,-631.83"
         style="fill:#aaccc3;fill-opacity:1;fill-rule:nonzero;stroke:none"
         id="path294" /><path
         d="M 5599.93,3797.94 H 4560.5 l -116.08,600.28 c -9.91,51.27 29.37,98.87 81.6,98.87 h 870.14 c 39.82,0 74.04,-28.23 81.59,-67.32 z"
         style="fill:none;stroke:#5f111c;stroke-width:17.9926;stroke-linecap:butt;stroke-linejoin:miter;stroke-miterlimit:10;stroke-dasharray:none;stroke-opacity:1"
         id="path296" /><path
         d="M 5561.46,3797.94 H 4522.03 l -116.07,600.28 c -9.92,51.27 29.36,98.87 81.58,98.87 h 870.16 c 39.81,0 74.03,-28.23 81.59,-67.32 l 122.17,-631.83"
         style="fill:#cfe5de;fill-opacity:1;fill-rule:nonzero;stroke:none"
         id="path298" /><path
         d="M 5561.46,3797.94 H 4522.03 l -116.07,600.28 c -9.92,51.27 29.36,98.87 81.58,98.87 h 870.16 c 39.81,0 74.03,-28.23 81.59,-67.32 z"
         style="fill:none;stroke:#5f111c;stroke-width:17.9926;stroke-linecap:butt;stroke-linejoin:miter;stroke-miterlimit:10;stroke-dasharray:none;stroke-opacity:1"
         id="path300" /><path
         d="M 5561.46,3797.94 H 4522.03 l -27.8,143.61 h 1039.49 l 27.74,-143.61"
         style="fill:#aaccc3;fill-opacity:1;fill-rule:nonzero;stroke:none"
         id="path302" /><path
         d="m 5042.13,4127.36 c 0,-44.91 -36.4,-81.31 -81.3,-81.31 -44.9,0 -81.31,36.4 -81.31,81.31 0,44.9 36.41,81.3 81.31,81.3 44.9,0 81.3,-36.4 81.3,-81.3"
         style="fill:#ffffff;fill-opacity:1;fill-rule:nonzero;stroke:none"
         id="path304" /><path
         d="M 5561.46,3797.94 H 4522.03 l -116.07,600.28 c -9.92,51.27 29.36,98.87 81.58,98.87 h 870.16 c 39.81,0 74.03,-28.23 81.59,-67.32 z"
         style="fill:none;stroke:#5f111c;stroke-width:17.9926;stroke-linecap:butt;stroke-linejoin:miter;stroke-miterlimit:10;stroke-dasharray:none;stroke-opacity:1"
         id="path306" /><path
         d="m 5617.56,3825.97 c 0,-15.49 -12.56,-28.05 -28.05,-28.05 -15.5,0 -28.05,12.56 -28.05,28.05 0,15.49 12.55,28.05 28.05,28.05 15.49,0 28.05,-12.56 28.05,-28.05"
         style="fill:#cfe5de;fill-opacity:1;fill-rule:nonzero;stroke:none"
         id="path308" /><path
         d="m 5617.56,3825.97 c 0,-15.49 -12.56,-28.05 -28.05,-28.05 -15.5,0 -28.05,12.56 -28.05,28.05 0,15.49 12.55,28.05 28.05,28.05 15.49,0 28.05,-12.56 28.05,-28.05 z"
         style="fill:none;stroke:#5f111c;stroke-width:17.9926;stroke-linecap:butt;stroke-linejoin:miter;stroke-miterlimit:10;stroke-dasharray:none;stroke-opacity:1"
         id="path310" /><path
         d="m 5192.37,2144.46 c -12.95,0 -89.41,-32.28 -102.45,-28.37 -71.8,21.59 -75.51,21.77 -53.92,93.58 l 326.43,1085.68 c 37.53,124.79 150.29,208.64 280.61,208.64 h 250.79 c 74.98,0 135.76,-60.79 135.76,-135.77 0,-74.98 -60.78,-135.76 -135.76,-135.76 h -250.79 c -9.55,0 -17.83,-6.15 -20.57,-15.3 L 5296.04,2131.48 c -17.68,-58.77 -45.31,12.99 -103.67,12.98"
         style="fill:#aaccc3;fill-opacity:1;fill-rule:nonzero;stroke:none"
         id="path312" /><path
         d="m 5192.37,2144.46 c -12.95,0 -89.41,-32.28 -102.45,-28.37 -71.8,21.59 -75.51,21.77 -53.92,93.58 l 326.43,1085.68 c 37.53,124.79 150.29,208.64 280.61,208.64 h 250.79 c 74.98,0 135.76,-60.79 135.76,-135.77 0,-74.98 -60.78,-135.76 -135.76,-135.76 h -250.79 c -9.55,0 -17.83,-6.15 -20.57,-15.3 L 5296.04,2131.48 c -17.68,-58.77 -45.31,12.99 -103.67,12.98 z"
         style="fill:none;stroke:#5f111c;stroke-width:17.9926;stroke-linecap:butt;stroke-linejoin:miter;stroke-miterlimit:10;stroke-dasharray:none;stroke-opacity:1"
         id="path314" /><path
         d="m 5674.16,2166.8 52.84,0.16"
         style="fill:none;stroke:#5f111c;stroke-width:17.9926;stroke-linecap:round;stroke-linejoin:miter;stroke-miterlimit:10;stroke-dasharray:none;stroke-opacity:1"
         id="path316" /><path
         d="m 6141.16,3232.46 h -250.79 c -9.55,0 -17.82,-6.15 -20.57,-15.3 L 5543.37,2131.48 c -17.68,-58.77 -44.67,14.05 -103.04,14.05 -12.95,0 -49.18,-17.12 -62.22,-13.2 -71.8,21.59 -116.36,5.53 -94.78,77.34 l 326.44,1085.68 c 37.52,124.79 150.29,208.64 280.6,208.64 h 168.07"
         style="fill:#cfe5de;fill-opacity:1;fill-rule:nonzero;stroke:none"
         id="path318" /><path
         d="m 6141.16,3232.46 h -250.79 c -9.55,0 -17.82,-6.15 -20.57,-15.3 L 5543.37,2131.48 c -17.68,-58.77 -44.67,14.05 -103.04,14.05 -12.95,0 -49.18,-17.12 -62.22,-13.2 -71.8,21.59 -116.36,5.53 -94.78,77.34 l 326.44,1085.68 c 37.52,124.79 150.29,208.64 280.6,208.64 h 168.07"
         style="fill:none;stroke:#5f111c;stroke-width:17.9926;stroke-linecap:butt;stroke-linejoin:miter;stroke-miterlimit:10;stroke-dasharray:none;stroke-opacity:1"
         id="path320" /><path
         d="m 6280.37,4788.26 v -94.77 c 0,-2.9 -0.12,-5.74 -0.36,-8.57 -4.35,-54.27 -49.74,-96.95 -105.16,-96.95 l -50.15,0.07 c -28.42,0.04 -55.38,15.2 -68.07,40.64 -3.96,7.97 -6.61,16.73 -6.61,25.93 v 98.7 l 230.35,34.95"
         style="fill:#feedd7;fill-opacity:1;fill-rule:nonzero;stroke:none"
         id="path322" /><path
         d="m 6280.37,4788.26 v -94.77 c 0,-2.9 -0.12,-5.74 -0.36,-8.57 -4.35,-54.27 -49.74,-96.95 -105.16,-96.95 l -50.15,0.07 c -28.42,0.04 -55.38,15.2 -68.07,40.64 -3.96,7.97 -6.61,16.73 -6.61,25.93 v 98.7 z"
         style="fill:none;stroke:#5f111c;stroke-width:17.9926;stroke-linecap:round;stroke-linejoin:miter;stroke-miterlimit:10;stroke-dasharray:none;stroke-opacity:1"
         id="path324" /><path
         d="m 6280.37,4779.39 v -85.9 c 0,-2.9 -0.12,-5.74 -0.36,-8.57 -34.4,-18.59 -73.83,-29.1 -115.72,-29.1 h -39.78 c -26.32,0 -51.43,4.95 -74.49,14.01 l -0.85,0.3 v 73.76 l 0.85,0.13 230.35,35.37"
         style="fill:#fbcdac;fill-opacity:1;fill-rule:nonzero;stroke:none"
         id="path326" /><path
         d="m 6279.95,4788.26 v -94.77 c 0,-2.9 -0.12,-5.74 -0.36,-8.57 -4.35,-54.27 -49.75,-96.95 -105.16,-96.95 h -57.24 c -36.54,0 -67.18,29.01 -67.59,65.54 v 1.1 98.7 z"
         style="fill:none;stroke:#5f111c;stroke-width:17.9926;stroke-linecap:round;stroke-linejoin:miter;stroke-miterlimit:10;stroke-dasharray:none;stroke-opacity:1"
         id="path328" /><path
         d="m 6384.65,5130.77 -0.04,-170.46 c 0.02,-135.13 -109.51,-244.69 -244.65,-244.69 h -39.77 c -113.09,0 -204.76,91.68 -204.76,204.76 v 219.74 25.36 c 0,135.07 109.49,244.57 244.57,244.58 135.09,0.01 244.61,-109.49 244.61,-244.58 v -55.32"
         style="fill:#feedd7;fill-opacity:1;fill-rule:nonzero;stroke:none"
         id="path330" /><path
         d="m 6384.65,5130.77 -0.04,-170.46 c 0.02,-135.13 -109.51,-244.69 -244.65,-244.69 h -39.77 c -113.09,0 -204.76,91.68 -204.76,204.76 v 219.74 25.36 c 0,135.07 109.49,244.57 244.57,244.58 135.09,0.01 244.61,-109.49 244.61,-244.58 v -55.32"
         style="fill:none;stroke:#5f111c;stroke-width:17.9926;stroke-linecap:round;stroke-linejoin:miter;stroke-miterlimit:10;stroke-dasharray:none;stroke-opacity:1"
         id="path332" /><path
         d="m 5987.93,5029.62 h -92.5 v 72.94 h 92.5 v -72.94"
         style="fill:#fbcdac;fill-opacity:1;fill-rule:nonzero;stroke:none"
         id="path334" /><path
         d="m 6161.84,5029.62 h -63.18 c -18.5,0 -33.51,15 -33.51,33.51 v 39.43 h 128.04 v -41.58 c 0,-17.32 -14.04,-31.36 -31.35,-31.36"
         style="fill:#fbcdac;fill-opacity:1;fill-rule:nonzero;stroke:none"
         id="path336" /><path
         d="m 6146.48,5007.21 h -29.17 c -11.69,0 -21.18,9.49 -21.18,21.19 0,11.7 9.49,21.19 21.18,21.19 h 29.17 c 11.7,0 21.2,-9.49 21.2,-21.19 0,-11.7 -9.5,-21.19 -21.2,-21.19"
         style="fill:#ffffff;fill-opacity:1;fill-rule:nonzero;stroke:none"
         id="path338" /><path
         d="m 6146.48,5007.21 h -29.17 c -11.69,0 -21.18,9.49 -21.18,21.19 0,11.7 9.49,21.19 21.18,21.19 h 29.17 c 11.7,0 21.2,-9.49 21.2,-21.19 0,-11.7 -9.5,-21.19 -21.2,-21.19 z"
         style="fill:none;stroke:#5f111c;stroke-width:17.9926;stroke-linecap:round;stroke-linejoin:miter;stroke-miterlimit:10;stroke-dasharray:none;stroke-opacity:1"
         id="path340" /><path
         d="m 6384.65,5130.74 -0.06,-170.47 v -0.12 c 0,-135.04 -109.56,-244.54 -244.6,-244.54 h -39.78 c -2.6,0 -5.26,0.06 -7.85,0.12 131.06,4.59 235.97,112.28 235.97,244.42 v 0.06 l 0.06,170.53 -0.06,-20.58 v 60.42 c 0,69.12 -55.9,125.26 -125.02,125.5 h 55.78 c 69.3,0 125.5,-56.2 125.5,-125.5 v -60.42 l 0.06,20.58"
         style="fill:#fbcdac;fill-opacity:1;fill-rule:nonzero;stroke:none"
         id="path342" /><path
         d="m 6384.65,5132.14 -0.04,-170.47 c 0.02,-135.12 -109.51,-244.68 -244.65,-244.68 h -39.77 c -113.09,0 -204.76,91.67 -204.76,204.76 v 219.73 25.36 c 0,135.08 109.49,244.58 244.57,244.59 135.09,0.01 244.61,-109.5 244.61,-244.59 v -55.32"
         style="fill:none;stroke:#5f111c;stroke-width:17.9926;stroke-linecap:round;stroke-linejoin:miter;stroke-miterlimit:10;stroke-dasharray:none;stroke-opacity:1"
         id="path344" /><path
         d="m 6024.87,4925.27 c -20.4,0 -36.94,16.53 -36.94,36.93 v 82.95"
         style="fill:none;stroke:#5f111c;stroke-width:17.9926;stroke-linecap:round;stroke-linejoin:miter;stroke-miterlimit:10;stroke-dasharray:none;stroke-opacity:1"
         id="path346" /><path
         d="m 6177.34,5097.28 h -95.1 c -8.75,0 -15.85,7.09 -15.85,15.84 0,8.76 7.1,15.85 15.85,15.85 h 95.1 c 8.75,0 15.85,-7.09 15.85,-15.85 0,-8.75 -7.1,-15.84 -15.85,-15.84"
         style="fill:#5f111c;fill-opacity:1;fill-rule:nonzero;stroke:none"
         id="path348" /><path
         d="m 6177.34,5097.28 h -95.1 c -8.75,0 -15.85,7.09 -15.85,15.84 0,8.76 7.1,15.85 15.85,15.85 h 95.1 c 8.75,0 15.85,-7.09 15.85,-15.85 0,-8.75 -7.1,-15.84 -15.85,-15.84 z"
         style="fill:none;stroke:#5f111c;stroke-width:17.9926;stroke-linecap:round;stroke-linejoin:miter;stroke-miterlimit:10;stroke-dasharray:none;stroke-opacity:1"
         id="path350" /><path
         d="m 6112.43,5411.43 c -120.46,0 -218.11,-97.66 -218.11,-218.12 h 160.71 c 32.55,0 60.48,19.79 72.41,47.99 7.66,18.1 24.56,30.55 44.21,30.5 l 3.85,-0.01 c 48.93,-0.1 88.54,-39.81 88.54,-88.74 v -89.15 c 0,-54.74 44.39,-99.12 99.12,-99.12 h 77.88 v 203.87 c 0,117.51 -95.27,212.78 -212.79,212.78 h -115.82"
         style="fill:#5f111c;fill-opacity:1;fill-rule:nonzero;stroke:none"
         id="path352" /><path
         d="m 6112.43,5411.43 c -120.46,0 -218.11,-97.66 -218.11,-218.12 h 160.71 c 32.55,0 60.48,19.79 72.41,47.99 7.66,18.1 24.56,30.55 44.21,30.5 l 3.85,-0.01 c 48.93,-0.1 88.54,-39.81 88.54,-88.74 v -89.15 c 0,-54.74 44.39,-99.12 99.12,-99.12 h 77.88 v 203.87 c 0,117.51 -95.27,212.78 -212.79,212.78 z"
         style="fill:none;stroke:#5f111c;stroke-width:17.9926;stroke-linecap:round;stroke-linejoin:miter;stroke-miterlimit:10;stroke-dasharray:none;stroke-opacity:1"
         id="path354" /><path
         d="m 6112.43,5411.43 c -120.46,0 -218.11,-97.66 -218.11,-218.12 h 160.71 c 32.55,0 60.48,19.79 72.41,47.99 7.66,18.1 24.56,30.55 44.21,30.5 l 3.85,-0.01 c 48.93,-0.1 88.54,-39.81 88.54,-88.74 v -89.15 c 0,-54.74 44.39,-99.12 99.12,-99.12 h 77.88 v 203.87 c 0,117.51 -95.27,212.78 -212.79,212.78 z"
         style="fill:none;stroke:#5f111c;stroke-width:17.9926;stroke-linecap:round;stroke-linejoin:miter;stroke-miterlimit:10;stroke-dasharray:none;stroke-opacity:1"
         id="path356" /><path
         d="m 5972.09,5097.28 h -60.81 c -8.75,0 -15.85,7.09 -15.85,15.84 0,8.76 7.1,15.85 15.85,15.85 h 60.81 c 8.75,0 15.84,-7.09 15.84,-15.85 0,-8.75 -7.09,-15.84 -15.84,-15.84"
         style="fill:#5f111c;fill-opacity:1;fill-rule:nonzero;stroke:none"
         id="path358" /><path
         d="m 5972.09,5097.28 h -60.81 c -8.75,0 -15.85,7.09 -15.85,15.84 0,8.76 7.1,15.85 15.85,15.85 h 60.81 c 8.75,0 15.84,-7.09 15.84,-15.85 0,-8.75 -7.09,-15.84 -15.84,-15.84 z"
         style="fill:none;stroke:#5f111c;stroke-width:17.9926;stroke-linecap:round;stroke-linejoin:miter;stroke-miterlimit:10;stroke-dasharray:none;stroke-opacity:1"
         id="path360" /><path
         d="M 6436.54,5198.67 V 4994.8 h -77.84 c -8.52,0 -16.74,1.05 -24.66,3.09 v 200.78 c 0,117.52 -95.26,212.78 -212.77,212.78 h 102.5 c 117.51,0 212.77,-95.26 212.77,-212.78"
         style="fill:#45141b;fill-opacity:1;fill-rule:nonzero;stroke:none"
         id="path362" /><path
         d="M 6436.54,5198.67 V 4994.8 h -77.84 c -8.52,0 -16.74,1.05 -24.66,3.09 v 200.78 c 0,117.52 -95.26,212.78 -212.77,212.78 h 102.5 c 117.51,0 212.77,-95.26 212.77,-212.78 z"
         style="fill:none;stroke:#45141b;stroke-width:17.9926;stroke-linecap:round;stroke-linejoin:miter;stroke-miterlimit:10;stroke-dasharray:none;stroke-opacity:1"
         id="path364" /><path
         d="m 6328.41,4994.78 c 0,33.76 27.36,61.12 61.12,61.12 33.76,0 61.13,-27.36 61.13,-61.12 0,-33.76 -27.37,-61.13 -61.13,-61.13 -11,0 -21.34,2.91 -30.26,8.01"
         style="fill:#fbcdac;fill-opacity:1;fill-rule:nonzero;stroke:none"
         id="path366" /><path
         d="m 6328.41,4994.78 c 0,33.76 27.36,61.12 61.12,61.12 33.76,0 61.13,-27.36 61.13,-61.12 0,-33.76 -27.37,-61.13 -61.13,-61.13 -11,0 -21.34,2.91 -30.26,8.01"
         style="fill:none;stroke:#5f111c;stroke-width:17.9926;stroke-linecap:round;stroke-linejoin:miter;stroke-miterlimit:10;stroke-dasharray:none;stroke-opacity:1"
         id="path368" /><path
         d="m 6389.53,5019.65 c 13.74,0 24.87,-11.14 24.87,-24.87"
         style="fill:#fef4e4;fill-opacity:1;fill-rule:nonzero;stroke:none"
         id="path370" /><path
         d="m 6389.53,5019.65 c 13.74,0 24.87,-11.14 24.87,-24.87"
         style="fill:none;stroke:#5f111c;stroke-width:17.9926;stroke-linecap:round;stroke-linejoin:miter;stroke-miterlimit:10;stroke-dasharray:none;stroke-opacity:1"
         id="path372" /><path
         d="m 6069.82,4864.93 c -10.42,-13.37 -26.67,-21.96 -44.93,-21.96 -18.27,0 -34.54,8.61 -44.96,21.99"
         style="fill:none;stroke:#5f111c;stroke-width:17.9926;stroke-linecap:round;stroke-linejoin:miter;stroke-miterlimit:10;stroke-dasharray:none;stroke-opacity:1"
         id="path374" /><path
         d="m 6131.9,5025.38 c 0,-8.63 -7,-15.63 -15.63,-15.63 -8.62,0 -15.63,7 -15.63,15.63 0,8.63 7.01,15.63 15.63,15.63 8.63,0 15.63,-7 15.63,-15.63"
         style="fill:#5f111c;fill-opacity:1;fill-rule:nonzero;stroke:none"
         id="path376" /><path
         d="m 5952.27,5007.21 h -29.17 c -11.7,0 -21.2,9.49 -21.2,21.19 0,11.7 9.5,21.19 21.2,21.19 h 29.17 c 11.69,0 21.19,-9.49 21.19,-21.19 0,-11.7 -9.5,-21.19 -21.19,-21.19"
         style="fill:#ffffff;fill-opacity:1;fill-rule:nonzero;stroke:none"
         id="path378" /><path
         d="m 5952.27,5007.21 h -29.17 c -11.7,0 -21.2,9.49 -21.2,21.19 0,11.7 9.5,21.19 21.2,21.19 h 29.17 c 11.69,0 21.19,-9.49 21.19,-21.19 0,-11.7 -9.5,-21.19 -21.19,-21.19 z"
         style="fill:none;stroke:#5f111c;stroke-width:17.9926;stroke-linecap:round;stroke-linejoin:miter;stroke-miterlimit:10;stroke-dasharray:none;stroke-opacity:1"
         id="path380" /><path
         d="m 5938.72,5025.38 c 0,-8.63 -7,-15.63 -15.62,-15.63 -8.64,0 -15.64,7 -15.64,15.63 0,8.63 7,15.63 15.64,15.63 8.62,0 15.62,-7 15.62,-15.63"
         style="fill:#5f111c;fill-opacity:1;fill-rule:nonzero;stroke:none"
         id="path382" /><path
         d="m 6381.89,4474.32 v -192.33 h 166.83 v 245.3 c 0,85.63 -69.41,155.05 -155.05,155.05 h -11.78"
         style="fill:#e34051;fill-opacity:1;fill-rule:nonzero;stroke:none"
         id="path384" /><path
         d="m 6381.89,4474.32 v -192.33 h 166.83 v 245.3 c 0,85.63 -69.41,155.05 -155.05,155.05 h -11.78"
         style="fill:none;stroke:#5f111c;stroke-width:17.9926;stroke-linecap:round;stroke-linejoin:miter;stroke-miterlimit:10;stroke-dasharray:none;stroke-opacity:1"
         id="path386" /><path
         d="m 6374.36,4910.79 v 0 c 0,-152.06 -123.28,-275.32 -275.34,-275.32 h -23.68 c -99.36,0 -179.91,80.55 -179.91,179.91 v 95.41"
         style="fill:#5f111c;fill-opacity:1;fill-rule:nonzero;stroke:none"
         id="path388" /><path
         d="m 6374.36,4910.79 v 0 c 0,-152.06 -123.28,-275.32 -275.34,-275.32 h -23.68 c -99.36,0 -179.91,80.55 -179.91,179.91 v 95.41"
         style="fill:none;stroke:#5f111c;stroke-width:17.9926;stroke-linecap:round;stroke-linejoin:miter;stroke-miterlimit:10;stroke-dasharray:none;stroke-opacity:1"
         id="path390" /><path
         d="m 6032.79,4789.23 v 0 c -37.48,0 -67.86,30.38 -67.86,67.85 v 7.88 h 135.71 v -7.88 c 0,-37.47 -30.38,-67.85 -67.85,-67.85"
         style="fill:#ffffff;fill-opacity:1;fill-rule:nonzero;stroke:none"
         id="path392" /><path
         d="M 2738.78,2076.28 H 8366.21"
         style="fill:#ce2f3b;fill-opacity:1;fill-rule:nonzero;stroke:none"
         id="path394" /><path
         d="M 2738.78,2076.28 H 8366.21"
         style="fill:none;stroke:#5f111c;stroke-width:17.9926;stroke-linecap:round;stroke-linejoin:miter;stroke-miterlimit:10;stroke-dasharray:none;stroke-opacity:1"
         id="path396" /><path
         d="m 5313.83,2075.2 h -506.95 c -31.57,0 -57.15,25.59 -57.15,57.17 0,25.74 17.2,48.32 42.04,55.13 l 258.56,70.9 h 300.61 v -146.09 c 0,-20.5 -16.61,-37.11 -37.11,-37.11"
         style="fill:#efe7e5;fill-opacity:1;fill-rule:nonzero;stroke:none"
         id="path398" /><path
         d="m 5313.83,2075.2 h -506.95 c -31.57,0 -57.15,25.59 -57.15,57.17 0,25.74 17.2,48.32 42.04,55.13 l 258.56,70.9 h 300.61 v -146.09 c 0,-20.5 -16.61,-37.11 -37.11,-37.11 z"
         style="fill:none;stroke:#5f111c;stroke-width:17.9926;stroke-linecap:butt;stroke-linejoin:miter;stroke-miterlimit:10;stroke-dasharray:none;stroke-opacity:1"
         id="path400" /><path
         d="m 5330.71,2075.2 h -547.57 c -14.81,0 -26.82,12.01 -26.82,26.82 v 13.49 h 601.22 v -13.49 c 0,-14.81 -12.01,-26.82 -26.83,-26.82"
         style="fill:#ffffff;fill-opacity:1;fill-rule:nonzero;stroke:none"
         id="path402" /><path
         d="m 5330.71,2075.2 h -547.57 c -14.81,0 -26.82,12.01 -26.82,26.82 v 13.49 h 601.22 v -13.49 c 0,-14.81 -12.01,-26.82 -26.83,-26.82 z"
         style="fill:none;stroke:#5f111c;stroke-width:17.9926;stroke-linecap:round;stroke-linejoin:miter;stroke-miterlimit:10;stroke-dasharray:none;stroke-opacity:1"
         id="path404" /><path
         d="m 5042.03,2253.67 55.93,-138.16 h 54.69 l -63.18,142.89 -47.44,-4.73"
         style="fill:#e34051;fill-opacity:1;fill-rule:nonzero;stroke:none"
         id="path406" /><path
         d="m 5042.03,2253.67 55.93,-138.16 h 54.69 l -63.18,142.89 z"
         style="fill:none;stroke:#5f111c;stroke-width:17.9926;stroke-linecap:round;stroke-linejoin:miter;stroke-miterlimit:10;stroke-dasharray:none;stroke-opacity:1"
         id="path408" /><path
         d="m 5142.59,2258.4 56.57,-142.89 h 54.68 l -63.17,142.89 h -48.08"
         style="fill:#e34051;fill-opacity:1;fill-rule:nonzero;stroke:none"
         id="path410" /><path
         d="m 5142.59,2258.4 56.57,-142.89 h 54.68 l -63.17,142.89 z"
         style="fill:none;stroke:#5f111c;stroke-width:17.9926;stroke-linecap:round;stroke-linejoin:miter;stroke-miterlimit:10;stroke-dasharray:none;stroke-opacity:1"
         id="path412" /><path
         d="m 5541.04,2075.2 h -506.93 c -31.57,0 -57.17,25.59 -57.17,57.17 0,25.74 17.22,48.32 42.05,55.13 l 258.56,70.9 h 300.6 v -146.09 c 0,-20.5 -16.61,-37.11 -37.11,-37.11"
         style="fill:#ffffff;fill-opacity:1;fill-rule:nonzero;stroke:none"
         id="path414" /><path
         d="m 5541.04,2075.2 h -506.93 c -31.57,0 -57.17,25.59 -57.17,57.17 0,25.74 17.22,48.32 42.05,55.13 l 258.56,70.9 h 300.6 v -146.09 c 0,-20.5 -16.61,-37.11 -37.11,-37.11 z"
         style="fill:none;stroke:#5f111c;stroke-width:17.9926;stroke-linecap:butt;stroke-linejoin:miter;stroke-miterlimit:10;stroke-dasharray:none;stroke-opacity:1"
         id="path416" /><path
         d="m 5541.04,2075.2 h -506.93 c -31.57,0 -57.17,25.59 -57.17,57.17 0,25.74 17.22,48.32 42.05,55.13 l 280.53,75.98 278.63,-5.08 v -146.09 c 0,-20.5 -16.61,-37.11 -37.11,-37.11 z"
         style="fill:none;stroke:#5f111c;stroke-width:17.9926;stroke-linecap:round;stroke-linejoin:miter;stroke-miterlimit:10;stroke-dasharray:none;stroke-opacity:1"
         id="path418" /><path
         d="m 5551.34,2075.2 h -547.58 c -14.81,0 -26.82,12.01 -26.82,26.82 v 13.49 h 601.21 v -13.49 c 0,-14.81 -12,-26.82 -26.81,-26.82"
         style="fill:#ffffff;fill-opacity:1;fill-rule:nonzero;stroke:none"
         id="path420" /><path
         d="m 5551.34,2075.2 h -547.58 c -14.81,0 -26.82,12.01 -26.82,26.82 v 13.49 h 601.21 v -13.49 c 0,-14.81 -12,-26.82 -26.81,-26.82 z"
         style="fill:none;stroke:#5f111c;stroke-width:17.9926;stroke-linecap:round;stroke-linejoin:miter;stroke-miterlimit:10;stroke-dasharray:none;stroke-opacity:1"
         id="path422" /><path
         d="m 5769.35,4067.92 h 206.29 c 7.52,0 13.62,6.1 13.62,13.62 v 21.39 c 0,7.52 -6.1,13.62 -13.62,13.62 h -206.29 c -7.52,0 -13.62,-6.1 -13.62,-13.62 v -21.39 c 0,-7.52 6.1,-13.62 13.62,-13.62"
         style="fill:#ce2f3b;fill-opacity:1;fill-rule:nonzero;stroke:none"
         id="path424" /><path
         d="m 5769.35,4067.92 h 206.29 c 7.52,0 13.62,6.1 13.62,13.62 v 21.39 c 0,7.52 -6.1,13.62 -13.62,13.62 h -206.29 c -7.52,0 -13.62,-6.1 -13.62,-13.62 v -21.39 c 0,-7.52 6.1,-13.62 13.62,-13.62 z"
         style="fill:none;stroke:#5f111c;stroke-width:17.9926;stroke-linecap:round;stroke-linejoin:miter;stroke-miterlimit:10;stroke-dasharray:none;stroke-opacity:1"
         id="path426" /><path
         d="m 5772.74,4067.92 18.85,-246.24 c 0.6,-7.78 7.09,-13.78 14.87,-13.78 h 131.41 c 7.78,0 14.25,6 14.87,13.72 l 19.51,246.3 h -199.51"
         style="fill:#ffffff;fill-opacity:1;fill-rule:nonzero;stroke:none"
         id="path428" /><path
         d="m 5772.74,4067.92 18.85,-246.24 c 0.6,-7.78 7.09,-13.78 14.87,-13.78 h 131.41 c 7.78,0 14.25,6 14.87,13.72 l 19.51,246.3 z"
         style="fill:none;stroke:#5f111c;stroke-width:17.9926;stroke-linecap:round;stroke-linejoin:miter;stroke-miterlimit:10;stroke-dasharray:none;stroke-opacity:1"
         id="path430" /><path
         d="m 5787.24,4116.55 h 170.52 v 10.76 c 0,11.05 -8.26,20.37 -19.23,21.69 l -126.84,15.28 c -13.01,1.56 -24.45,-8.59 -24.45,-21.69 v -26.04"
         style="fill:#e34051;fill-opacity:1;fill-rule:nonzero;stroke:none"
         id="path432" /><path
         d="m 5787.24,4116.55 h 170.52 v 10.76 c 0,11.05 -8.26,20.37 -19.23,21.69 l -126.84,15.28 c -13.01,1.56 -24.45,-8.59 -24.45,-21.69 z"
         style="fill:none;stroke:#5f111c;stroke-width:17.9926;stroke-linecap:round;stroke-linejoin:miter;stroke-miterlimit:10;stroke-dasharray:none;stroke-opacity:1"
         id="path434" /><path
         d="m 5772.74,4067.92 18.85,-246.24 c 0.6,-7.78 7.09,-13.78 14.87,-13.78 h 23.92 l -18.5,260.02 h -39.14"
         style="fill:#f9f2f0;fill-opacity:1;fill-rule:nonzero;stroke:none"
         id="path436" /><path
         d="m 5772.74,4067.92 18.85,-246.24 c 0.6,-7.78 7.09,-13.78 14.87,-13.78 h 131.41 c 7.78,0 14.25,6 14.87,13.72 l 19.51,246.3 z"
         style="fill:none;stroke:#5f111c;stroke-width:17.9926;stroke-linecap:round;stroke-linejoin:miter;stroke-miterlimit:10;stroke-dasharray:none;stroke-opacity:1"
         id="path438" /><path
         d="m 5767.98,4026.72 12.57,-173.48 c 0.3,-4.06 3.67,-7.21 7.75,-7.21 h 38.65 l -13.7,189.02 h -37.53 c -4.51,0 -8.07,-3.83 -7.74,-8.33"
         style="fill:#a0d2c5;fill-opacity:1;fill-rule:nonzero;stroke:none"
         id="path440" /><path
         d="m 5813.25,4035.05 13.7,-189.02 h 129.09 c 4.05,0 7.45,3.13 7.75,7.18 l 13.2,173.48 c 0.32,4.5 -3.23,8.36 -7.75,8.36 h -155.99"
         style="fill:#cfe5de;fill-opacity:1;fill-rule:nonzero;stroke:none"
         id="path442" /><path
         d="m 5969.25,4035.05 h -193.51 c -4.52,0 -8.08,-3.83 -7.75,-8.33 l 12.57,-173.48 c 0.3,-4.06 3.67,-7.21 7.75,-7.21 h 38.65 129.08 c 4.06,0 7.46,3.13 7.76,7.18 l 13.2,173.48 c 0.33,4.5 -3.23,8.36 -7.75,8.36 z"
         style="fill:none;stroke:#5f111c;stroke-width:17.9926;stroke-linecap:butt;stroke-linejoin:miter;stroke-miterlimit:10;stroke-dasharray:none;stroke-opacity:1"
         id="path444" /><path
         d="m 5277.55,2253.67 55.94,-138.16 h 54.67 l -63.16,142.89 -47.45,-4.73"
         style="fill:#e34051;fill-opacity:1;fill-rule:nonzero;stroke:none"
         id="path446" /><path
         d="m 5277.55,2253.67 55.94,-138.16 h 54.67 L 5325,2258.4 Z"
         style="fill:none;stroke:#5f111c;stroke-width:17.9926;stroke-linecap:round;stroke-linejoin:miter;stroke-miterlimit:10;stroke-dasharray:none;stroke-opacity:1"
         id="path448" /><path
         d="m 5378.12,2258.4 56.56,-142.89 h 54.69 l -63.18,142.89 h -48.07"
         style="fill:#e34051;fill-opacity:1;fill-rule:nonzero;stroke:none"
         id="path450" /><path
         d="m 5378.12,2258.4 56.56,-142.89 h 54.69 l -63.18,142.89 z"
         style="fill:none;stroke:#5f111c;stroke-width:17.9926;stroke-linecap:round;stroke-linejoin:miter;stroke-miterlimit:10;stroke-dasharray:none;stroke-opacity:1"
         id="path452" /><path
         d="m 2709.78,4540.78 -436.76,156.46 c -173.55,62.16 -315.33,194.79 -388.99,363.84 l -32.2,73.99 168.13,81.78 35.35,-81.22 c 53.07,-122 155.4,-217.72 280.71,-262.58 l 382.63,-137.01 c 48.6,-17.35 73.8,-70.84 56.45,-119.36 -17.37,-48.59 -16.8,-93.33 -65.32,-75.9"
         style="fill:#fbcdac;fill-opacity:1;fill-rule:nonzero;stroke:none"
         id="path454" /><path
         d="m 2709.78,4540.78 -436.76,156.46 c -173.55,62.16 -315.33,194.79 -388.99,363.84 l -32.2,73.99 168.13,81.78 35.35,-81.22 c 53.07,-122 155.4,-217.72 280.71,-262.58 l 382.63,-137.01 c 48.6,-17.35 73.8,-70.84 56.45,-119.36 -17.37,-48.59 -16.8,-93.33 -65.32,-75.9 z"
         style="fill:none;stroke:#5f111c;stroke-width:17.9926;stroke-linecap:round;stroke-linejoin:miter;stroke-miterlimit:10;stroke-dasharray:none;stroke-opacity:1"
         id="path456" /><path
         d="m 1900.5,5491.15 119.46,-274.3 -168.13,-81.78 -113.92,261.54"
         style="fill:#e34051;fill-opacity:1;fill-rule:nonzero;stroke:none"
         id="path458" /><path
         d="m 1900.5,5491.15 119.46,-274.3 -168.13,-81.78 -113.92,261.54"
         style="fill:none;stroke:#5f111c;stroke-width:17.9926;stroke-linecap:round;stroke-linejoin:miter;stroke-miterlimit:10;stroke-dasharray:none;stroke-opacity:1"
         id="path460" /><path
         d="M 2010.72,4109.65 1828.21,2192.98 c -100.08,19.1 -203.5,-27.1 -289.2,27.54 l 199.53,2088.82 c 7.62,79.82 61.5,-33.76 141.32,-41.37 79.89,-7.54 138.47,-78.5 130.86,-158.32"
         style="fill:#c47967;fill-opacity:1;fill-rule:nonzero;stroke:none"
         id="path462" /><path
         d="M 2010.72,4109.65 1828.21,2192.98 c -100.08,19.1 -203.5,-27.1 -289.2,27.54 l 199.53,2088.82 c 7.62,79.82 61.5,-33.76 141.32,-41.37 79.89,-7.54 138.47,-78.5 130.86,-158.32 z"
         style="fill:none;stroke:#5f111c;stroke-width:17.9926;stroke-linecap:butt;stroke-linejoin:miter;stroke-miterlimit:10;stroke-dasharray:none;stroke-opacity:1"
         id="path464" /><path
         d="m 2639.64,2247.47 c -88.05,-47.03 -185.98,11.83 -286.48,0 l -182.65,1862.18 c -7.61,79.82 50.97,150.78 130.79,158.32 79.82,7.68 136.54,121.19 144.15,41.37 l 194.19,-2061.87"
         style="fill:#c47967;fill-opacity:1;fill-rule:nonzero;stroke:none"
         id="path466" /><path
         d="m 2639.64,2247.47 c -88.05,-47.03 -185.98,11.83 -286.48,0 l -182.65,1862.18 c -7.61,79.82 50.97,150.78 130.79,158.32 79.82,7.68 136.54,121.19 144.15,41.37 z"
         style="fill:none;stroke:#5f111c;stroke-width:17.9926;stroke-linecap:butt;stroke-linejoin:miter;stroke-miterlimit:10;stroke-dasharray:none;stroke-opacity:1"
         id="path468" /><path
         d="m 2404.74,4123.41 h -629.61 v 203.44 h 629.61 v -203.44"
         style="fill:#c47967;fill-opacity:1;fill-rule:nonzero;stroke:none"
         id="path470" /><path
         d="m 1738.56,4309.31 h 706.883 v 91.7813 H 1738.56 Z"
         style="fill:#c47967;fill-opacity:1;fill-rule:nonzero;stroke:none"
         id="path472" /><path
         d="m 2110.86,5576.33 v 0 c -137.01,0 -248.09,111.07 -248.09,248.09 v 395.52 h 408.62 c 48.36,0 87.57,-39.21 87.57,-87.57 v -307.95 c 0,-137.02 -111.08,-248.09 -248.1,-248.09"
         style="fill:#feedd7;fill-opacity:1;fill-rule:nonzero;stroke:none"
         id="path474" /><path
         d="m 2110.86,5576.33 v 0 c -137.01,0 -248.09,111.07 -248.09,248.09 v 395.52 h 408.62 c 48.36,0 87.57,-39.21 87.57,-87.57 v -307.95 c 0,-137.02 -111.08,-248.09 -248.1,-248.09 z"
         style="fill:none;stroke:#5f111c;stroke-width:17.9926;stroke-linecap:round;stroke-linejoin:miter;stroke-miterlimit:10;stroke-dasharray:none;stroke-opacity:1"
         id="path476" /><path
         d="m 2158.74,5580.96 c -15.49,-3.04 -31.47,-4.63 -47.86,-4.63 -137.02,0 -248.11,111.08 -248.11,248.11 v 395.5 h 95.73 v -395.5 c 0,-120.63 86.11,-221.2 200.24,-243.48"
         style="fill:#fbcdac;fill-opacity:1;fill-rule:nonzero;stroke:none"
         id="path478" /><path
         d="m 2110.86,5576.33 v 0 c -137.01,0 -248.09,111.07 -248.09,248.09 v 395.52 h 408.62 c 48.36,0 87.57,-39.21 87.57,-87.57 v -307.95 c 0,-137.02 -111.08,-248.09 -248.1,-248.09 z"
         style="fill:none;stroke:#5f111c;stroke-width:17.9926;stroke-linecap:round;stroke-linejoin:miter;stroke-miterlimit:10;stroke-dasharray:none;stroke-opacity:1"
         id="path480" /><path
         d="m 1744.23,4360.33 h 93.63 L 1632.68,2247.47 h -102.47 l 214.02,2112.86"
         style="fill:#b66254;fill-opacity:1;fill-rule:nonzero;stroke:none"
         id="path482" /><path
         d="m 2011.39,4123.41 c 0,-4.56 -0.23,-9.15 -0.67,-13.77 L 1828.21,2192.98 c -7.16,-75.17 -296.8,-52.32 -289.2,27.54 l 199.55,2088.79"
         style="fill:none;stroke:#5f111c;stroke-width:17.9926;stroke-linecap:butt;stroke-linejoin:miter;stroke-miterlimit:10;stroke-dasharray:none;stroke-opacity:1"
         id="path484" /><path
         d="m 2445.44,4375.37 v -66.06 l 194.2,-2061.84 H 2347.82 L 2170.5,4109.64 c -0.44,4.62 -0.67,9.21 -0.67,13.77"
         style="fill:none;stroke:#5f111c;stroke-width:17.9926;stroke-linecap:butt;stroke-linejoin:miter;stroke-miterlimit:10;stroke-dasharray:none;stroke-opacity:1"
         id="path486" /><path
         d="m 2445.84,4360.33 h -706.87 v 1014.3 c 0,88.93 72.1,161.03 161.04,161.03 h 384.81 c 88.94,0 161.04,-72.1 161.04,-161.03 l -0.02,-1014.3"
         style="fill:#f79229;fill-opacity:1;fill-rule:nonzero;stroke:none"
         id="path488" /><path
         d="m 2445.84,4360.33 h -706.87 v 1014.3 c 0,88.93 72.1,161.03 161.04,161.03 h 384.81 c 88.94,0 161.04,-72.1 161.04,-161.03 z"
         style="fill:none;stroke:#5f111c;stroke-width:17.9926;stroke-linecap:round;stroke-linejoin:miter;stroke-miterlimit:10;stroke-dasharray:none;stroke-opacity:1"
         id="path490" /><path
         d="m 1925.25,5861.69 c 0,34.51 -27.96,62.49 -62.48,62.49 -34.51,0 -62.49,-27.98 -62.49,-62.49 0,-34.51 27.98,-62.49 62.49,-62.49 11.25,0 21.82,2.98 30.94,8.19"
         style="fill:#fbcdac;fill-opacity:1;fill-rule:nonzero;stroke:none"
         id="path492" /><path
         d="m 1925.25,5861.69 c 0,34.51 -27.96,62.49 -62.48,62.49 -34.51,0 -62.49,-27.98 -62.49,-62.49 0,-34.51 27.98,-62.49 62.49,-62.49 11.25,0 21.82,2.98 30.94,8.19"
         style="fill:none;stroke:#5f111c;stroke-width:17.9926;stroke-linecap:round;stroke-linejoin:miter;stroke-miterlimit:10;stroke-dasharray:none;stroke-opacity:1"
         id="path494" /><path
         d="m 1862.77,5887.11 c -14.04,0 -25.43,-11.38 -25.43,-25.42"
         style="fill:#fef4e4;fill-opacity:1;fill-rule:nonzero;stroke:none"
         id="path496" /><path
         d="m 1862.77,5887.11 c -14.04,0 -25.43,-11.38 -25.43,-25.42"
         style="fill:none;stroke:#5f111c;stroke-width:17.9926;stroke-linecap:round;stroke-linejoin:miter;stroke-miterlimit:10;stroke-dasharray:none;stroke-opacity:1"
         id="path498" /><path
         d="m 2089.05,5421.94 v 0 c -64.91,0 -117.53,52.62 -117.53,117.53 v 65.92 h 235.06 v -65.92 c 0,-64.91 -52.62,-117.53 -117.53,-117.53"
         style="fill:#feedd7;fill-opacity:1;fill-rule:nonzero;stroke:none"
         id="path500" /><path
         d="m 2089.05,5421.94 v 0 c -64.91,0 -117.53,52.62 -117.53,117.53 v 65.92 h 235.06 v -65.92 c 0,-64.91 -52.62,-117.53 -117.53,-117.53 z"
         style="fill:none;stroke:#5f111c;stroke-width:17.9926;stroke-linecap:round;stroke-linejoin:miter;stroke-miterlimit:10;stroke-dasharray:none;stroke-opacity:1"
         id="path502" /><path
         d="m 2206.57,5623.26 v -73.78 c -29.4,-15.64 -62.19,-24.41 -96.83,-24.41 h -41.44 c -34.65,0 -67.44,8.77 -96.77,24.41 v 73.78"
         style="fill:#fbcdac;fill-opacity:1;fill-rule:nonzero;stroke:none"
         id="path504" /><path
         d="m 2206.57,5623.26 v -73.78 c -29.4,-15.64 -62.19,-24.41 -96.83,-24.41 h -41.44 c -34.65,0 -67.44,8.77 -96.77,24.41 v 73.78"
         style="fill:none;stroke:#5f111c;stroke-width:17.9926;stroke-linecap:round;stroke-linejoin:miter;stroke-miterlimit:10;stroke-dasharray:none;stroke-opacity:1"
         id="path506" /><path
         d="m 2206.58,5623.26 v -110.89 c 0,-49.95 -40.49,-90.43 -90.43,-90.43 h -54.2 c -49.94,0 -90.43,40.48 -90.43,90.43 v 110.89"
         style="fill:none;stroke:#5f111c;stroke-width:17.9926;stroke-linecap:round;stroke-linejoin:miter;stroke-miterlimit:10;stroke-dasharray:none;stroke-opacity:1"
         id="path508" /><path
         d="m 1924.55,5540.56 h 329 v 18.25 c 0,9.67 -7.84,17.52 -17.51,17.52 h -291.39 c -11.11,0 -20.1,-9 -20.1,-20.1 v -15.67"
         style="fill:#ffffff;fill-opacity:1;fill-rule:nonzero;stroke:none"
         id="path510" /><path
         d="m 1924.55,5540.56 h 329 v 18.25 c 0,9.67 -7.84,17.52 -17.51,17.52 h -291.39 c -11.11,0 -20.1,-9 -20.1,-20.1 z"
         style="fill:none;stroke:#5f111c;stroke-width:17.9926;stroke-linecap:round;stroke-linejoin:miter;stroke-miterlimit:10;stroke-dasharray:none;stroke-opacity:1"
         id="path512" /><path
         d="m 2445.44,5171.57 v -79.45"
         style="fill:#ffffff;fill-opacity:1;fill-rule:nonzero;stroke:none"
         id="path514" /><path
         d="m 2445.44,5171.57 v -79.45"
         style="fill:none;stroke:#5f111c;stroke-width:17.9926;stroke-linecap:round;stroke-linejoin:miter;stroke-miterlimit:10;stroke-dasharray:none;stroke-opacity:1"
         id="path516" /><path
         d="m 1572.88,2079.47 h 464.88 c 28.96,0 52.43,23.47 52.43,52.42 0,23.62 -15.79,44.32 -38.56,50.56 l -237.11,65.02 H 1538.85 V 2113.5 c 0,-18.79 15.24,-34.03 34.03,-34.03"
         style="fill:#f79229;fill-opacity:1;fill-rule:nonzero;stroke:none"
         id="path518" /><path
         d="m 1572.88,2079.47 h 464.88 c 28.96,0 52.43,23.47 52.43,52.42 0,23.62 -15.79,44.32 -38.56,50.56 l -237.11,65.02 H 1538.85 V 2113.5 c 0,-18.79 15.24,-34.03 34.03,-34.03 z"
         style="fill:none;stroke:#5f111c;stroke-width:17.9926;stroke-linecap:round;stroke-linejoin:miter;stroke-miterlimit:10;stroke-dasharray:none;stroke-opacity:1"
         id="path520" /><path
         d="m 1572.88,2079.47 h 464.88 c 28.96,0 52.43,23.47 52.43,52.42 0,23.62 -15.79,44.32 -38.56,50.56 l -237.11,65.02 H 1538.85 V 2113.5 c 0,-18.79 15.24,-34.03 34.03,-34.03"
         style="fill:#e34051;fill-opacity:1;fill-rule:nonzero;stroke:none"
         id="path522" /><path
         d="m 1572.88,2079.47 h 464.88 c 28.96,0 52.43,23.47 52.43,52.42 0,23.62 -15.79,44.32 -38.56,50.56 l -237.11,65.02 H 1538.85 V 2113.5 c 0,-18.79 15.24,-34.03 34.03,-34.03 z"
         style="fill:none;stroke:#5f111c;stroke-width:17.9926;stroke-linecap:round;stroke-linejoin:miter;stroke-miterlimit:10;stroke-dasharray:none;stroke-opacity:1"
         id="path524" /><path
         d="m 1565.67,2079.47 h 497.7 c 14.81,0 26.82,12.01 26.82,26.82 v 10.15 h -551.34 v -10.15 c 0,-14.81 12.01,-26.82 26.82,-26.82"
         style="fill:#ffffff;fill-opacity:1;fill-rule:nonzero;stroke:none"
         id="path526" /><path
         d="m 1565.67,2079.47 h 497.7 c 14.81,0 26.82,12.01 26.82,26.82 v 10.15 h -551.34 v -10.15 c 0,-14.81 12.01,-26.82 26.82,-26.82 z"
         style="fill:none;stroke:#5f111c;stroke-width:17.9926;stroke-linecap:round;stroke-linejoin:miter;stroke-miterlimit:10;stroke-dasharray:none;stroke-opacity:1"
         id="path528" /><path
         d="m 1896.88,2223.3 -8.5,-28.28"
         style="fill:#ffffff;fill-opacity:1;fill-rule:nonzero;stroke:none"
         id="path530" /><path
         d="m 1896.88,2223.3 -8.5,-28.28"
         style="fill:none;stroke:#5f111c;stroke-width:17.9926;stroke-linecap:round;stroke-linejoin:miter;stroke-miterlimit:10;stroke-dasharray:none;stroke-opacity:1"
         id="path532" /><path
         d="m 1873.55,2229.16 -8.49,-28.27"
         style="fill:#ffffff;fill-opacity:1;fill-rule:nonzero;stroke:none"
         id="path534" /><path
         d="m 1873.55,2229.16 -8.49,-28.27"
         style="fill:none;stroke:#5f111c;stroke-width:17.9926;stroke-linecap:round;stroke-linejoin:miter;stroke-miterlimit:10;stroke-dasharray:none;stroke-opacity:1"
         id="path536" /><path
         d="M 2169.83,4123.41 H 1899.11"
         style="fill:#daa08a;fill-opacity:1;fill-rule:nonzero;stroke:none"
         id="path538" /><path
         d="M 2169.83,4123.41 H 1899.11"
         style="fill:none;stroke:#5f111c;stroke-width:17.9926;stroke-linecap:round;stroke-linejoin:miter;stroke-miterlimit:10;stroke-dasharray:none;stroke-opacity:1"
         id="path540" /><path
         d="m 2380.58,2079.47 h 464.88 c 28.95,0 52.42,23.47 52.42,52.42 0,23.62 -15.78,44.32 -38.55,50.56 l -237.11,65.02 H 2346.54 V 2113.5 c 0,-18.79 15.24,-34.03 34.04,-34.03"
         style="fill:#e34051;fill-opacity:1;fill-rule:nonzero;stroke:none"
         id="path542" /><path
         d="m 2380.58,2079.47 h 464.88 c 28.95,0 52.42,23.47 52.42,52.42 0,23.62 -15.78,44.32 -38.55,50.56 l -237.11,65.02 H 2346.54 V 2113.5 c 0,-18.79 15.24,-34.03 34.04,-34.03 z"
         style="fill:none;stroke:#5f111c;stroke-width:17.9926;stroke-linecap:round;stroke-linejoin:miter;stroke-miterlimit:10;stroke-dasharray:none;stroke-opacity:1"
         id="path544" /><path
         d="m 2380.58,2079.47 h 464.88 c 28.95,0 52.42,23.47 52.42,52.42 0,23.62 -15.78,44.32 -38.55,50.56 l -237.11,65.02 H 2346.54 V 2113.5 c 0,-18.79 15.24,-34.03 34.04,-34.03 z"
         style="fill:none;stroke:#5f111c;stroke-width:17.9926;stroke-linecap:round;stroke-linejoin:miter;stroke-miterlimit:10;stroke-dasharray:none;stroke-opacity:1"
         id="path546" /><path
         d="m 2373.37,2079.47 h 497.69 c 14.82,0 26.82,12.01 26.82,26.82 v 10.15 h -551.34 v -10.15 c 0,-14.81 12.01,-26.82 26.83,-26.82"
         style="fill:#ffffff;fill-opacity:1;fill-rule:nonzero;stroke:none"
         id="path548" /><path
         d="m 2373.37,2079.47 h 497.69 c 14.82,0 26.82,12.01 26.82,26.82 v 10.15 h -551.34 v -10.15 c 0,-14.81 12.01,-26.82 26.83,-26.82 z"
         style="fill:none;stroke:#5f111c;stroke-width:17.9926;stroke-linecap:round;stroke-linejoin:miter;stroke-miterlimit:10;stroke-dasharray:none;stroke-opacity:1"
         id="path550" /><path
         d="m 2704.57,2223.3 -8.5,-28.28"
         style="fill:#ffffff;fill-opacity:1;fill-rule:nonzero;stroke:none"
         id="path552" /><path
         d="m 2704.57,2223.3 -8.5,-28.28"
         style="fill:none;stroke:#5f111c;stroke-width:17.9926;stroke-linecap:round;stroke-linejoin:miter;stroke-miterlimit:10;stroke-dasharray:none;stroke-opacity:1"
         id="path554" /><path
         d="m 2681.25,2229.16 -8.5,-28.27"
         style="fill:#ffffff;fill-opacity:1;fill-rule:nonzero;stroke:none"
         id="path556" /><path
         d="m 2681.25,2229.16 -8.5,-28.27"
         style="fill:none;stroke:#5f111c;stroke-width:17.9926;stroke-linecap:round;stroke-linejoin:miter;stroke-miterlimit:10;stroke-dasharray:none;stroke-opacity:1"
         id="path558" /><path
         d="m 1850.23,2235.03 -8.5,-28.28"
         style="fill:#ffffff;fill-opacity:1;fill-rule:nonzero;stroke:none"
         id="path560" /><path
         d="m 1850.23,2235.03 -8.5,-28.28"
         style="fill:none;stroke:#5f111c;stroke-width:17.9926;stroke-linecap:round;stroke-linejoin:miter;stroke-miterlimit:10;stroke-dasharray:none;stroke-opacity:1"
         id="path562" /><path
         d="M 633.801,2079.47 H 3657.21"
         style="fill:#5f111c;fill-opacity:1;fill-rule:nonzero;stroke:none"
         id="path564" /><path
         d="M 633.801,2079.47 H 3657.21"
         style="fill:none;stroke:#5f111c;stroke-width:17.9926;stroke-linecap:round;stroke-linejoin:miter;stroke-miterlimit:10;stroke-dasharray:none;stroke-opacity:1"
         id="path566" /><path
         d="m 1738.97,5081.75 v 81.84"
         style="fill:none;stroke:#5f111c;stroke-width:17.9926;stroke-linecap:round;stroke-linejoin:miter;stroke-miterlimit:10;stroke-dasharray:none;stroke-opacity:1"
         id="path568" /><path
         d="m 2821.86,4683.6 84.44,-160.89 c 7.09,-13.53 1.87,-30.25 -11.64,-37.36 -13.54,-7.1 -30.26,-1.88 -37.36,11.64 l -47.5,88.96"
         style="fill:#fbcdac;fill-opacity:1;fill-rule:nonzero;stroke:none"
         id="path570" /><path
         d="m 2821.86,4683.6 84.44,-160.89 c 7.09,-13.53 1.87,-30.25 -11.64,-37.36 -13.54,-7.1 -30.26,-1.88 -37.36,11.64 l -47.5,88.96"
         style="fill:none;stroke:#5f111c;stroke-width:17.9926;stroke-linecap:round;stroke-linejoin:miter;stroke-miterlimit:10;stroke-dasharray:none;stroke-opacity:1"
         id="path572" /><path
         d="m 2771.05,4658.6 84.45,-160.89 c 7.09,-13.53 1.87,-30.25 -11.64,-37.36 -13.54,-7.1 -30.27,-1.89 -37.37,11.64 l -47.49,88.96"
         style="fill:#fbcdac;fill-opacity:1;fill-rule:nonzero;stroke:none"
         id="path574" /><path
         d="m 2771.05,4658.6 84.45,-160.89 c 7.09,-13.53 1.87,-30.25 -11.64,-37.36 -13.54,-7.1 -30.27,-1.89 -37.37,11.64 l -47.49,88.96"
         style="fill:none;stroke:#5f111c;stroke-width:17.9926;stroke-linecap:round;stroke-linejoin:miter;stroke-miterlimit:10;stroke-dasharray:none;stroke-opacity:1"
         id="path576" /><path
         d="m 2741.27,4597.47 65,-123.85 c 7.1,-13.53 1.87,-30.25 -11.64,-37.36 -13.54,-7.1 -30.25,-1.89 -37.35,11.64 l -47.5,88.96"
         style="fill:#fbcdac;fill-opacity:1;fill-rule:nonzero;stroke:none"
         id="path578" /><path
         d="m 2741.27,4597.47 65,-123.85 c 7.1,-13.53 1.87,-30.25 -11.64,-37.36 -13.54,-7.1 -30.25,-1.89 -37.35,11.64 l -47.5,88.96"
         style="fill:none;stroke:#5f111c;stroke-width:17.9926;stroke-linecap:round;stroke-linejoin:miter;stroke-miterlimit:10;stroke-dasharray:none;stroke-opacity:1"
         id="path580" /><path
         d="m 2887.56,4471.04 -209.53,77.75 77.75,209.54 209.53,-77.76 -77.75,-209.53"
         style="fill:#e34051;fill-opacity:1;fill-rule:nonzero;stroke:none"
         id="path582" /><path
         d="m 1890.35,5392.41 h 385.57 v 143.25 h -385.57 z"
         style="fill:#f79229;fill-opacity:1;fill-rule:nonzero;stroke:none"
         id="path584" /><path
         d="m 1890.35,5535.66 h 385.57"
         style="fill:#f9f2f0;fill-opacity:1;fill-rule:nonzero;stroke:none"
         id="path586" /><path
         d="m 1890.35,5535.66 h 385.57"
         style="fill:none;stroke:#5f111c;stroke-width:17.9926;stroke-linecap:round;stroke-linejoin:miter;stroke-miterlimit:10;stroke-dasharray:none;stroke-opacity:1"
         id="path588" /><path
         d="m 2437.85,6322.72 h -398.79 c -134.98,0 -244.39,-109.41 -244.39,-244.39 v -209.52 c 0,-71.15 57.67,-128.83 128.82,-128.83 h 189.59 c 96.64,0 174.98,78.35 174.98,174.98 v 216.4 c 82.73,0 149.79,67.07 149.79,149.79 v 41.57"
         style="fill:#5f111c;fill-opacity:1;fill-rule:nonzero;stroke:none"
         id="path590" /><path
         d="m 2437.85,6322.72 h -398.79 c -134.98,0 -244.39,-109.41 -244.39,-244.39 v -209.52 c 0,-71.15 57.67,-128.83 128.82,-128.83 h 189.59 c 96.64,0 174.98,78.35 174.98,174.98 v 216.4 c 82.73,0 149.79,67.07 149.79,149.79 z"
         style="fill:none;stroke:#5f111c;stroke-width:17.9926;stroke-linecap:round;stroke-linejoin:miter;stroke-miterlimit:10;stroke-dasharray:none;stroke-opacity:1"
         id="path592" /><path
         d="m 2052.59,5739.98 h -127.4 c -71.11,0 -128.79,57.69 -128.79,128.86 v 209.51 c 0,134.95 109.42,244.37 244.36,244.37 h 127.41 c -135.02,0 -244.44,-109.42 -244.44,-244.37 v -209.51 c 0,-71.17 57.69,-128.86 128.86,-128.86"
         style="fill:#47141b;fill-opacity:1;fill-rule:nonzero;stroke:none"
         id="path594" /><path
         d="m 2052.59,5739.98 h -127.4 c -71.11,0 -128.79,57.69 -128.79,128.86 v 209.51 c 0,134.95 109.42,244.37 244.36,244.37 h 127.41 c -135.02,0 -244.44,-109.42 -244.44,-244.37 v -209.51 c 0,-71.17 57.69,-128.86 128.86,-128.86 z"
         style="fill:none;stroke:#46151c;stroke-width:17.9926;stroke-linecap:butt;stroke-linejoin:miter;stroke-miterlimit:10;stroke-dasharray:none;stroke-opacity:1"
         id="path596" /><path
         d="m 2331.54,5912.54 c 0,34.51 -27.98,62.48 -62.49,62.48 -34.51,0 -62.48,-27.97 -62.48,-62.48 0,-34.51 27.97,-62.49 62.48,-62.49 11.26,0 21.83,2.98 30.95,8.18"
         style="fill:#feedd7;fill-opacity:1;fill-rule:nonzero;stroke:none"
         id="path598" /><path
         d="m 2331.54,5912.54 c 0,34.51 -27.98,62.48 -62.49,62.48 -34.51,0 -62.48,-27.97 -62.48,-62.48 0,-34.51 27.97,-62.49 62.48,-62.49 11.26,0 21.83,2.98 30.95,8.18"
         style="fill:none;stroke:#5f111c;stroke-width:17.9926;stroke-linecap:round;stroke-linejoin:miter;stroke-miterlimit:10;stroke-dasharray:none;stroke-opacity:1"
         id="path600" /><path
         d="m 2269.05,5937.96 c -14.03,0 -25.42,-11.38 -25.42,-25.42"
         style="fill:#fef4e4;fill-opacity:1;fill-rule:nonzero;stroke:none"
         id="path602" /><path
         d="m 2269.05,5937.96 c -14.03,0 -25.42,-11.38 -25.42,-25.42"
         style="fill:none;stroke:#5f111c;stroke-width:17.9926;stroke-linecap:round;stroke-linejoin:miter;stroke-miterlimit:10;stroke-dasharray:none;stroke-opacity:1"
         id="path604" /><path
         d="m 2016.54,5535.66 c -88.94,0 -161.01,-72.07 -161.01,-161.02 V 4360.35 h -114.2 v 1014.29 c 0,88.95 72.14,161.02 161.02,161.02 h 114.19"
         style="fill:#ee7916;fill-opacity:1;fill-rule:nonzero;stroke:none"
         id="path606" /><path
         d="m 2621.66,4770.8 170.05,-64.04 c 14.3,-5.39 21.5,-21.34 16.14,-35.64 -5.39,-14.3 -21.35,-21.53 -35.64,-16.14 l -94.62,34.87"
         style="fill:#fbcdac;fill-opacity:1;fill-rule:nonzero;stroke:none"
         id="path608" /><path
         d="m 2621.66,4770.8 170.05,-64.04 c 14.3,-5.39 21.5,-21.34 16.14,-35.64 -5.39,-14.3 -21.35,-21.53 -35.64,-16.14 l -94.62,34.87"
         style="fill:none;stroke:#5f111c;stroke-width:17.9926;stroke-linecap:round;stroke-linejoin:miter;stroke-miterlimit:10;stroke-dasharray:none;stroke-opacity:1"
         id="path610" /><path
         d="M 2445.38,4360.31 H 1738.52 V 5374.6 c 0,88.94 72.1,161.04 161.03,161.04 h 384.82 c 88.93,0 161.03,-72.1 161.02,-161.04 z"
         style="fill:none;stroke:#5f111c;stroke-width:17.9926;stroke-linecap:round;stroke-linejoin:miter;stroke-miterlimit:10;stroke-dasharray:none;stroke-opacity:1"
         id="path612" /><path
         d="m 3042.45,6348.21 c 1.19,8.12 5.96,15.62 13.62,20.01 13.27,7.59 30.17,3 37.77,-10.27 l 61.18,-106.87 c 7.59,-13.27 2.99,-30.17 -10.26,-37.76 -13.27,-7.59 -30.17,-3 -37.77,10.27 l -61.18,106.87 c -3.2,5.59 -4.24,11.83 -3.36,17.75"
         style="fill:#feedd7;fill-opacity:1;fill-rule:nonzero;stroke:none"
         id="path614" /><path
         d="m 3042.45,6348.21 c 1.19,8.12 5.96,15.62 13.62,20.01 13.27,7.59 30.17,3 37.77,-10.27 l 61.18,-106.87 c 7.59,-13.27 2.99,-30.17 -10.26,-37.76 -13.27,-7.59 -30.17,-3 -37.77,10.27 l -61.18,106.87 c -3.2,5.59 -4.24,11.83 -3.36,17.75 z"
         style="fill:none;stroke:#5f111c;stroke-width:17.9926;stroke-linecap:round;stroke-linejoin:miter;stroke-miterlimit:10;stroke-dasharray:none;stroke-opacity:1"
         id="path616" /><path
         d="m 3117.39,6303.91 v 0 c 20.27,47.45 75.19,69.38 122.57,49.11 47.44,-20.27 62.08,-60.61 41.75,-107.99 l -63.8,-198.24 C 3131.7,5778.91 2929.1,5564.3 2666.62,5462.83 l -71.44,172.78 c 212.84,80.49 378.27,252.34 450.59,468.1 l 47.95,143.06"
         style="fill:#feedd7;fill-opacity:1;fill-rule:nonzero;stroke:none"
         id="path618" /><path
         d="m 3117.39,6303.91 v 0 c 20.27,47.45 75.19,69.38 122.57,49.11 47.44,-20.27 62.08,-60.61 41.75,-107.99 l -63.8,-198.24 C 3131.7,5778.91 2929.1,5564.3 2666.62,5462.83 l -71.44,172.78 c 212.84,80.49 378.27,252.34 450.59,468.1 l 47.95,143.06"
         style="fill:none;stroke:#5f111c;stroke-width:17.9926;stroke-linecap:round;stroke-linejoin:miter;stroke-miterlimit:10;stroke-dasharray:none;stroke-opacity:1"
         id="path620" /><path
         d="m 2314.14,5532.96 281.04,102.65 71.44,-172.78 -267.96,-97.88"
         style="fill:#f79229;fill-opacity:1;fill-rule:nonzero;stroke:none"
         id="path622" /><path
         d="m 2314.14,5532.96 281.04,102.65 71.44,-172.78 -267.96,-97.88"
         style="fill:none;stroke:#5f111c;stroke-width:17.9926;stroke-linecap:round;stroke-linejoin:miter;stroke-miterlimit:10;stroke-dasharray:none;stroke-opacity:1"
         id="path624" /><path
         d="m 3116.09,6300.93 71.95,166.86 c 6.05,14.03 22.32,20.48 36.35,14.45 14.04,-6.05 20.51,-22.33 14.46,-36.36 l -56.83,-134.42"
         style="fill:#feedd7;fill-opacity:1;fill-rule:nonzero;stroke:none"
         id="path626" /><path
         d="m 3116.09,6300.93 71.95,166.86 c 6.05,14.03 22.32,20.48 36.35,14.45 14.04,-6.05 20.51,-22.33 14.46,-36.36 l -56.83,-134.42"
         style="fill:none;stroke:#5f111c;stroke-width:17.9926;stroke-linecap:round;stroke-linejoin:miter;stroke-miterlimit:10;stroke-dasharray:none;stroke-opacity:1"
         id="path628" /><path
         d="m 3182.02,6311.46 57.38,133.08 c 6.05,14.03 22.33,20.49 36.36,14.46 14.03,-6.05 20.5,-22.33 14.45,-36.36 l -51.08,-126.5"
         style="fill:#feedd7;fill-opacity:1;fill-rule:nonzero;stroke:none"
         id="path630" /><path
         d="m 3182.02,6311.46 57.38,133.08 c 6.05,14.03 22.33,20.49 36.36,14.46 14.03,-6.05 20.5,-22.33 14.45,-36.36 l -51.08,-126.5"
         style="fill:none;stroke:#5f111c;stroke-width:17.9926;stroke-linecap:round;stroke-linejoin:miter;stroke-miterlimit:10;stroke-dasharray:none;stroke-opacity:1"
         id="path632" /><path
         d="m 3237.26,6290.54 41.62,95.24 c 5.73,14.17 21.85,21 36.01,15.29 14.17,-5.72 21.02,-21.85 15.3,-36.01 l -73.06,-196.39"
         style="fill:#feedd7;fill-opacity:1;fill-rule:nonzero;stroke:none"
         id="path634" /><path
         d="m 3237.26,6290.54 41.62,95.24 c 5.73,14.17 21.85,21 36.01,15.29 14.17,-5.72 21.02,-21.85 15.3,-36.01 l -73.06,-196.39"
         style="fill:none;stroke:#5f111c;stroke-width:17.9926;stroke-linecap:round;stroke-linejoin:miter;stroke-miterlimit:10;stroke-dasharray:none;stroke-opacity:1"
         id="path636" /><path
         d="M 1738.52,4449.49 V 4296.76"
         style="fill:#fffbfa;fill-opacity:1;fill-rule:nonzero;stroke:none"
         id="path638" /><path
         d="M 1738.52,4449.49 V 4296.76"
         style="fill:none;stroke:#5f111c;stroke-width:17.9926;stroke-linecap:round;stroke-linejoin:miter;stroke-miterlimit:10;stroke-dasharray:none;stroke-opacity:1"
         id="path640" /><path
         d="m 5870.58,3232.38 v 0 c 0,67.34 54.6,121.94 121.94,121.94 h 89.93 c 41.33,0 74.84,33.5 74.84,74.83 0,41.33 -33.51,74.84 -74.84,74.84 h -83.78 -126.17 v 82.16 h 430.16 v -287.74 c 0,0 -31.02,-48.74 -113.36,-57.38 -82.35,-8.65 -318.72,-8.65 -318.72,-8.65"
         style="fill:#aaccc3;fill-opacity:1;fill-rule:nonzero;stroke:none"
         id="path642" /><path
         d="M 6082.45,3503.99 H 5872.5 v 82.16 h 430.16 v -301.91 c 0,0 -31.02,-43.21 -113.36,-51.86 h -306.83 -8.62"
         style="fill:none;stroke:#5f141d;stroke-width:17.9926;stroke-linecap:round;stroke-linejoin:miter;stroke-miterlimit:10;stroke-dasharray:none;stroke-opacity:1"
         id="path644" /></g></g></svg>
