<?xml version="1.0" encoding="UTF-8" standalone="no"?>
<svg
   xmlns:dc="http://purl.org/dc/elements/1.1/"
   xmlns:cc="http://creativecommons.org/ns#"
   xmlns:rdf="http://www.w3.org/1999/02/22-rdf-syntax-ns#"
   xmlns:svg="http://www.w3.org/2000/svg"
   xmlns="http://www.w3.org/2000/svg"
   viewBox="0 0 4800 2666.6667"
   height="2666.6667"
   width="4800"
   xml:space="preserve"
   id="svg2"
   version="1.1"><metadata
     id="metadata8"><rdf:RDF><cc:Work
         rdf:about=""><dc:format>image/svg+xml</dc:format><dc:type
           rdf:resource="http://purl.org/dc/dcmitype/StillImage" /></cc:Work></rdf:RDF></metadata><defs
     id="defs6" /><g
     transform="matrix(1.3333333,0,0,-1.3333333,0,2666.6667)"
     id="g10"><g
       transform="scale(0.1)"
       id="g12"><g
         transform="scale(2.20859)"
         id="g14"><path
           id="path16"
           style="fill:#ffffff;fill-opacity:1;fill-rule:nonzero;stroke:none"
           d="M 16300,0 H 0 V 9055.56 H 16300 V 0" /></g><g
         transform="scale(2.15387)"
         id="g18"><path
           id="path20"
           style="fill:#ebf2f9;fill-opacity:1;fill-rule:nonzero;stroke:none"
           d="m 13486.7,895.644 c 0,0 1593.1,-124.939 2083.8,807.846 729.5,1386.99 -688.4,2504.98 -1716.9,2303.71 -1065.3,-208.41 -1502.3,775.12 -2053.8,1758.67 -608.9,1085.85 -1357.3,2171.7 -3244.74,1653.58 -313.29,-86 -791.74,12.89 -1325.66,111.79 C 6039.78,7751.61 4574.86,7971.98 4048.8,6146.53 3867.57,5517.65 3225.47,5448.4 2293.34,5049.35 469.075,4268.41 1303.2,882.457 2606.71,869.18 3910.21,855.855 13486.7,895.644 13486.7,895.644" /></g><g
         transform="scale(2.04864)"
         id="g22"><path
           id="path24"
           style="fill:#283250;fill-opacity:1;fill-rule:nonzero;stroke:none"
           d="M 16286.8,908.602 H 1567.26 c -7.23,0 -13.14,5.905 -13.14,13.13 0,7.225 5.91,13.13 13.14,13.13 H 16286.8 c 7.2,0 13.2,-5.905 13.2,-13.13 0,-7.225 -6,-13.13 -13.2,-13.13" /></g><g
         transform="scale(1.09038)"
         id="g26"><path
           id="path28"
           style="fill:#adcbf9;fill-opacity:1;fill-rule:nonzero;stroke:none"
           d="m 11058.7,8488.79 c -244,-244.87 -512.8,-457.55 -803.2,-636.75 -703.68,514.32 -1455.5,954.53 -2238.8,1310.92 107.69,197.29 213.81,405.7 317.43,623.26 716.97,-95.02 1406.24,-152.03 2035.47,-166.78 164.3,-4.75 323.7,-4.75 478.5,-3.57 401.1,4.77 758.1,28.58 1064,71.42 -214.2,-443.95 -501,-846.24 -853.4,-1198.5 z M 9655.54,7542.51 c -545.12,-230.83 -1122.36,-347.49 -1718.65,-347.49 -459.35,0 -908.08,69.33 -1339.17,206.63 326.71,171.22 654.95,564.48 907.74,926.92 130.39,186.91 260.68,393.72 389.32,616.94 741.65,-335.84 1454.81,-748.45 2124.72,-1229.2 -118.26,-63.1 -239.6,-121.15 -363.96,-173.8 z M 3866.43,9893.18 c -9.94,23.64 -19.63,47.35 -29.15,71.08 339.84,-13.67 969.88,-65.16 1774.68,-248.34 57.58,-13.11 115.13,-26.84 172.64,-40.87 -41.41,-241.59 -71.98,-472.45 -90.86,-689.46 -35.75,-411.05 -38.27,-885.1 76.39,-1223.61 -349.02,196.54 -669.08,439.57 -956.3,726.81 -405.86,405.82 -724.84,878.34 -947.4,1404.39 z m -155.91,998.62 c 114.25,-42.9 230.9,-85.7 351.1,-127.4 552.59,-191.5 1172.04,-369.4 1834.63,-527.3 -24.06,-107.4 -46.25,-213.2 -66.63,-317.35 -54.14,13.14 -108.33,26 -162.54,38.35 -916.05,208.5 -1603.47,250.9 -1922.11,258.1 -78.93,237.7 -136.97,480.9 -173.71,729.1 46.42,-17.8 92.83,-35.7 139.26,-53.5 z m -640.33,505.8 c -843.85,411.8 -1229.47,809.3 -1056.89,1091.4 139.26,228.5 646.28,383.2 1422.28,440.4 -95.21,-321.4 -153.54,-653.4 -176.15,-990.3 -7.14,-99.9 -10.71,-199.9 -11.9,-301.1 v -26.2 c 0,-101.1 3.58,-202.3 9.52,-302.3 -64.27,28.6 -126.16,58.3 -186.86,88.1 z m 796.24,1932.9 c 39.29,90.4 79.74,179.7 123.78,266.6 l 0.11,0.2 c 545.5,-681.8 1349.51,-1378.8 2288.93,-1983.3 -133.2,-405.4 -246.85,-803.9 -338.57,-1185.7 -683.45,165.3 -1316.84,352.5 -1871.91,552.7 -116.65,41.7 -229.71,84.5 -338.02,127.4 -64.27,25 -127.35,51.2 -189.24,77.3 -9.52,95.3 -16.66,191.7 -19.05,288.1 -1.19,46.4 -2.38,91.6 -2.38,138 0,53.6 1.19,108.3 2.38,161.9 15.48,401.1 83.32,792.7 202.34,1171.1 20.23,64.3 41.65,127.4 65.46,190.5 23.8,65.4 48.8,130.9 76.17,195.2 z m -243.9,2145.5 c 143.56,227.9 464.41,345.5 914.89,345.5 215.47,0 460.76,-26.9 730.32,-81.6 102.34,-20.8 206.88,-45.1 313.2,-73.2 h 0.28 c -349.81,-202.4 -671.07,-449.9 -960.21,-740.2 -60.7,-59.5 -119.02,-121.4 -176.14,-185.6 -71.42,-78.6 -139.26,-160.7 -204.72,-244 -104.73,-133.3 -201.14,-272.6 -290.41,-415.4 l -0.21,-0.4 c -398.08,591.1 -517.75,1092.3 -327,1394.9 z m 4314.36,552.6 c 305.91,0 606.78,-30.7 900.9,-91.8 -346.92,-151 -701.1,-571.3 -969.95,-956.7 -275.17,-394.5 -549.95,-877.2 -809.42,-1417.6 -175.09,95.1 -340.7,197.9 -496.28,308.3 -516.08,366.1 -825.26,749.5 -993.76,1006.7 -89.45,136.5 -149.78,252.8 -188.19,336.3 181.15,128.8 371.64,243.9 570.8,344.4 l 0.18,-0.1 c 81.07,40.9 163.75,79.2 247.66,115.1 6.09,2.6 12.12,5.3 18.24,7.9 1.37,0.6 2.83,1.2 4.21,1.8 17.92,7.6 35.88,14.9 53.88,22.2 4.84,1.9 9.75,3.8 14.51,5.8 522.49,210.6 1077.12,317.7 1647.22,317.7 z m 3121.81,-1293.7 c 405.9,-405.9 724.9,-878.4 947.5,-1404.4 79.3,-188 145.2,-380 197.4,-575.5 -1017.9,-74.5 -1950.7,-51.1 -2784.49,69.6 132.34,540.6 221.39,1049.2 260.46,1498.4 43.11,496 37.88,1083.6 -163.24,1414.2 46.58,-17.9 92.99,-36.6 139.21,-56.1 526.06,-222.6 998.56,-540.3 1403.16,-946.2 z M 8633.88,12718.8 c 155.14,-36.1 314.48,-68 477.44,-96.4 -114.5,-430.8 -255.53,-879.5 -419.84,-1332.5 -63.33,-174.7 -128.91,-346.6 -196.37,-515.1 -617.23,226.7 -1272.34,550.8 -1916.4,951.1 33.29,97.4 67.62,195 103.11,292.8 152.66,420.9 318.34,826 492.07,1205.4 437.78,-212.2 925.96,-381.3 1459.99,-505.3 z m 532.28,3014.8 c 135.47,-49.1 204.16,-243.5 238,-397.9 53.47,-244 63.1,-586.8 27.97,-991.2 -38.52,-442.7 -127.2,-945.5 -259.08,-1480.9 -159.34,27.4 -314.96,58.4 -466.52,93.3 -523.61,120.4 -1000.96,285.1 -1427.23,492 254.35,530.5 523.33,1003.6 792.24,1389.1 232.27,332.9 459.41,589.8 656.87,742.8 103.03,79.8 241.7,165.3 363.11,165.3 25.82,0 50.89,-3.9 74.64,-12.5 z m -3988.4,-672.8 c 40.67,-83.3 96.86,-186.6 172.61,-303.7 322.78,-498.8 749.08,-860.4 1049.86,-1075.9 172.71,-123.8 357.03,-238.5 552.42,-344 -178.32,-388.5 -348.15,-803.2 -504.32,-1233.8 -29.11,-80.3 -57.42,-160.4 -85.09,-240.4 -932.77,607.2 -1722.48,1303.9 -2240.52,1978.1 l -0.21,0.3 c 129.69,221.2 278.4,430.6 444.95,626.9 69.02,80.9 140.44,159.5 215.43,235.6 10.7,10.8 20.22,20.3 30.94,31 115.85,115.8 237.36,224.4 363.93,325.9 z m 1559.41,-4810.5 c -187.83,38.6 -372.95,79 -554.88,120.9 85.65,356.4 190.86,727.9 313.69,1106.5 638.48,-392.5 1287.81,-711.8 1902.6,-938.3 -77.13,-184.2 -156.35,-363.7 -237.26,-537.5 -466.98,67 -944.76,150.1 -1424.15,248.4 z m 1051.61,-986.59 c -560.28,241.43 -1136.32,440.96 -1718.13,594.99 20.51,105.58 42.98,213 67.42,322.1 161.79,-36.8 325.86,-72.4 491.98,-106.7 486.17,-99.43 971.15,-183.85 1445.89,-252.16 -94.01,-194.54 -189.99,-381.02 -287.16,-558.23 z M 6207.13,7574.98 c -135.42,49.07 -204.17,243.49 -237.99,397.93 -53.46,243.96 -63.13,586.77 -27.96,991.22 17.79,204.52 46.38,421.97 84.87,649.43 555.11,-147.94 1104.83,-338.21 1640.1,-567.53 -120.56,-207.91 -242.48,-400.69 -364.39,-575.4 -232.27,-332.91 -459.4,-589.79 -656.87,-742.86 -124.95,-96.84 -302.31,-201.95 -437.76,-152.79 z m 5801.47,2324.15 c -317.8,-57.12 -714.2,-90.44 -1177.1,-95.2 -718.5,-8.77 -1543.54,47.97 -2413.08,162.57 73.16,159.3 144.89,322.9 214.84,490.3 269.83,-90.3 531.68,-161.7 781.45,-212.4 286.04,-58.1 547.15,-86.8 780.19,-86.8 546.2,0 937.6,157.7 1130.9,464.6 31.8,50.5 57.8,104.1 77.8,160.7 h -278.5 c -4.7,-8.5 -9.5,-16.9 -14.7,-25 -143.6,-227.9 -464.4,-345.7 -914.9,-345.6 -215.39,0 -460.72,26.9 -730.26,81.7 -234.96,47.6 -481.38,114.6 -735.45,198.9 67.04,167.7 132.23,338.7 195.18,512.3 169.74,468 315.03,931.9 432.6,1377.4 535.69,-78.9 1110.73,-118.6 1721.73,-118.6 380.3,0 774.7,15.4 1182.1,46.1 60.6,-293.3 91.1,-593.4 91.1,-898.3 0,-593.9 -115.5,-1169.9 -343.9,-1712.67 z m 1120,767.67 -363.1,8.4 c 116.6,-151.2 142.9,-290.5 70.2,-408.3 -72.6,-120.2 -246.3,-219 -505.8,-293.96 196.4,522.46 295.2,1073.56 295.2,1638.86 0,633.2 -123.9,1247.4 -369,1824.6 -235.7,558.2 -573.6,1060.5 -1004.5,1490.1 -430.9,430.9 -932,768.9 -1490.13,1005.7 -578.43,244 -1192.59,367.8 -1824.58,367.8 -633.18,0 -1247.33,-123.8 -1825.76,-367.8 -69.03,-29.7 -138.05,-60.7 -204.71,-92.8 l -0.61,-0.3 c -201.64,61.5 -398.04,111.9 -587.53,150.4 -956.55,194.1 -1635.38,59.9 -1911.12,-377.8 -262.39,-416.3 -119.54,-1043 401.15,-1773.9 l -0.2,-0.3 c -70.23,-129.7 -133.3,-263 -191.62,-401.1 -44.04,-103.6 -83.32,-207.1 -119.03,-313 -978.33,-58.3 -1502.02,-230.5 -1692.45,-542.4 -221.38,-363 80.94,-850.2 1048.57,-1323.8 133.3,-65.5 276.12,-129.8 426.09,-194 49.99,-439.2 163.05,-866.5 336.82,-1275.93 235.66,-558.21 573.67,-1060.49 1004.52,-1491.35 430.86,-429.67 931.92,-767.62 1490.12,-1004.51 578.43,-243.95 1192.58,-367.76 1825.76,-367.76 631.99,0 1246.15,123.81 1824.58,367.76 558.13,236.89 1059.23,574.84 1490.13,1004.51 418.9,418.94 751,906.96 985.4,1447.3 477.3,98.79 791.5,253.51 916.5,458.28 86.8,141.6 76.2,298.7 -24.9,465.3" /></g><g
         transform="scale(1.54258)"
         id="g30"><path
           id="path32"
           style="fill:#e58638;fill-opacity:1;fill-rule:nonzero;stroke:none"
           d="m 15618.8,7951.37 c 0,0 624.2,-614.21 652.7,-845.81 28.5,-231.6 -283.1,-593.9 -283.1,-593.9 l -369.6,1439.71" /></g><g
         transform="scale(1.4568)"
         id="g34"><path
           id="path36"
           style="fill:#163560;fill-opacity:1;fill-rule:nonzero;stroke:none"
           d="m 16300,1664.54 c 0,0 -21.5,-345.76 -88.3,-350.7 -9,-0.62 -339.3,-0.62 -339.3,-0.62 l -421.7,2.4 c 0,0 2.7,101.66 126,123.15 123.3,21.48 329.6,108.11 404.2,271 78.6,171.4 319.1,-45.23 319.1,-45.23" /></g><g
         transform="scale(1.54075)"
         id="g38"><path
           id="path40"
           style="fill:#163560;fill-opacity:1;fill-rule:nonzero;stroke:none"
           d="m 16300,1573.84 c 0,0 -20.2,-326.92 -83.5,-331.59 -8.4,-0.58 -320.8,-0.58 -320.8,-0.58 l -398.7,2.27 c 0,0 2.5,96.12 119.1,116.43 116.6,20.32 311.7,102.22 382.3,256.24 74.2,162.06 301.6,-42.77 301.6,-42.77" /></g><g
         transform="scale(1.54326)"
         id="g42"><path
           id="path44"
           style="fill:#163560;fill-opacity:1;fill-rule:nonzero;stroke:none"
           d="m 14945.9,5078.98 c 0,0 104.1,-665.93 492.6,-1848.04 388.3,-1182.16 441.3,-1694 441.3,-1694 l 416.6,11.66 c 0,0 3.6,1291.94 -175.4,1886.33 -179,594.45 -38.7,2143.05 -38.7,2143.05 l -1136.4,-499" /></g><g
         transform="scale(1.51014)"
         id="g46"><path
           id="path48"
           style="fill:#1c468a;fill-opacity:1;fill-rule:nonzero;stroke:none"
           d="m 15066.5,5663.05 c 0,0 -15.1,-1025.54 162.3,-2284.69 177.5,-1259.09 117.3,-1793.61 117.3,-1793.61 l 425,-14.1 c 0,0 254,1259.62 181.2,1889.82 -72.9,630.21 347.7,2162.65 347.7,2162.65 l -1233.5,39.93" /></g><g
         transform="scale(1.47208)"
         id="g50"><path
           id="path52"
           style="fill:#ffb27d;fill-opacity:1;fill-rule:nonzero;stroke:none"
           d="m 16300,8271.36 -205.6,-152.28 -297.2,62.55 c 4.1,27.11 23.7,139.42 41.6,241.15 1,6 2.1,12 3.1,17.87 15.3,86.56 28.6,160.92 28.6,160.92 l 277.5,138.33 103.5,51.57 c -0.3,-1.82 -8,-96.06 -9.1,-109.81 -19.4,-244.32 57.6,-410.3 57.6,-410.3" /></g><g
         transform="scale(1.47517)"
         id="g54"><path
           id="path56"
           style="fill:#e58638;fill-opacity:1;fill-rule:nonzero;stroke:none"
           d="m 15784.8,8330.71 c 6.5,2.74 403.4,119.86 446.5,105.62 43.1,-14.23 68.7,-97.65 68.7,-97.65 l -649.2,-146.77 c 0,0 51.1,103.88 134,138.8" /></g><g
         transform="scale(1.53136)"
         id="g58"><path
           id="path60"
           style="fill:#ee9849;fill-opacity:1;fill-rule:nonzero;stroke:none"
           d="m 16235.2,5459.71 c -64.8,-295.61 -1143.4,-330.68 -1421.4,-62.29 -31.6,30.56 -33.2,172.85 -21.3,364.77 23.4,374.9 98.3,938.82 101.2,1226.95 1.4,139.13 20.5,281.45 46,410.66 54.2,275.43 136.8,491.55 136.8,491.55 0,0 526.8,170.31 625.4,141.34 474.9,-139.53 598.1,-2277.29 533.3,-2572.98" /></g><g
         transform="scale(1.46245)"
         id="g62"><path
           id="path64"
           style="fill:#e58638;fill-opacity:1;fill-rule:nonzero;stroke:none"
           d="m 15489.6,6033.72 c 24.5,392.56 102.9,983.06 105.9,1284.76 1.5,145.7 21.5,294.72 48.2,430.02 l 331.8,58.56 c 0,0 324.5,-1325.12 -485.9,-1773.34" /></g><g
         transform="scale(1.42471)"
         id="g66"><path
           id="path68"
           style="fill:#ffb27d;fill-opacity:1;fill-rule:nonzero;stroke:none"
           d="m 16084.4,6755.22 c 0,0 23.2,-55.52 -25.6,-92.79 -48.7,-37.2 -80.3,-97.63 -69.2,-141.71 11.2,-44.15 118.2,-116.1 155.2,-104.52 37.1,11.66 112.6,69.77 104.5,93 -8.2,23.31 50.7,204.26 -39.7,273.89 -90.4,69.63 -125.2,-27.87 -125.2,-27.87" /></g><g
         transform="scale(1.44694)"
         id="g70"><path
           id="path72"
           style="fill:#ee9849;fill-opacity:1;fill-rule:nonzero;stroke:none"
           d="m 16211.6,8421.23 c 0,0 -326.4,-50.38 -587,-434.47 -260.6,-384.07 -432.1,-669.63 -384.1,-808.06 48,-138.42 485.6,-618.51 561.1,-618.51 75.4,0 197.1,54.88 204,178.31 0,0 -308.1,461.78 -247.4,530.94 26,29.56 400,333.25 453.4,196.07 88.4,-226.96 0,955.72 0,955.72" /></g><g
         transform="scale(1.46727)"
         id="g74"><path
           id="path76"
           style="fill:#fca56b;fill-opacity:1;fill-rule:nonzero;stroke:none"
           d="m 16274.7,8705.79 c -61.1,-117.02 -289,-218.2 -384,-255.39 1.1,6.01 2.2,12.03 3.2,17.92 15.3,86.84 28.6,161.44 28.6,161.44 l 278.5,138.79 c 61.5,0.95 99,-14.61 73.7,-62.76" /></g><g
         transform="scale(1.49449)"
         id="g78"><path
           id="path80"
           style="fill:#ffb27d;fill-opacity:1;fill-rule:nonzero;stroke:none"
           d="m 15499.7,8488.58 c 0,0 493.2,-153.85 584.2,154.77 91.1,308.63 216.1,496.62 -94.9,607.91 -311.1,111.28 -407.3,11.65 -462.8,-83.97 -55.4,-95.62 -152.5,-630.73 -26.5,-678.71" /></g><g
         transform="scale(1.51413)"
         id="g82"><path
           id="path84"
           style="fill:#163560;fill-opacity:1;fill-rule:nonzero;stroke:none"
           d="m 15401.2,9066.12 c 0,0 28.1,-365.7 101.7,-349.19 73.6,16.51 140.4,28.85 128.7,-81.56 -11.7,-110.4 -114.6,-238.66 111.6,-256.25 226.3,-17.6 556.8,586.7 495.5,700.06 -176.7,327.09 -1093.6,385.63 -837.5,-13.06" /></g><g
         transform="scale(1.75856)"
         id="g86"><path
           id="path88"
           style="fill:#e49963;fill-opacity:1;fill-rule:nonzero;stroke:none"
           d="m 16218.3,4928.05 c 0,0 -160.8,-41.28 -263,-10.46 -102.2,30.76 -278.1,-19.79 -306.4,-57.03 -28.3,-37.31 -17.9,-52.09 32.6,-64.94 50.5,-12.85 229.7,-89.28 347.3,-45.04 117.7,44.18 271.2,45.77 271.2,45.77 l -81.7,131.7" /></g><g
         transform="scale(1.89965)"
         id="g90"><path
           id="path92"
           style="fill:#4a75cb;fill-opacity:1;fill-rule:nonzero;stroke:none"
           d="m 16300,5854.9 c 0,0 -167.2,-1188.25 -444,-1294.69 -136.6,-52.54 -740.3,-171.56 -918.9,-183.51 0,0 -43.8,35.48 -33.1,179.93 0,0 632.5,232.2 722.4,358.49 133.7,187.92 -83.1,767.8 84.8,944.32 167.7,176.51 450.4,252.38 588.8,-4.54" /></g><g
         transform="scale(1.96684)"
         id="g94"><path
           id="path96"
           style="fill:#2b478b;fill-opacity:1;fill-rule:nonzero;stroke:none"
           d="m 15722.5,1230.65 v 252.39 h 394 c 10.6,0 19.3,8.69 19.3,19.32 v 40.11 c 0,10.63 -8.7,19.32 -19.3,19.32 h -394 v 1424.42 c 0,39.96 -32.7,72.66 -72.6,72.66 h -78 c -40,0 -72.7,-32.7 -72.7,-72.66 V 1561.79 h -393.9 c -10.6,0 -19.3,-8.69 -19.3,-19.32 v -40.11 c 0,-10.63 8.7,-19.32 19.3,-19.32 h 393.9 v -252.39 c -285,-21.55 -513.4,-124.21 -577.4,-256.803 H 16300 c -64.1,132.593 -292.4,235.253 -577.5,256.803" /></g><g
         transform="scale(1.92239)"
         id="g98"><path
           id="path100"
           style="fill:#163560;fill-opacity:1;fill-rule:nonzero;stroke:none"
           d="m 16051.6,3311.82 c -48.3,-81.77 -104,-158.34 -161.5,-230.91 -177.5,-224.15 -370.8,-408.97 -404.5,-583.7 -6.7,-34.8 -17.3,-72.31 -31.2,-111.84 -14.1,-40 -31.4,-82.09 -51.5,-125.58 -75.3,-163.64 -188,-347.06 -300.5,-513.78 -194.5,-288.19 -377.4,-528.67 -377.4,-528.67 l -335.4,14.31 c 13.4,33.6 159.7,431.54 355.4,917.81 79.5,197.42 164,407.36 245.5,609.87 10.9,27.05 21.7,54 32.4,80.68 25,61.96 49.5,122.97 73.4,182.38 183.8,456.57 330.2,820.18 330.2,820.18 0,0 734.4,278.19 810.6,97.95 62.9,-148.67 11.7,-294.27 -185.5,-628.7" /></g><g
         transform="scale(1.7354)"
         id="g102"><path
           id="path104"
           style="fill:#163560;fill-opacity:1;fill-rule:nonzero;stroke:none"
           d="m 16300,1416.1 c 0,0 -18.2,-308.05 -77.5,-312.49 -7.9,-0.58 -678.5,0 -678.5,0 0,0 5.3,93.17 114.6,112.25 109.4,19.01 292.3,95.83 358.5,240.35 69.7,151.95 282.9,-40.11 282.9,-40.11" /></g><g
         transform="scale(1.8545)"
         id="g106"><path
           id="path108"
           style="fill:#163560;fill-opacity:1;fill-rule:nonzero;stroke:none"
           d="m 16058.2,2144.73 c 0,0 241.8,-155.41 218.3,-205.88 -3.1,-6.69 -136.7,-246.05 -136.7,-246.05 l -172.4,-304.56 c 0,0 -72.5,43.09 -38.2,141.12 34.3,97.98 55,282.55 -32.8,402.53 -92.4,126.29 161.8,212.84 161.8,212.84" /></g><g
         transform="scale(1.92351)"
         id="g110"><path
           id="path112"
           style="fill:#1c468a;fill-opacity:1;fill-rule:nonzero;stroke:none"
           d="m 15172.5,3975.49 c 0,0 -927.1,-577.07 -1030,-962.71 -102.8,-385.65 1225.6,-1208.32 1225.6,-1208.32 0,0 145.6,128.52 171.4,222.82 0,0 -600.5,719.32 -730.7,880.58 -80,99.04 1182.7,342.81 1336.9,582.79 154.3,239.93 99.1,441.85 99.1,441.85 l -1072.3,42.99" /></g><g
         transform="scale(2.00303)"
         id="g114"><path
           id="path116"
           style="fill:#ee9849;fill-opacity:1;fill-rule:nonzero;stroke:none"
           d="m 16234.2,3106.94 h -1810.7 c -36.2,0 -65.8,-29.6 -65.8,-65.8 v -362.15 c 0,-36.19 29.6,-65.85 65.8,-65.85 h 1810.7 c 36.1,0 65.8,29.66 65.8,65.85 v 362.15 c 0,36.2 -29.7,65.8 -65.8,65.8" /></g><g
         transform="scale(1.89269)"
         id="g118"><path
           id="path120"
           style="fill:#e49963;fill-opacity:1;fill-rule:nonzero;stroke:none"
           d="m 16300,6101.46 c 0,0 -371.8,-207.85 -596.1,-149.83 0,0 50.7,72.27 142.6,129.23 -4.9,21.82 -9.2,42.37 -12.9,61.5 -21.4,109.53 -25.3,173.24 -25.3,173.24 l 171.3,153.49 c 47.4,-10.04 91.7,-19.45 115.2,-24.41 2.2,-11.31 4.6,-22.3 7.4,-33.08 53.5,-213.13 197.8,-310.14 197.8,-310.14" /></g><g
         transform="scale(1.92468)"
         id="g122"><path
           id="path124"
           style="fill:#739af0;fill-opacity:1;fill-rule:nonzero;stroke:none"
           d="m 16262.7,4938.38 c -31.6,-424.96 10,-1071.19 -25.9,-1183.11 -30.9,-96.59 -383.4,-39.17 -524.1,-6.96 -52,11.95 -115.1,28.99 -180.2,49.15 -181.7,56.27 -379.7,136.59 -401,196.24 -0.7,2.34 -1.5,4.62 -1.9,6.86 v 0.1 c -0.3,1.51 -0.6,3.02 -0.8,4.47 -0.9,7.02 -0.4,13.67 1.2,20.42 7.1,30.4 34.3,63.28 37.6,138.57 3.5,84.01 3,182.99 6.2,289.4 0.1,12 0.3,25.09 1.6,36.99 l 0.1,4.36 c 0,2.29 0.1,4.53 0.1,6.81 3.1,118.67 9.3,243.47 16.5,367.18 4.5,77.73 9.8,154.73 15.9,228.45 15.9,190.37 37.2,359.65 65.5,466.63 46.2,174.47 148,288.25 240.8,371.64 l 67,57.52 c 74.8,-16.37 163.3,-5.51 243.3,32.42 86.6,41.1 116.5,70.55 131.6,59.44 199.9,-154.31 343.8,-627.12 306.5,-1146.58" /></g><g
         transform="scale(1.87763)"
         id="g126"><path
           id="path128"
           style="fill:#4a75cb;fill-opacity:1;fill-rule:nonzero;stroke:none"
           d="m 15921.8,3892.63 c -186.3,57.68 -389.3,140.02 -411,201.16 -0.8,2.39 -1.6,4.74 -2,7.03 v 0.1 c 0,1.5 -0.3,3.04 -0.9,4.58 -0.9,7.19 -0.3,14.01 1.3,20.94 7.2,31.15 35.2,64.86 38.5,142.04 3.6,86.12 3.1,187.57 6.4,296.65 0.1,12.3 0.3,25.72 1.6,37.92 l 0.1,4.47 c 0,2.34 0.1,4.64 0.1,6.98 l 703.6,319.07 c 0,0 40.5,-566.99 -337.7,-1040.94" /></g><g
         transform="scale(1.86972)"
         id="g130"><path
           id="path132"
           style="fill:#d68d5d;fill-opacity:1;fill-rule:nonzero;stroke:none"
           d="m 16300,6490.37 c -25.7,-64.87 -102.5,-217.84 -271.9,-272.55 -21.7,110.87 -25.6,175.37 -25.6,175.37 l 173.4,155.37 c 48,-10.16 92.8,-19.68 116.6,-24.71 2.3,-11.44 4.7,-22.57 7.5,-33.48" /></g><g
         transform="scale(1.88285)"
         id="g134"><path
           id="path136"
           style="fill:#e49963;fill-opacity:1;fill-rule:nonzero;stroke:none"
           d="m 15822.9,6350.31 c 0,0 369.4,-41.68 391.9,188.82 22.4,230.49 85.2,380.35 -149.8,416.7 -234.9,36.35 -289.4,-47.14 -315.6,-122.25 -26.2,-75.12 -22,-466.5 73.5,-483.27" /></g><g
         transform="scale(1.90747)"
         id="g138"><path
           id="path140"
           style="fill:#2b478b;fill-opacity:1;fill-rule:nonzero;stroke:none"
           d="m 16003.9,6439 c 0,0 -23.2,302.01 -355.1,333.29 -227.5,21.43 -100.6,217.14 -76.4,248.36 0,0 174.2,-23.89 352.8,-53.39 374.8,-61.93 115.5,-481.24 78.7,-528.26" /></g><g
         transform="scale(1.77041)"
         id="g142"><path
           id="path144"
           style="fill:#4a75cb;fill-opacity:1;fill-rule:nonzero;stroke:none"
           d="m 16298.8,4645.09 -973.8,-20.78 -276.8,851.95 -34.4,-11.18 292.6,-900.65 993.6,21.19 -1.2,59.47" /></g><g
         transform="scale(1.76901)"
         id="g146"><path
           id="path148"
           style="fill:#e49963;fill-opacity:1;fill-rule:nonzero;stroke:none"
           d="m 16204.8,4702.81 c 0,0 -154.3,-58.39 -258.7,-39.17 -104.3,19.22 -272.6,-50.03 -296.5,-89.94 -23.9,-39.97 -12,-53.42 39.4,-60.6 51.3,-7.18 236.6,-63.03 348.1,-6.44 111.4,56.58 262.9,75.01 262.9,75.01 l -95.2,121.14" /></g><g
         transform="scale(1.89105)"
         id="g150"><path
           id="path152"
           style="fill:#739af0;fill-opacity:1;fill-rule:nonzero;stroke:none"
           d="m 16300,5832.55 c 0,0 -35.3,-1204.91 -299.9,-1341.82 -130.6,-67.58 -720.2,-253.29 -897.1,-285.02 0,0 -47.7,30.62 -53,175.98 0,0 605.8,301.9 681.5,437.96 112.7,202.43 -167.9,757.39 -19.9,952.21 148,194.82 421.8,301.87 588.4,60.69" /></g><path
         id="path154"
         style="fill:#d86713;fill-opacity:1;fill-rule:nonzero;stroke:none"
         d="m 11949,10833.1 -706.9,-8405.5 c 0,0 -74.1,-509.6 304.9,-510.5 623.2,-1.5 3101.7,0 3101.7,0 0,0 -469,106.1 -463.4,344.7 6.8,281.3 826.3,8650.8 826.3,8650.8 l -3062.6,-79.5" /><path
         id="path156"
         style="fill:#ee9849;fill-opacity:1;fill-rule:nonzero;stroke:none"
         d="m 14849.8,2069.6 c -122.6,-0.3 -2489.9,-7.8 -3096.7,0 -264.5,3.3 -310.9,235.2 -313.1,385.2 -1,72 8.1,125.1 8.1,125.1 l 18.4,218.5 46.8,556.9 41.4,491.9 53.2,632.2 44.8,533.6 502.3,5972.7 3062.6,79.4 c 0,0 -345.2,-3502.6 -589.3,-6052.1 -27.3,-284.1 -53.2,-556.5 -77.2,-810.8 -7.8,-81.1 -15.2,-160.5 -22.5,-237.8 -22.7,-241.2 -43.4,-462.7 -61.4,-658.3 -9.5,-103.1 -18.2,-198.9 -26.1,-286.6 -31.2,-343.9 -49.4,-563.4 -49.7,-605.2 -0.1,-24.3 2,-47 6,-68 50.2,-267.9 406.4,-276.7 452.4,-276.7" /><g
         transform="scale(1.36018)"
         id="g158"><path
           id="path160"
           style="fill:#f1a34f;fill-opacity:1;fill-rule:nonzero;stroke:none"
           d="M 3316.73,11327.2 4582.7,6242.05 4756.04,5545.67 5345.66,3177.16 H 16300 L 14126.8,11327.2 H 3316.73" /></g><path
         id="path162"
         style="fill:#ee9849;fill-opacity:1;fill-rule:nonzero;stroke:none"
         d="M 4511.32,15407.1 4272.68,15327.5 6953.8,4080.8 7271.08,4321.4 4511.32,15407.1" /><g
         transform="scale(1.36018)"
         id="g164"><path
           id="path166"
           style="fill:#d86713;fill-opacity:1;fill-rule:nonzero;stroke:none"
           d="M 5112.42,3000.2 H 15999.4 l 300.6,176.89 H 5345.68 L 5112.42,3000.2" /></g><path
         id="path168"
         style="fill:#f1a34f;fill-opacity:1;fill-rule:nonzero;stroke:none"
         d="m 12154,1913.9 h 3206.2 v 152.398 H 12154 Z" /><g
         transform="scale(1.32666)"
         id="g170"><path
           id="path172"
           style="fill:#f1a34f;fill-opacity:1;fill-rule:nonzero;stroke:none"
           d="M 16167.8,4797.17 14345.4,11503 H 3382.56 v 110.5 H 14483.7 l 1816.3,-6801.48 -132.2,-14.85" /></g><path
         id="path174"
         style="fill:#d86713;fill-opacity:1;fill-rule:nonzero;stroke:none"
         d="m 14545.1,4080.9 -16.5,-116.5 -3015.3,-609.1 41.4,491.9 19.7,233.7 h 2970.7" /><path
         id="path176"
         style="fill:#e58433;fill-opacity:1;fill-rule:nonzero;stroke:none"
         d="m 13216.3,2066.3 h -722.6 c -317.1,0.3 -585.9,1.3 -740.6,3.3 -264.5,3.3 -310.9,235.2 -313.1,385.2 l 3001.1,564.7 c -31.2,-343.9 -49.4,-563.4 -49.7,-605.2 0,-0.8 0,-1.5 0,-2.3 0,-23.5 2.1,-45.3 6,-65.7 50.2,-267.9 406.4,-276.7 452.4,-276.7 -69.2,-0.2 -854.1,-2.6 -1633.5,-3.3" /><path
         id="path178"
         style="fill:#e78b37;fill-opacity:1;fill-rule:nonzero;stroke:none"
         d="m 12829.7,2066.1 c -115.8,0 -228.7,0 -336,0.2 v 0 h 722.6 c -130.1,-0.2 -260.1,-0.2 -386.6,-0.2" /><path
         id="path180"
         style="fill:#e78b37;fill-opacity:1;fill-rule:nonzero;stroke:none"
         d="m 7271.05,4321.5 v 0 L 6469.06,7543.1 13816.4,6565.6 7271.08,4321.4" /><g
         transform="scale(1.32519)"
         id="g182"><path
           id="path184"
           style="fill:#699dee;fill-opacity:1;fill-rule:nonzero;stroke:none"
           d="M 3404.28,11626.3 H 14499.7 L 16300,4903.22 H 5020.83 L 3404.28,11626.3" /></g><path
         id="path186"
         style="fill:#d86713;fill-opacity:1;fill-rule:nonzero;stroke:none"
         d="m 15116,5371.5 c -42.5,218.5 -254,395.6 -472.5,395.6 -218.5,0 -361.2,-177.1 -318.7,-395.6 42.4,-218.5 254,-395.7 472.5,-395.7 218.5,0 361.2,177.2 318.7,395.7" /><g
         transform="scale(1.28264)"
         id="g188"><path
           id="path190"
           style="fill:#e9f3fe;fill-opacity:1;fill-rule:nonzero;stroke:none"
           d="M 16300,5366.88 H 5566.7 l -1215.52,4842.22 -93.18,371.4 -79.53,316.7 -186.41,742.7 H 14570.7 l 204.6,-742.7 87.4,-316.7 102.3,-371.4 1335,-4842.22" /></g><g
         transform="scale(1.16267)"
         id="g192"><path
           id="path194"
           style="fill:#afcdfb;fill-opacity:1;fill-rule:nonzero;stroke:none"
           d="M 16300,12021.7 H 4609.64 L 4404,12841 h 11670.2 l 225.8,-819.3" /></g><path
         id="path196"
         style="fill:#e9f3fe;fill-opacity:1;fill-rule:nonzero;stroke:none"
         d="m 5771.1,14618.4 c -65.77,0 -105.79,-53.3 -89.39,-119.1 16.4,-65.7 83,-119.1 148.77,-119.1 65.77,0 105.79,53.4 89.39,119.1 -16.39,65.8 -83,119.1 -148.77,119.1" /><path
         id="path198"
         style="fill:#e9f3fe;fill-opacity:1;fill-rule:nonzero;stroke:none"
         d="m 6166.77,14618.4 c -65.77,0 -105.79,-53.3 -89.39,-119.1 16.39,-65.7 83.01,-119.1 148.77,-119.1 65.77,0 105.79,53.4 89.39,119.1 -16.39,65.8 -83,119.1 -148.77,119.1" /><path
         id="path200"
         style="fill:#e9f3fe;fill-opacity:1;fill-rule:nonzero;stroke:none"
         d="m 6741.6,14499.3 c -16.4,65.8 -83.01,119.1 -148.77,119.1 -65.77,0 -105.79,-53.3 -89.4,-119.1 16.4,-65.7 83.01,-119.1 148.78,-119.1 65.76,0 105.79,53.4 89.39,119.1" /><g
         transform="scale(1.02106)"
         id="g202"><path
           id="path204"
           style="fill:#f1a34f;fill-opacity:1;fill-rule:nonzero;stroke:none"
           d="m 16115.2,10481.8 c -92.1,-117.8 -236.6,-182.7 -407,-182.7 -366.2,0 -738.4,298.2 -829.8,664.7 -44.5,178.5 -15.9,344.7 80.4,468.1 92.1,117.8 236.7,182.7 407.1,182.7 366.2,0 738.3,-298.2 829.7,-664.7 44.6,-178.5 16,-344.7 -80.4,-468.1 z m 135.9,482 c -97.3,390.4 -494.5,708 -885.2,708 -188.5,0 -349,-72.7 -452.2,-204.7 -107.4,-137.5 -139.7,-321.2 -90.8,-517.2 97.4,-390.4 494.5,-708 885.3,-708 188.4,0 349,72.7 452.1,204.7 107.5,137.5 139.7,321.2 90.8,517.2" /></g><path
         id="path206"
         style="fill:#f1a34f;fill-opacity:1;fill-rule:nonzero;stroke:none"
         d="m 15956,11024.4 -72.7,508.2 -5.7,23 h -204.7 l 5.8,-23 180.7,-508.2 h 96.6" /><path
         id="path208"
         style="fill:#f1a34f;fill-opacity:1;fill-rule:nonzero;stroke:none"
         d="m 15836.9,10934.7 45.9,-183.9 h 186.2 l -45.8,183.9 h -186.3" /><g
         transform="scale(1.04833)"
         id="g210"><path
           id="path212"
           style="fill:#f1a34f;fill-opacity:1;fill-rule:nonzero;stroke:none"
           d="m 16120.1,8562.42 c -89.7,-114.85 -230.6,-178 -396.5,-178 -356.6,0 -719.2,290.37 -808.2,647.42 -43.4,173.89 -15.5,335.77 78.3,455.87 89.7,114.81 230.5,178.01 396.5,178.01 356.6,0 719.2,-290.38 808.2,-647.43 43.3,-173.9 15.6,-335.77 -78.3,-455.87 z m 132.3,469.42 c -94.8,380.22 -481.5,689.6 -862.2,689.6 -183.6,0 -339.9,-70.81 -440.4,-199.39 -104.6,-133.93 -136.1,-312.88 -88.5,-503.76 94.8,-380.23 481.6,-689.58 862.3,-689.58 183.5,0 339.9,70.79 440.4,199.37 104.6,133.93 136,312.88 88.4,503.76" /></g><g
         transform="scale(1.00616)"
         id="g214"><path
           id="path216"
           style="fill:#f1a34f;fill-opacity:1;fill-rule:nonzero;stroke:none"
           d="m 16300,9241.08 -72.3,504.99 -5.6,22.86 h -203.4 l 5.7,-22.86 179.6,-504.99 h 96" /></g><g
         transform="scale(1.0131)"
         id="g218"><path
           id="path220"
           style="fill:#f1a34f;fill-opacity:1;fill-rule:nonzero;stroke:none"
           d="m 16070.8,9089.25 45.3,-181.62 h 183.9 l -45.3,181.62 h -183.9" /></g><g
         transform="scale(1.14321)"
         id="g222"><path
           id="path224"
           style="fill:#afcdfb;fill-opacity:1;fill-rule:nonzero;stroke:none"
           d="m 16236.1,9986.45 c 39.6,0 63.9,32.35 54,71.95 -9.9,39.6 -50.4,72 -89.9,72 h -1281.6 c -39.5,0 -63.8,-32.4 -54,-72 9.9,-39.6 50.4,-71.95 89.9,-71.95 h 1281.6" /></g><g
         transform="scale(1.12829)"
         id="g226"><path
           id="path228"
           style="fill:#afcdfb;fill-opacity:1;fill-rule:nonzero;stroke:none"
           d="m 16290.1,11154.3 c -10,40.1 -51.1,72.9 -91.1,72.9 h -1298.5 c -40.2,0 -64.8,-32.8 -54.8,-72.9 10,-40.1 51,-72.9 91.1,-72.9 h 1298.5 c 40.1,0 64.7,32.8 54.8,72.9" /></g><g
         transform="scale(1.14801)"
         id="g230"><path
           id="path232"
           style="fill:#afcdfb;fill-opacity:1;fill-rule:nonzero;stroke:none"
           d="m 16236.4,9671.78 c 39.4,0 63.6,32.25 53.8,71.66 -9.9,39.41 -50.1,71.66 -89.6,71.66 h -1276.2 c -39.4,0 -63.6,-32.25 -53.7,-71.66 9.8,-39.41 50,-71.66 89.5,-71.66 h 1276.2" /></g><g
         transform="scale(1.1528)"
         id="g234"><path
           id="path236"
           style="fill:#afcdfb;fill-opacity:1;fill-rule:nonzero;stroke:none"
           d="m 16290.2,9431.09 c -9.7,39.24 -49.9,71.36 -89.1,71.36 h -1270.9 c -39.3,0 -63.4,-32.12 -53.6,-71.36 9.8,-39.25 49.9,-71.36 89.2,-71.36 h 1270.9 c 39.2,0 63.3,32.11 53.5,71.36" /></g><g
         transform="scale(1.17048)"
         id="g238"><path
           id="path240"
           style="fill:#afcdfb;fill-opacity:1;fill-rule:nonzero;stroke:none"
           d="m 16237.5,8278.84 c 38.7,0 62.5,31.69 52.8,70.31 -9.6,38.61 -49.1,70.31 -87.8,70.31 h -1251.7 c -38.6,0 -62.4,-31.7 -52.7,-70.31 9.6,-38.62 49.1,-70.31 87.7,-70.31 h 1251.7" /></g><g
         transform="scale(1.17527)"
         id="g242"><path
           id="path244"
           style="fill:#afcdfb;fill-opacity:1;fill-rule:nonzero;stroke:none"
           d="m 16237.9,7978.42 c 38.4,0 62.1,31.57 52.5,70.03 -9.5,38.54 -48.9,70.03 -87.4,70.03 h -1246.6 c -38.5,0 -62.2,-31.49 -52.6,-70.03 9.6,-38.46 48.9,-70.03 87.5,-70.03 h 1246.6" /></g><g
         transform="scale(1.18006)"
         id="g246"><path
           id="path248"
           style="fill:#afcdfb;fill-opacity:1;fill-rule:nonzero;stroke:none"
           d="m 16290.5,7750.19 c -9.6,38.39 -48.8,69.74 -87.1,69.74 h -1241.5 c -38.4,0 -61.9,-31.35 -52.4,-69.74 9.6,-38.3 48.8,-69.66 87.1,-69.66 h 1241.5 c 38.4,0 61.9,31.36 52.4,69.66" /></g><g
         transform="scale(1.12497)"
         id="g250"><path
           id="path252"
           style="fill:#afcdfb;fill-opacity:1;fill-rule:nonzero;stroke:none"
           d="m 16283.4,11494.7 -91,364.6 c -16.6,66.8 -84.9,121.5 -151.8,121.5 H 5602.06 c -66.86,0 -107.92,-54.7 -91.25,-121.5 l 90.9,-364.6 c 16.67,-66.9 85,-121.6 151.87,-121.6 H 16192.1 c 66.8,0 107.9,54.7 91.3,121.6" /></g><path
         id="path254"
         style="fill:#f1a34f;fill-opacity:1;fill-rule:nonzero;stroke:none"
         d="m 14626.6,13478.1 170.4,-683.7 H 6472.6 c -75.22,0 -152.1,61.6 -170.85,136.8 l -102.26,410.1 c -18.75,75.2 27.44,136.8 102.65,136.8 h 8324.46" /><g
         transform="scale(1.00199)"
         id="g256"><path
           id="path258"
           style="fill:#699dee;fill-opacity:1;fill-rule:nonzero;stroke:none"
           d="m 16090,13235.7 13.1,-52.5 h 129.6 l -67.6,-223.4 h 68.5 l 66.4,230.1 -11.4,45.8 H 16090" /></g><g
         transform="scale(1.02175)"
         id="g260"><path
           id="path262"
           style="fill:#699dee;fill-opacity:1;fill-rule:nonzero;stroke:none"
           d="m 16182.2,12758.1 c -36.1,0 -68.7,36.8 -81.1,86.2 -12.5,50.3 1.7,86.2 37.2,86.2 35.6,0 68.8,-37.1 81.1,-86.2 12.4,-49.8 -1.3,-86.2 -37.2,-86.2 z m -56.4,226.1 c -71.9,0 -105.3,-61.4 -85.7,-139.9 19.7,-79.2 82.4,-139.9 154.7,-139.9 72.2,0 105.2,61.5 85.6,139.9 -19.7,79.3 -83.2,139.9 -154.6,139.9" /></g><g
         transform="scale(1.04335)"
         id="g264"><path
           id="path266"
           style="fill:#699dee;fill-opacity:1;fill-rule:nonzero;stroke:none"
           d="m 16235.1,12477.4 c -15.1,0 -28.8,15.5 -33.3,33.3 -4.5,18.2 0.1,33.3 15.9,33.3 15.1,0 28.8,-15.5 33.3,-33.3 4.4,-17.8 -0.1,-33.3 -15.9,-33.3 z m 55.6,33.3 c -9.4,37.9 -42.6,67.8 -80.8,67.8 -38.6,0 -57.2,-30.3 -47.8,-67.8 9.4,-37.8 42.5,-67.7 80.8,-67.7 38.6,0 57.1,30.6 47.8,67.7" /></g><g
         transform="scale(1.03786)"
         id="g268"><path
           id="path270"
           style="fill:#699dee;fill-opacity:1;fill-rule:nonzero;stroke:none"
           d="m 16254.7,12778.1 -128,-266.3 h 45.3 l 128,266.3 h -45.3" /></g><g
         transform="scale(1.03077)"
         id="g272"><path
           id="path274"
           style="fill:#699dee;fill-opacity:1;fill-rule:nonzero;stroke:none"
           d="m 16200.7,12800.6 c -4.7,18.4 0,33.7 16.1,33.7 15.3,0 29.2,-15.7 33.6,-33.7 4.5,-18 0,-33.7 -16.1,-33.7 -15.3,0 -29.2,15.7 -33.6,33.7 z m 90,0 c -9.6,38.3 -43.2,68.6 -81.9,68.6 -39.1,0 -57.8,-30.7 -48.4,-68.6 9.6,-38.3 43.2,-68.6 81.9,-68.6 39.1,0 57.7,31.1 48.4,68.6" /></g><path
         id="path276"
         style="fill:#afcdfb;fill-opacity:1;fill-rule:nonzero;stroke:none"
         d="m 14076.4,9831.4 c 85.4,0 137.3,69.1 116,154.4 -21.3,85.3 -107.7,154.5 -193,154.5 H 7152.07 c -85.32,0 -137.23,-69.2 -115.96,-154.5 21.27,-85.3 107.67,-154.4 192.98,-154.4 h 6847.31" /><path
         id="path278"
         style="fill:#afcdfb;fill-opacity:1;fill-rule:nonzero;stroke:none"
         d="m 14204.3,9318.5 c 85.3,0 137.2,69.2 116,154.5 -21.3,85.3 -107.7,154.5 -193,154.5 H 7279.93 c -85.32,0 -137.23,-69.2 -115.96,-154.5 21.27,-85.3 107.67,-154.5 192.98,-154.5 h 6847.35" /><path
         id="path280"
         style="fill:#afcdfb;fill-opacity:1;fill-rule:nonzero;stroke:none"
         d="m 14453.8,8937.4 c -21.3,85.3 -107.7,154.5 -193,154.5 H 7413.47 c -85.31,0 -137.23,-69.2 -115.96,-154.5 21.27,-85.3 107.68,-154.5 192.98,-154.5 h 6847.41 c 85.3,0 137.2,69.2 115.9,154.5" /><path
         id="path282"
         style="fill:#afcdfb;fill-opacity:1;fill-rule:nonzero;stroke:none"
         d="m 10329.4,10664.9 c 26.7,-107.2 135.3,-194.1 242.6,-194.1 h 763.7 c 107.2,0 172.5,86.9 145.7,194.1 l -369.1,1480.7 c -26.8,107.2 -135.4,194.1 -242.6,194.1 H 10106 c -107.25,0 -172.49,-86.9 -145.76,-194.1 l 369.16,-1480.7" /><path
         id="path284"
         style="fill:#afcdfb;fill-opacity:1;fill-rule:nonzero;stroke:none"
         d="m 11651.3,10664.9 c 26.7,-107.2 135.3,-194.1 242.5,-194.1 h 763.8 c 107.2,0 172.4,86.9 145.7,194.1 l -369.2,1480.7 c -26.7,107.2 -135.3,194.1 -242.5,194.1 h -763.8 c -107.2,0 -172.4,-86.9 -145.7,-194.1 l 369.2,-1480.7" /><path
         id="path286"
         style="fill:#afcdfb;fill-opacity:1;fill-rule:nonzero;stroke:none"
         d="m 12948.5,10664.9 c 26.7,-107.2 135.3,-194.1 242.5,-194.1 h 763.7 c 107.3,0 172.5,86.9 145.8,194.1 l -369.2,1480.7 c -26.7,107.2 -135.3,194.1 -242.5,194.1 H 12725 c -107.2,0 -172.5,-86.9 -145.7,-194.1 l 369.2,-1480.7" /><path
         id="path288"
         style="fill:#afcdfb;fill-opacity:1;fill-rule:nonzero;stroke:none"
         d="m 10070.5,10796.2 -303.68,1218.1 c -44.81,179.7 -226.83,325.4 -406.55,325.4 H 6774.63 c -179.72,0 -289.09,-145.7 -244.28,-325.4 l 303.71,-1218.1 c 44.81,-179.7 226.83,-325.4 406.56,-325.4 h 2585.63 c 179.75,0 289.05,145.7 244.25,325.4" /><path
         id="path290"
         style="fill:#699dee;fill-opacity:1;fill-rule:nonzero;stroke:none"
         d="m 9327.65,11872.5 c 40.74,0 65.76,33.3 55.6,74.1 v 0 c -10.15,40.7 -51.8,74 -92.54,74 H 6874.76 c -40.75,0 -65.77,-33.3 -55.61,-74 v 0 c 10.16,-40.8 51.8,-74.1 92.54,-74.1 h 2415.96" /><path
         id="path292"
         style="fill:#699dee;fill-opacity:1;fill-rule:nonzero;stroke:none"
         d="m 9398.68,11587.6 c 40.74,0 65.76,33.3 55.61,74.1 -10.16,40.7 -51.8,74 -92.55,74 H 6945.79 c -40.74,0 -65.77,-33.3 -55.6,-74 10.15,-40.8 51.8,-74.1 92.53,-74.1 h 2415.96" /><path
         id="path294"
         style="fill:#699dee;fill-opacity:1;fill-rule:nonzero;stroke:none"
         d="m 9525.32,11376.8 c -10.15,40.7 -51.8,74 -92.54,74 H 7016.82 c -40.74,0 -65.76,-33.3 -55.6,-74 10.16,-40.8 51.8,-74.1 92.54,-74.1 h 2415.96 c 40.74,0 65.76,33.3 55.6,74.1" /><path
         id="path296"
         style="fill:#699dee;fill-opacity:1;fill-rule:nonzero;stroke:none"
         d="m 7666.36,11131.8 h -569.98 c -40.74,0 -65.76,-33.4 -55.6,-74.1 10.15,-40.8 51.8,-74.1 92.54,-74.1 h 569.98 c 40.74,0 65.76,33.3 55.6,74.1 -10.15,40.7 -51.8,74.1 -92.54,74.1" /><g
         transform="scale(1.23729)"
         id="g298"><path
           id="path300"
           style="fill:#afcdfb;fill-opacity:1;fill-rule:nonzero;stroke:none"
           d="m 16281,6097.09 -128.7,516.37 c -19,76.22 -96.2,137.96 -172.4,137.96 h -1096.1 c -76.3,0 -122.6,-61.74 -103.6,-137.96 l 128.8,-516.37 c 19,-76.21 96.2,-137.96 172.3,-137.96 h 1096.2 c 76.2,0 122.5,61.75 103.5,137.96" /></g><g
         transform="scale(1.21407)"
         id="g302"><path
           id="path304"
           style="fill:#699dee;fill-opacity:1;fill-rule:nonzero;stroke:none"
           d="m 16271.6,6678.7 c 17.5,0 28.4,14.42 24,32.05 -4.4,17.62 -22.4,31.96 -40,31.96 h -1043.8 c -17.6,0 -28.5,-14.34 -24,-31.96 4.4,-17.63 22.3,-32.05 39.9,-32.05 h 1043.9" /></g><g
         transform="scale(1.21635)"
         id="g306"><path
           id="path308"
           style="fill:#699dee;fill-opacity:1;fill-rule:nonzero;stroke:none"
           d="m 16271.6,6543.35 c 17.6,0 28.4,14.39 24,31.9 -4.3,17.59 -22.3,31.98 -39.9,31.98 h -1041.8 c -17.6,0 -28.4,-14.39 -24,-31.98 4.4,-17.51 22.3,-31.9 39.9,-31.9 h 1041.8" /></g><g
         transform="scale(1.21864)"
         id="g310"><path
           id="path312"
           style="fill:#699dee;fill-opacity:1;fill-rule:nonzero;stroke:none"
           d="m 16295.6,6440.3 c -4.4,17.57 -22.3,31.93 -39.8,31.93 h -1039.9 c -17.5,0 -28.3,-14.36 -23.9,-31.93 4.3,-17.56 22.3,-31.83 39.8,-31.83 h 1039.9 c 17.5,0 28.3,14.27 23.9,31.83" /></g><g
         transform="scale(1.16179)"
         id="g314"><path
           id="path316"
           style="fill:#699dee;fill-opacity:1;fill-rule:nonzero;stroke:none"
           d="m 16253.7,6644.83 h -257.4 c -18.4,0 -29.7,-15.07 -25.1,-33.49 4.6,-18.33 23.4,-33.4 41.8,-33.4 h 257.3 c 18.4,0 29.7,15.07 25.1,33.4 -4.5,18.42 -23.4,33.49 -41.7,33.49" /></g><path
         id="path318"
         style="fill:#f1a34f;fill-opacity:1;fill-rule:nonzero;stroke:none"
         d="m 10739.9,8011.4 c 32.2,0 51.7,26.1 43.7,58.3 -8,32.2 -40.6,58.2 -72.8,58.2 H 8128.05 c -32.18,0 -51.76,-26 -43.73,-58.2 8.02,-32.2 40.61,-58.3 72.78,-58.3 h 2582.8" /><path
         id="path320"
         style="fill:#f1a34f;fill-opacity:1;fill-rule:nonzero;stroke:none"
         d="m 10788.1,7818 c 32.2,0 51.8,26.1 43.8,58.2 -8.1,32.2 -40.7,58.3 -72.8,58.3 H 8176.28 c -32.18,0 -51.76,-26.1 -43.74,-58.3 8.03,-32.1 40.61,-58.2 72.79,-58.2 h 2582.77" /><path
         id="path322"
         style="fill:#f1a34f;fill-opacity:1;fill-rule:nonzero;stroke:none"
         d="M 10809.4,7732.5 H 8226.65 c -32.18,0 -51.76,-26.1 -43.73,-58.3 8.02,-32.2 40.61,-58.2 72.79,-58.2 h 2582.79 c 32.2,0 51.7,26 43.7,58.2 -8,32.2 -40.6,58.3 -72.8,58.3" /><path
         id="path324"
         style="fill:#f1a34f;fill-opacity:1;fill-rule:nonzero;stroke:none"
         d="m 14073.1,8011.4 c 32.1,0 51.7,26.1 43.7,58.3 -8,32.2 -40.6,58.2 -72.8,58.2 h -2582.8 c -32.2,0 -51.7,-26 -43.7,-58.2 8,-32.2 40.6,-58.3 72.8,-58.3 h 2582.8" /><path
         id="path326"
         style="fill:#f1a34f;fill-opacity:1;fill-rule:nonzero;stroke:none"
         d="m 14121.3,7818 c 32.2,0 51.7,26.1 43.7,58.2 -8,32.2 -40.6,58.3 -72.8,58.3 h -2582.8 c -32.1,0 -51.7,-26.1 -43.7,-58.3 8,-32.1 40.6,-58.2 72.8,-58.2 h 2582.8" /><path
         id="path328"
         style="fill:#f1a34f;fill-opacity:1;fill-rule:nonzero;stroke:none"
         d="m 14142.6,7732.5 h -2582.8 c -32.2,0 -51.7,-26.1 -43.7,-58.3 8,-32.2 40.6,-58.2 72.8,-58.2 h 2582.8 c 32.1,0 51.7,26 43.7,58.2 -8,32.2 -40.6,58.3 -72.8,58.3" /><g
         transform="scale(1.06475)"
         id="g330"><path
           id="path332"
           style="fill:#f1a34f;fill-opacity:1;fill-rule:nonzero;stroke:none"
           d="m 16251.4,7524.22 c 30.2,0 48.6,24.51 41.1,54.75 -7.5,30.24 -38.1,54.66 -68.4,54.66 h -2425.7 c -30.3,0 -48.6,-24.42 -41.1,-54.66 7.5,-30.24 38.2,-54.75 68.4,-54.75 h 2425.7" /></g><g
         transform="scale(1.06771)"
         id="g334"><path
           id="path336"
           style="fill:#f1a34f;fill-opacity:1;fill-rule:nonzero;stroke:none"
           d="m 16251.5,7322.2 c 30.1,0 48.5,24.45 40.9,54.51 -7.5,30.16 -38,54.6 -68.2,54.6 h -2418.9 c -30.1,0 -48.5,-24.44 -41,-54.6 7.5,-30.06 38,-54.51 68.2,-54.51 h 2419" /></g><g
         transform="scale(1.0708)"
         id="g338"><path
           id="path340"
           style="fill:#f1a34f;fill-opacity:1;fill-rule:nonzero;stroke:none"
           d="m 16292.5,7166.81 c -7.4,30.07 -37.9,54.44 -68,54.44 h -2412 c -30,0 -48.3,-24.37 -40.8,-54.44 7.5,-30.07 37.9,-54.35 68,-54.35 h 2412 c 30,0 48.3,24.28 40.8,54.35" /></g><g
         transform="scale(1.10969)"
         id="g342"><path
           id="path344"
           style="fill:#f1a34f;fill-opacity:1;fill-rule:nonzero;stroke:none"
           d="m 6955.5,7530.1 c -23.81,0 -43.79,-8.83 -56.26,-24.78 -13.26,-16.94 -17.07,-40.28 -10.72,-65.79 l 179.23,-718.84 c 13.96,-55.96 72.77,-103.28 128.43,-103.28 h 8975.62 c 23.8,0 43.8,8.84 56.2,24.79 13.2,16.94 17,40.28 10.7,65.78 l -179.2,718.85 c -14,55.96 -72.8,103.27 -128.4,103.27 z m 9216.3,-965.31 H 7196.18 c -79.3,0 -159.81,64.25 -179.49,143.19 l -179.23,718.85 c -10.21,40.91 -2.8,81.37 20.3,110.93 22.67,29.02 57.38,44.97 97.74,44.97 h 8975.6 c 79.3,0 159.7,-64.26 179.5,-143.2 l 179.2,-718.84 c 10.2,-40.92 2.8,-81.38 -20.3,-110.93 -22.7,-29.02 -57.4,-44.97 -97.7,-44.97" /></g><g
         transform="scale(1.04382)"
         id="g346"><path
           id="path348"
           style="fill:#afcdfb;fill-opacity:1;fill-rule:nonzero;stroke:none"
           d="m 7724.87,15902.5 c -1.5,10.8 -11.41,18.2 -22.17,16.8 l -213.96,-30 c -7.64,68 -46.01,131.7 -109.36,168.5 l -12.95,7.5 c -66.16,38.5 -144.39,38.6 -208.9,7.7 l -84.53,212 c -4.03,10.1 -15.48,15 -25.52,11 -10.07,-4 -14.98,-15.4 -10.97,-25.5 l 86.86,-217.9 c -13.7,-9.8 -26.48,-21.2 -37.81,-34.3 -8.99,-10.3 -17.07,-21.6 -24.14,-33.8 l -23.52,-40.5 c -111.01,64.5 -193.78,112.5 -196.69,114.2 -9.39,5.5 -21.39,2.3 -26.84,-7.1 -5.44,-9.4 -2.25,-21.4 7.13,-26.8 2.91,-1.7 85.67,-49.8 196.67,-114.3 l -13.34,-22.9 c -12.78,-22 -21.26,-45.3 -25.87,-69.1 l -268.92,-37.6 c -10.74,-1.5 -18.23,-11.4 -16.73,-22.1 1.38,-9.8 9.79,-16.9 19.43,-16.9 0.9,0 1.81,0 2.74,0.2 l 259.41,36.2 c -0.77,-77.8 39.06,-154.1 110.81,-195.8 l 12.95,-7.5 c 68.93,-40 150.95,-38.7 216.88,-3.8 l 92.23,-231.3 c 3.06,-7.6 10.44,-12.3 18.24,-12.3 2.42,0 4.88,0.4 7.27,1.4 10.07,4 14.97,15.4 10.96,25.5 l -95.13,238.6 c 21.43,16.8 40.1,37.9 54.58,62.8 l 13.34,23 c 112.97,-65.7 196.69,-114.3 196.69,-114.3 3.11,-1.8 6.5,-2.6 9.85,-2.6 6.77,0 13.36,3.5 17,9.7 5.45,9.4 2.26,21.4 -7.12,26.9 0,0 -83.72,48.6 -196.69,114.2 l 23.51,40.5 c 7.09,12.2 12.91,24.8 17.43,37.7 6.85,19.4 10.74,39.4 12.04,59.3 l 218.42,30.6 c 10.73,1.5 18.23,11.4 16.72,22.1" /></g><g
         transform="scale(1.02578)"
         id="g350"><path
           id="path352"
           style="fill:#e57970;fill-opacity:1;fill-rule:nonzero;stroke:none"
           d="m 7591.47,16029.9 -57.58,-99.2 c -62.73,-108 -202.38,-145 -310.39,-82.3 l -13.18,7.7 c -107.95,62.7 -145.03,202.4 -82.29,310.4 l 57.58,99.1 c 7.2,12.4 15.42,23.9 24.57,34.4 l 399.03,-231.8 c -4.6,-13.1 -10.52,-25.9 -17.74,-38.3" /></g><path
         id="path354"
         style="fill:#afcdfb;fill-opacity:1;fill-rule:nonzero;stroke:none"
         d="m 3381.38,13923.6 -257.93,73.2 c -0.32,28.4 -5.82,57.3 -17.22,85.1 l -10.51,25.7 219.71,90 c 10.48,4.3 15.49,16.2 11.2,26.7 -4.29,10.5 -16.24,15.5 -26.73,11.2 l -219.72,-90 -18.52,45.2 c -5.58,13.6 -12.31,26.5 -20.08,38.4 -11.7,18 -25.73,34 -41.43,47.8 l 113.76,200.1 c 5.59,9.8 2.14,22.3 -7.69,27.9 -9.85,5.6 -22.36,2.2 -27.95,-7.7 l -111.44,-196 c -61.08,36.9 -138.23,45.7 -208.99,16.8 l -14.47,-6 c -73.91,-30.2 -123.85,-94.8 -139.3,-167.9 l -229.22,65 c -10.89,3.1 -22.22,-3.2 -25.31,-14.1 -3.09,-10.9 3.23,-22.2 14.13,-25.3 l 235.49,-66.8 c -0.53,-17.7 0.75,-35.5 4.38,-53.2 2.79,-14 7,-27.8 12.58,-41.5 l 18.53,-45.2 -219.7,-90 c -10.48,-4.3 -15.49,-16.3 -11.2,-26.7 3.25,-8 10.9,-12.8 18.97,-12.8 2.59,0 5.22,0.5 7.76,1.6 l 219.71,90 10.51,-25.7 c 10.05,-24.6 23.94,-46.4 40.61,-65.3 l -140.06,-246.4 c -5.59,-9.9 -2.14,-22.4 7.7,-28 3.19,-1.8 6.67,-2.6 10.1,-2.6 7.14,0 14.07,3.7 17.84,10.3 l 135.11,237.7 c 63.91,-50.2 152.37,-65.8 232.52,-32.9 l 14.46,5.9 c 77,31.5 128.1,100.2 141.19,177 l 250.03,-70.9 c 1.87,-0.6 3.75,-0.8 5.6,-0.8 8.94,0 17.15,5.9 19.71,14.9 3.09,10.9 -3.23,22.2 -14.13,25.3" /><path
         id="path356"
         style="fill:#e57970;fill-opacity:1;fill-rule:nonzero;stroke:none"
         d="m 3061.66,14190.7 44.57,-108.8 c 48.56,-118.6 -8.68,-255.3 -127.25,-303.8 l -14.46,-5.9 c -118.51,-48.6 -255.26,8.6 -303.82,127.2 l -44.58,108.8 c -5.58,13.7 -9.8,27.5 -12.58,41.5 l 438.04,179.4 c 7.77,-11.9 14.49,-24.8 20.08,-38.4" /><path
         id="path358"
         style="fill:#588fe0;fill-opacity:1;fill-rule:nonzero;stroke:none"
         d="m 5968.84,6561.2 c -1.63,-1.1 -3.47,-2.6 -5.73,-4.3 -85.92,-65.8 -669.97,-464.1 -1982.07,-287.7 -8.96,-50.4 -17.31,-100.5 -25.15,-149.8 -3.93,-24.7 -7.84,-49.3 -11.45,-73.7 -3.69,-24.1 -7.23,-48.1 -10.62,-72 l -0.23,-1.3 c -3.41,-24 -6.78,-47.8 -9.9,-71.6 -3.25,-23.8 -6.34,-47.5 -9.31,-71.3 -3.05,-23.4 -5.8,-46.6 -8.55,-69.9 l -0.2,-1.1 c -2.61,-23.2 -5.31,-46.2 -7.74,-69.1 -2.58,-23 -4.89,-45.9 -7.19,-68.8 -2.28,-22.8 -4.54,-45.5 -6.52,-68.1 -2.09,-22.5 -4.05,-44.9 -5.86,-67.3 -1.37,-16.3 -2.72,-32.5 -3.94,-48.7 -1.11,-13.4 -2.09,-26.8 -2.92,-40.1 -0.86,-11.3 -1.6,-22.6 -2.33,-34 -0.42,-5.9 -0.83,-11.8 -1.13,-17.8 -1.19,-18.9 -2.37,-37.8 -3.42,-56.6 -1.14,-20.1 -2.16,-40.3 -3.16,-60.3 -0.18,-3.9 -0.34,-7.7 -0.51,-11.6 -0.62,-15 -1.34,-29.9 -1.92,-44.6 -0.42,-11.8 -0.95,-23.4 -1.23,-35.1 -1.3,-37.6 -2.22,-74.6 -2.85,-111.4 -0.3,-16.9 -0.58,-33.7 -0.72,-50.4 -0.17,-19.8 -0.3,-39.3 -0.28,-58.7 -0.02,-1.6 -0.01,-3 -0.03,-4.6 0.08,-19.1 0.07,-38 0.33,-56.8 0.05,-15.7 0.25,-31.2 0.59,-46.7 0.08,-13.3 0.44,-26.5 0.82,-39.6 0.09,-4.6 0.15,-9.3 0.24,-13.9 0.39,-13.8 0.8,-27.4 1.22,-41 0.48,-14.7 1.01,-29.2 1.54,-43.6 0.7,-15.7 1.43,-31.2 2.18,-46.6 0.77,-18.1 1.72,-36 2.8,-53.9 0.1,-1.6 0.18,-3.3 0.29,-4.9 1,-17.7 2.16,-35.1 3.33,-52.5 1.26,-18.4 2.54,-36.6 3.99,-54.6 1.43,-18.1 2.89,-36.1 4.51,-53.9 1.48,-17.9 3.1,-35.7 4.9,-53.2 1.66,-16.9 3.36,-33.5 5.2,-50.1 0.16,-2 0.45,-4 0.61,-6 1.78,-16.2 3.59,-32.2 5.54,-48.2 2.03,-16.9 4.09,-33.7 6.28,-50.6 l 0.15,-1.3 c 2.23,-16.6 4.34,-33.1 6.72,-49.6 2.25,-16.4 4.64,-32.9 7.17,-49.3 l 0.15,-1.3 c 2.47,-16 4.97,-31.8 7.46,-47.6 l 0.11,-0.8 c 2.58,-16.2 5.33,-32 8.08,-47.9 2.72,-16 5.6,-32 8.49,-47.7 3.55,-19.4 7.14,-38.6 10.88,-57.7 2.42,-11.9 4.71,-23.8 7.15,-35.6 3.06,-14.9 6.16,-29.5 9.29,-44 0.44,-1.9 0.88,-3.8 1.31,-5.7 2.89,-13.7 6.02,-27.5 9.07,-40.9 3.31,-15 6.79,-29.7 10.4,-44.4 7.2,-30.3 14.62,-60 22.39,-89.3 3.45,-13.5 7.08,-26.6 10.7,-39.8 3.77,-13.9 7.58,-27.5 11.52,-41.1 2.76,-10 5.67,-19.9 8.58,-29.8 2.78,-9.9 5.74,-19.6 8.8,-29.4 2.26,-7.7 4.67,-15.3 7.06,-23 4.11,-13.4 8.24,-26.7 12.4,-39.8 8.56,-26.3 17.32,-52.3 26.15,-77.9 4.35,-12.8 8.84,-25.5 13.36,-38 4.53,-12.6 9.05,-25.1 13.61,-37.4 12.56,-33.8 25.38,-66.9 38.6,-99.3 3.86,-9.7 7.87,-19.3 11.88,-28.9 5.73,-13.8 11.48,-27.5 17.38,-41.1 4.61,-10.6 9.22,-21.2 13.98,-31.7 25.34,-57 51.49,-111.7 78.23,-163.8 5.31,-10.4 10.54,-20.4 15.89,-30.5 12.65,-24 25.39,-47.4 38.32,-70.4 4.41,-8.1 9.09,-16.2 13.65,-24.2 4.28,-7.4 8.55,-14.8 12.84,-22.1 4.98,-8.6 9.98,-17.1 14.86,-25.4 11.56,-19.1 23.04,-37.9 34.72,-56.3 3.93,-6.4 8.01,-12.8 11.98,-19 12.61,-19.7 25.32,-39 38.1,-57.8 4.51,-6.9 9.04,-13.5 13.6,-20.1 29.97,-43.6 59.89,-84.6 89.84,-123.2 5.49,-7.2 11.12,-14.3 16.65,-21.3 28.9,-36.5 57.52,-70.9 85.77,-103.1 8.98,-10.2 17.99,-20.3 26.91,-30.2 0.77,-0.7 1.54,-1.5 2.29,-2.4 5.35,-5.8 10.68,-11.8 16.05,-17.4 31.98,-34.6 63.31,-66.3 93.55,-95.4 5,-4.8 10.01,-9.6 15.03,-14.3 9.9,-9.5 19.74,-18.5 29.51,-27.3 9.3,-8.5 18.39,-16.7 27.28,-24.5 l 1.35,-1.2 c 8.92,-7.7 17.6,-15.3 26.07,-22.5 14.72,-12.5 29.02,-24.3 42.8,-35.4 3.89,-3 7.65,-6.1 11.54,-9.1 25.1,-19.9 48.55,-37.5 70.04,-52.8 6.49,-4.6 12.84,-9.1 18.87,-13.3 17.98,-12.4 34.3,-23.2 48.6,-32.1 4.31,-2.9 8.42,-5.4 12.41,-7.9 8.82,-5.3 16.56,-10.1 23.41,-14.1 1.53,-0.9 3.08,-1.7 4.51,-2.5 1.53,-0.9 2.93,-1.8 4.36,-2.6 15.83,-9.1 24.47,-13.3 24.47,-13.3 83.82,27.3 165.02,57.4 243.59,90.4 496.24,207.7 888.75,523.1 1199.37,888.5 0.83,1 1.65,1.9 2.36,3 668.58,788.1 956.07,1808 1078.85,2483.3 13.47,74.8 25.13,145.3 34.98,210.8 -1318.92,300.1 -1713.6,897.5 -1754.9,965.8" /><path
         id="path360"
         style="fill:#afcdfb;fill-opacity:1;fill-rule:nonzero;stroke:none"
         d="m 7499.81,5283.8 c -111.93,-615.6 -374.03,-1545.5 -983.55,-2264 -0.65,-0.9 -1.39,-1.7 -2.15,-2.7 -283.19,-333.2 -641.02,-620.7 -1093.42,-810 -71.64,-30.1 -145.66,-57.5 -222.08,-82.4 0,0 -7.88,3.8 -22.31,12.1 -1.3,0.7 -2.58,1.5 -3.98,2.4 -1.29,0.7 -2.71,1.4 -4.1,2.3 -6.25,3.6 -13.31,8 -21.34,12.9 -3.65,2.2 -7.39,4.5 -11.32,7.1 -13.03,8.2 -27.91,18 -44.31,29.3 -5.49,3.8 -11.29,7.9 -17.2,12.1 -19.59,14 -40.97,30 -63.86,48.1 -3.54,2.8 -6.97,5.6 -10.51,8.3 -12.57,10.1 -25.61,20.9 -39.03,32.3 -7.72,6.6 -15.63,13.5 -23.76,20.5 l -1.23,1.1 c -8.11,7.2 -16.4,14.6 -24.88,22.3 -8.9,8 -17.87,16.3 -26.9,24.9 -4.58,4.3 -9.14,8.7 -13.7,13.1 -27.57,26.5 -56.13,55.4 -85.29,86.9 -4.89,5.2 -9.75,10.6 -14.63,15.9 l -2.08,2.2 c -8.14,9 -16.35,18.2 -24.54,27.5 -25.74,29.4 -51.85,60.7 -78.2,94 -5.03,6.4 -10.16,12.9 -15.18,19.4 -27.3,35.2 -54.58,72.6 -81.9,112.4 -4.15,6 -8.28,12 -12.4,18.3 -11.64,17.1 -23.23,34.7 -34.73,52.7 -3.62,5.6 -7.33,11.4 -10.91,17.3 -10.66,16.8 -21.13,33.9 -31.66,51.4 -4.46,7.5 -9.01,15.3 -13.55,23.1 -3.91,6.6 -7.81,13.4 -11.7,20.2 -4.16,7.3 -8.43,14.6 -12.45,22 -11.79,21 -23.4,42.3 -34.93,64.1 -4.89,9.3 -9.65,18.4 -14.49,27.9 -24.38,47.5 -48.22,97.4 -71.32,149.3 -4.34,9.6 -8.54,19.3 -12.74,28.9 -5.39,12.4 -10.63,24.9 -15.85,37.5 -3.66,8.7 -7.31,17.5 -10.84,26.3 -12.04,29.5 -23.73,59.7 -35.18,90.5 -4.16,11.2 -8.29,22.7 -12.41,34.1 -4.12,11.5 -8.22,23 -12.18,34.7 -8.05,23.3 -16.03,47 -23.84,71 -3.79,12 -7.56,24.1 -11.3,36.3 -2.18,7 -4.38,14 -6.44,21 -2.79,8.9 -5.48,17.7 -8.02,26.8 -2.66,9 -5.31,18 -7.83,27.2 -3.59,12.4 -7.06,24.8 -10.49,37.4 -3.31,12 -6.62,24 -9.77,36.3 -7.08,26.7 -13.84,53.8 -20.41,81.4 -3.29,13.4 -6.46,26.8 -9.47,40.5 -2.79,12.2 -5.65,24.8 -8.27,37.2 -0.4,1.8 -0.8,3.5 -1.21,5.2 -2.84,13.3 -5.67,26.6 -8.46,40.2 -2.22,10.8 -4.31,21.6 -6.52,32.5 -3.41,17.3 -6.68,34.8 -9.91,52.5 -2.64,14.4 -5.27,28.9 -7.75,43.5 -2.5,14.5 -5.01,29 -7.36,43.7 l -0.1,0.7 c -2.28,14.4 -4.55,28.9 -6.8,43.4 l -0.15,1.2 c -2.3,15 -4.47,30 -6.53,45 -2.17,15 -4.09,30.1 -6.12,45.2 l -0.14,1.2 c -1.99,15.3 -3.87,30.7 -5.73,46.1 -1.77,14.6 -3.43,29.1 -5.05,44 -0.14,1.8 -0.41,3.6 -0.56,5.4 -1.67,15.2 -3.22,30.3 -4.73,45.7 -1.64,16 -3.12,32.2 -4.47,48.5 -1.48,16.2 -2.8,32.6 -4.11,49.1 -1.33,16.4 -2.49,33 -3.64,49.8 -1.06,15.8 -2.13,31.7 -3.03,47.8 -0.1,1.5 -0.18,3 -0.27,4.5 -0.98,16.3 -1.85,32.6 -2.55,49.2 -0.69,14 -1.35,28.2 -1.99,42.4 -0.49,13.2 -0.97,26.4 -1.41,39.8 -0.37,12.4 -0.75,24.8 -1.11,37.4 -0.07,4.2 -0.14,8.4 -0.22,12.6 -0.34,12 -0.67,24 -0.74,36.2 -0.32,14.1 -0.5,28.2 -0.54,42.5 -0.24,17.2 -0.23,34.4 -0.31,51.8 0.02,1.4 0.02,2.7 0.04,4.2 -0.02,17.7 0.1,35.5 0.25,53.5 0.13,15.2 0.38,30.5 0.66,45.9 0.57,33.6 1.42,67.3 2.59,101.6 0.26,10.6 0.74,21.3 1.13,32 0.52,13.5 1.18,27 1.74,40.7 0.16,3.5 0.31,7 0.47,10.5 0.91,18.3 1.84,36.7 2.89,55 0.95,17.2 2.02,34.4 3.12,51.7 0.26,5.4 0.64,10.8 1.02,16.2 0.67,10.3 1.34,20.7 2.13,31 0.75,12.1 1.65,24.3 2.65,36.5 1.12,14.8 2.35,29.5 3.6,44.4 1.65,20.4 3.44,40.9 5.34,61.3 1.81,20.7 3.87,41.3 5.95,62.1 2.1,20.9 4.2,41.8 6.55,62.8 2.22,20.9 4.68,41.8 7.05,62.9 l 0.19,1.1 c 2.5,21.2 5.01,42.4 7.79,63.7 2.71,21.7 5.53,43.3 8.49,65 2.84,21.7 5.91,43.4 9.03,65.3 l 0.2,1.1 c 3.1,21.8 6.33,43.7 9.69,65.7 3.29,22.2 6.86,44.7 10.44,67.2 7.15,45 14.76,90.6 22.92,136.5 1196.21,-160.8 1728.66,202.4 1807,262.4 2.06,1.5 3.73,2.8 5.22,3.9 37.65,-62.3 397.47,-606.9 1599.88,-880.5 -8.98,-59.7 -19.61,-124.1 -31.89,-192.2" /><path
         id="path362"
         style="fill:#699dee;fill-opacity:1;fill-rule:nonzero;stroke:none"
         d="m 5937,6360.8 -760.7,-4224 c -7.87,4.5 -17.76,10.3 -29.42,17.6 -3.65,2.2 -7.39,4.5 -11.32,7.1 -13.03,8.2 -27.91,18 -44.31,29.3 -5.49,3.8 -11.29,7.9 -17.2,12.1 -19.59,14 -40.97,30 -63.86,48.1 -3.54,2.8 -6.97,5.6 -10.51,8.3 -12.57,10.1 -25.61,20.9 -39.03,32.3 -7.72,6.6 -15.63,13.5 -23.76,20.5 l -1.23,1.1 c -8.11,7.2 -16.4,14.6 -24.88,22.3 -8.9,8 -17.87,16.3 -26.9,24.9 -4.58,4.3 -9.14,8.7 -13.7,13.1 -27.57,26.5 -56.13,55.4 -85.29,86.9 -4.89,5.2 -9.75,10.6 -14.63,15.9 l -2.08,2.2 c -8.14,9 -16.35,18.2 -24.54,27.5 -25.74,29.4 -51.85,60.7 -78.2,94 -5.03,6.4 -10.16,12.9 -15.18,19.4 -27.3,35.2 -54.58,72.6 -81.9,112.4 -4.15,6 -8.28,12 -12.4,18.3 -11.64,17.1 -23.23,34.7 -34.73,52.7 -3.62,5.6 -7.33,11.4 -10.91,17.3 -10.66,16.8 -21.13,33.9 -31.66,51.4 -4.46,7.5 -9.01,15.3 -13.55,23.1 -3.91,6.6 -7.81,13.4 -11.7,20.2 -4.16,7.3 -8.43,14.6 -12.45,22 -11.79,21 -23.4,42.3 -34.93,64.1 -4.89,9.3 -9.65,18.4 -14.49,27.9 -24.38,47.5 -48.22,97.4 -71.32,149.3 -4.34,9.6 -8.54,19.3 -12.74,28.9 -5.39,12.4 -10.63,24.9 -15.85,37.5 -3.66,8.7 -7.31,17.5 -10.84,26.3 -12.04,29.5 -23.73,59.7 -35.18,90.5 -4.16,11.2 -8.29,22.7 -12.41,34.1 -4.12,11.5 -8.22,23 -12.18,34.7 -8.05,23.3 -16.03,47 -23.84,71 -3.79,12 -7.56,24.1 -11.3,36.3 -2.18,7 -4.38,14 -6.44,21 -2.79,8.9 -5.48,17.7 -8.02,26.8 -2.66,9 -5.31,18 -7.83,27.2 -3.59,12.4 -7.06,24.8 -10.49,37.4 -3.31,12 -6.62,24 -9.77,36.3 -7.08,26.7 -13.84,53.8 -20.41,81.4 -3.29,13.4 -6.46,26.8 -9.47,40.5 -2.79,12.2 -5.65,24.8 -8.27,37.2 -0.4,1.8 -0.8,3.5 -1.21,5.2 -2.84,13.3 -5.67,26.6 -8.46,40.2 -2.22,10.8 -4.31,21.6 -6.52,32.5 -3.41,17.3 -6.68,34.8 -9.91,52.5 -2.64,14.4 -5.27,28.9 -7.75,43.5 -2.5,14.5 -5.01,29 -7.36,43.7 l -0.1,0.7 c -2.28,14.4 -4.55,28.9 -6.8,43.4 l -0.15,1.2 c -2.3,15 -4.47,30 -6.53,45 -2.17,15 -4.09,30.1 -6.12,45.2 l -0.14,1.2 c -1.99,15.3 -3.87,30.7 -5.73,46.1 -1.77,14.6 -3.43,29.1 -5.05,44 -0.14,1.8 -0.41,3.6 -0.56,5.4 -1.67,15.2 -3.22,30.3 -4.73,45.7 -1.64,16 -3.12,32.2 -4.47,48.5 -1.48,16.2 -2.8,32.6 -4.11,49.1 -1.33,16.4 -2.49,33 -3.64,49.8 -1.06,15.8 -2.13,31.7 -3.03,47.8 -0.1,1.5 -0.18,3 -0.27,4.5 -0.98,16.3 -1.85,32.6 -2.55,49.2 -0.69,14 -1.35,28.2 -1.99,42.4 -0.49,13.2 -0.97,26.4 -1.41,39.8 -0.37,12.4 -0.75,24.8 -1.11,37.4 -0.07,4.2 -0.14,8.4 -0.22,12.6 -0.34,12 -0.67,24 -0.74,36.2 -0.32,14.1 -0.5,28.2 -0.54,42.5 -0.24,17.2 -0.23,34.4 -0.31,51.8 0.02,1.4 0.02,2.7 0.04,4.2 -0.02,17.7 0.1,35.5 0.25,53.5 0.13,15.2 0.38,30.5 0.66,45.9 0.57,33.6 1.42,67.3 2.59,101.6 0.26,10.6 0.74,21.3 1.13,32 0.52,13.5 1.18,27 1.74,40.7 0.16,3.5 0.31,7 0.47,10.5 0.91,18.3 1.84,36.7 2.89,55 0.95,17.2 2.02,34.4 3.12,51.7 0.26,5.4 0.64,10.8 1.02,16.2 0.67,10.3 1.34,20.7 2.13,31 0.75,12.1 1.65,24.3 2.65,36.5 1.12,14.8 2.35,29.5 3.6,44.4 1.65,20.4 3.44,40.9 5.34,61.3 1.81,20.7 3.87,41.3 5.95,62.1 2.1,20.9 4.2,41.8 6.55,62.8 2.22,20.9 4.68,41.8 7.05,62.9 l 0.19,1.1 c 2.5,21.2 5.01,42.4 7.79,63.7 2.71,21.7 5.53,43.3 8.49,65 2.84,21.7 5.91,43.4 9.03,65.3 l 0.2,1.1 c 3.1,21.8 6.33,43.7 9.69,65.7 3.29,22.2 6.86,44.7 10.44,67.2 7.15,45 14.76,90.6 22.92,136.5 1301.72,-175.1 1817.4,270.6 1817.4,270.6" /></g></g></svg>